<?xml version="1.0" encoding="utf-8"?>
<!-- Generator: Adobe Illustrator 15.0.0, SVG Export Plug-In . SVG Version: 6.00 Build 0)  -->
<!DOCTYPE svg PUBLIC "-//W3C//DTD SVG 1.1//EN" "http://www.w3.org/Graphics/SVG/1.1/DTD/svg11.dtd">
<svg version="1.1" id="Layer_1" xmlns="http://www.w3.org/2000/svg" xmlns:xlink="http://www.w3.org/1999/xlink" x="0px" y="0px"
	 width="1133.86px" height="1133.86px" viewBox="0 0 1133.86 1133.86" enable-background="new 0 0 1133.86 1133.86"
	 xml:space="preserve">
<path fill="#9DB03E" d="M678.023,771.968c-1.63,2.243-3.005,4.577-4.075,7.018c56.228-22.453,83.763-18.637,91.559,0
	c0,0,13.683-51.953,16.199-65.214c-0.006,0.003-0.012,0.006-0.019,0.009c-30.653,17.348-73.978,29.957-96.153,49.967
	C682.929,766.315,680.413,769.037,678.023,771.968z"/>
<g>
	<path fill="#9DB03E" d="M994.876,165.053C981.386,325.414,932.292,449.1,827.073,449.1h-73.665v65.959v21.288h73.665
		c114.586,0,169.638-146.691,169.638-327.67C996.711,193.874,996.101,179.333,994.876,165.053z"/>
	<path fill="#9DB03E" d="M138.984,165.053C152.475,325.414,201.568,449.1,306.787,449.1h73.666v65.959v21.288h-73.666
		c-114.585,0-169.637-146.691-169.637-327.67C137.149,193.874,137.76,179.333,138.984,165.053z"/>
</g>
<path fill="#92A43A" d="M380.453,536.347v-21.288V449.1h-37.201c-8.241,27.477-14.514,56.704-18.515,87.247H380.453z"/>
<path fill="#92A43A" d="M790.607,449.1h-37.199v65.959v21.288h55.716C805.12,505.803,798.849,476.576,790.607,449.1z"/>
<g>
	<g>
		<radialGradient id="SVGID_1_" cx="644.7363" cy="353.665" r="231.4114" gradientUnits="userSpaceOnUse">
			<stop  offset="0" style="stop-color:#DCDC3B"/>
			<stop  offset="1" style="stop-color:#B2C845"/>
		</radialGradient>
		<path fill="url(#SVGID_1_)" d="M790.803,622.063c0.023-2.129,0.04-4.261,0.04-6.398c0-195.035-100.249-353.141-223.914-353.141
			c-123.662,0-223.911,158.106-223.911,353.141c0,1.998,0.015,3.991,0.035,5.981c-43.747,47.693-25.347,72.84,8.723,92.127
			c26.956,147.304,113.076,255.035,215.153,255.035c102.136,0,188.296-107.852,215.201-255.281
			C815.824,694.329,833.875,669.282,790.803,622.063z"/>
	</g>
	<defs>
		<filter id="Adobe_OpacityMaskFilter" filterUnits="userSpaceOnUse" x="317.375" y="262.523" width="498.723" height="706.285">
			
				<feColorMatrix  type="matrix" values="-1 0 0 0 1  0 -1 0 0 1  0 0 -1 0 1  0 0 0 1 0" color-interpolation-filters="sRGB" result="source"/>
		</filter>
	</defs>
	<mask maskUnits="userSpaceOnUse" x="317.375" y="262.523" width="498.723" height="706.285" id="SVGID_2_">
		<g filter="url(#Adobe_OpacityMaskFilter)">
			
				<image overflow="visible" width="2095" height="2960" xlink:href="5D1AD105.jpg"  transform="matrix(0.24 0 0 0.24 315.375 260.5229)">
			</image>
		</g>
	</mask>
	<g opacity="0.1" mask="url(#SVGID_2_)">
		<path fill="#030405" d="M790.803,622.063c0.023-2.129,0.04-4.261,0.04-6.398c0-195.035-100.249-353.141-223.914-353.141
			c-123.662,0-223.911,158.106-223.911,353.141c0,1.998,0.015,3.991,0.035,5.981c-43.747,47.693-25.347,72.84,8.723,92.127
			c26.956,147.304,113.076,255.035,215.153,255.035c102.136,0,188.296-107.852,215.201-255.281
			C815.824,694.329,833.875,669.282,790.803,622.063z"/>
	</g>
</g>
<g>
	<g>
		<g>
			
				<image overflow="visible" opacity="0.75" width="599" height="850" xlink:href="5D1AD10C.png"  transform="matrix(0.24 0 0 0.24 398.311 492.6655)">
			</image>
			<g>
				<g>
					<ellipse fill="#FBFBFB" cx="472.919" cy="591.109" rx="54.766" ry="84.98"/>
				</g>
				<defs>
					
						<filter id="Adobe_OpacityMaskFilter_1_" filterUnits="userSpaceOnUse" x="418.153" y="506.13" width="109.532" height="169.96">
						
							<feColorMatrix  type="matrix" values="-1 0 0 0 1  0 -1 0 0 1  0 0 -1 0 1  0 0 0 1 0" color-interpolation-filters="sRGB" result="source"/>
					</filter>
				</defs>
				<mask maskUnits="userSpaceOnUse" x="418.153" y="506.13" width="109.532" height="169.96" id="SVGID_3_">
					<g filter="url(#Adobe_OpacityMaskFilter_1_)">
						
							<image overflow="visible" width="474" height="725" xlink:href="5D1AD10D.jpg"  transform="matrix(0.24 0 0 0.24 416.1533 504.1299)">
						</image>
					</g>
				</mask>
				<g opacity="0.05" mask="url(#SVGID_3_)">
					<ellipse fill="#030405" cx="472.919" cy="591.109" rx="54.766" ry="84.98"/>
				</g>
			</g>
		</g>
		<path fill="#030405" d="M503.448,591.109c0,26.162-13.666,47.378-30.53,47.378c-16.861,0-30.531-21.216-30.531-47.378
			c0-26.165,13.67-47.374,30.531-47.374C489.782,543.735,503.448,564.945,503.448,591.109z"/>
		<circle fill="#FFFFFF" cx="492.784" cy="554.4" r="10.664"/>
		<circle fill="#FFFFFF" cx="503.449" cy="588.655" r="6.788"/>
	</g>
	<g>
		<g>
			
				<image overflow="visible" opacity="0.75" width="599" height="599" xlink:href="5D1AD10F.png"  transform="matrix(0.24 0 0 0.24 586.332 522.8789)">
			</image>
			<g>
				<g>
					<circle fill="#FBFBFB" cx="660.941" cy="591.109" r="54.766"/>
				</g>
				<defs>
					
						<filter id="Adobe_OpacityMaskFilter_2_" filterUnits="userSpaceOnUse" x="606.175" y="536.343" width="109.532" height="109.534">
						
							<feColorMatrix  type="matrix" values="-1 0 0 0 1  0 -1 0 0 1  0 0 -1 0 1  0 0 0 1 0" color-interpolation-filters="sRGB" result="source"/>
					</filter>
				</defs>
				<mask maskUnits="userSpaceOnUse" x="606.175" y="536.343" width="109.532" height="109.534" id="SVGID_4_">
					<g filter="url(#Adobe_OpacityMaskFilter_2_)">
						
							<image overflow="visible" width="474" height="474" xlink:href="5D1AD10C.jpg"  transform="matrix(0.24 0 0 0.24 604.1748 534.3433)">
						</image>
					</g>
				</mask>
				<g opacity="0.05" mask="url(#SVGID_4_)">
					<circle fill="#030405" cx="660.941" cy="591.109" r="54.766"/>
				</g>
			</g>
		</g>
		<circle fill="#030405" cx="660.939" cy="591.109" r="30.531"/>
		<ellipse fill="#FFFFFF" cx="680.806" cy="567.451" rx="10.664" ry="6.873"/>
		<ellipse fill="#FFFFFF" cx="691.47" cy="589.528" rx="6.788" ry="4.375"/>
	</g>
</g>
<g>
	<path d="M581.376,861.047c1.633-4.101,3.693-8.033,6.076-11.764c2.408-3.714,5.175-7.201,8.242-10.404
		c6.144-6.403,13.573-11.569,21.693-15.176c8.146-3.538,16.999-5.51,25.881-5.535c4.438-0.009,8.873,0.443,13.207,1.355
		c4.326,0.944,8.558,2.312,12.57,4.15c-8.188-3.284-16.997-4.933-25.768-4.736c-8.768,0.183-17.484,2.121-25.489,5.681
		c-8.042,3.481-15.358,8.582-21.547,14.796C590.042,845.629,585.029,853.019,581.376,861.047z"/>
</g>
<g>
	
		<image overflow="visible" opacity="0.75" width="358" height="293" xlink:href="5D1AD104.png"  transform="matrix(0.24 0 0 0.24 590.5996 818.167)">
	</image>
	<g>
		<path fill="#87B54B" d="M631.943,849.187c14.356-4.493,14.822-5.865,29.412-0.302c-5.615-12.394-17.978-19.188-34.819-13.916
			c-17.898,5.604-25.55,26.367-18.105,36.285C615.875,881.171,616.366,854.065,631.943,849.187z"/>
	</g>
</g>
<g>
	
		<image overflow="visible" opacity="0.75" width="358" height="293" xlink:href="5D1AD107.png"  transform="matrix(0.24 0 0 0.24 595.3818 835.0215)">
	</image>
	<g>
		<path fill="#DCDC3B" d="M639.794,874.247c-14.356,4.499-14.822,5.867-29.412,0.301c5.614,12.4,17.978,19.193,34.819,13.919
			c17.898-5.603,25.549-26.364,18.105-36.281C655.862,842.268,655.371,869.373,639.794,874.247z"/>
	</g>
</g>
<path d="M663.844,853.9c3.76,12.008-5.599,25.626-20.9,30.418c-15.303,4.794-30.752-1.06-34.513-13.064
	c-3.761-12.008,5.595-25.623,20.897-30.417C644.63,836.048,660.083,841.898,663.844,853.9z"/>
<path fill="#DCDC3B" d="M669.046,824.648c0,0-55.966-19.855-85.063,36.398C609.55,817.159,669.046,824.648,669.046,824.648z"/>
<path fill="none" d="M455.463,771.981c-2.1-2.893-4.634-5.632-7.531-8.244C450.545,766.313,453.067,769.042,455.463,771.981z"/>
<path fill="#9DB03E" d="M459.316,778.501c-0.101-0.229-0.194-0.443-0.279-0.637C459.14,778.099,459.236,778.317,459.316,778.501z"/>
<path fill="#9DB03E" d="M459.024,777.834c-0.044-0.101-0.085-0.193-0.125-0.284C458.941,777.646,458.983,777.74,459.024,777.834z"/>
<path fill="#9DB03E" d="M459.715,777.622c-0.064,0.455-0.115,0.904-0.186,1.363h1.159
	C460.37,778.52,460.038,778.079,459.715,777.622z"/>
<path fill="#9DB03E" d="M458.301,776.187c-0.033-0.075-0.052-0.119-0.061-0.138C458.249,776.066,458.27,776.114,458.301,776.187z"/>
<path fill="#9DB03E" d="M458.804,777.333c-0.262-0.597-0.422-0.962-0.502-1.144C458.4,776.413,458.596,776.858,458.804,777.333z"/>
<linearGradient id="SVGID_5_" gradientUnits="userSpaceOnUse" x1="391.6597" y1="787.0098" x2="409.9767" y2="733.8133">
	<stop  offset="0" style="stop-color:#B2C845"/>
	<stop  offset="1" style="stop-color:#92A43A"/>
</linearGradient>
<path fill="url(#SVGID_5_)" d="M447.932,763.737c-22.178-20.003-65.489-32.61-96.137-49.954c-0.008-0.004-0.017-0.008-0.024-0.012
	c2.517,13.261,16.583,65.214,16.583,65.214c7.796-18.637,34.949-22.453,91.175,0c-1.068-2.436-2.439-4.765-4.066-7.004
	C453.067,769.042,450.545,766.313,447.932,763.737z"/>
<linearGradient id="SVGID_6_" gradientUnits="userSpaceOnUse" x1="69.4819" y1="787.0107" x2="87.7991" y2="733.8138" gradientTransform="matrix(-1 0 0 1 811.2988 0)">
	<stop  offset="0" style="stop-color:#B2C845"/>
	<stop  offset="1" style="stop-color:#92A43A"/>
</linearGradient>
<path fill="url(#SVGID_6_)" d="M685.545,763.737c22.178-20.003,65.488-32.61,96.137-49.954c0.008-0.004,0.017-0.008,0.024-0.012
	c-2.517,13.261-16.583,65.214-16.583,65.214c-7.797-18.637-34.949-22.453-91.176,0c1.068-2.436,2.439-4.765,4.066-7.004
	C680.409,769.042,682.932,766.313,685.545,763.737z"/>
<path fill="#9DB03E" d="M459.516,778.955c-0.048-0.108-0.09-0.206-0.135-0.307C459.446,778.797,459.494,778.906,459.516,778.955z"/>
<path fill="none" d="M685.534,763.747c-2.888,2.605-5.415,5.337-7.511,8.221C680.413,769.037,682.929,766.315,685.534,763.747z"/>
<path fill="#9DB03E" d="M672.789,778.985h1.159c-0.071-0.459-0.122-0.908-0.187-1.364
	C673.439,778.079,673.106,778.52,672.789,778.985z"/>
<path fill="#9DB03E" d="M674.05,778.754c-0.018,0.04-0.034,0.078-0.053,0.119C674.012,778.84,674.029,778.8,674.05,778.754z"/>
<path fill="#9DB03E" d="M675.108,776.339c-0.003,0.008-0.007,0.018-0.011,0.025C675.102,776.355,675.105,776.348,675.108,776.339z"
	/>
<path fill="#9DB03E" d="M674.667,777.346c-0.153,0.351-0.344,0.785-0.574,1.311C674.233,778.336,674.455,777.83,674.667,777.346z"/>
</svg>
