<?xml version="1.0" encoding="utf-8"?>
<!-- Generator: Adobe Illustrator 15.0.0, SVG Export Plug-In . SVG Version: 6.00 Build 0)  -->
<!DOCTYPE svg PUBLIC "-//W3C//DTD SVG 1.1//EN" "http://www.w3.org/Graphics/SVG/1.1/DTD/svg11.dtd">
<svg version="1.1" xmlns="http://www.w3.org/2000/svg" xmlns:xlink="http://www.w3.org/1999/xlink" x="0px" y="0px"
	 width="17.008px" height="30px" viewBox="0 0 17.008 30" enable-background="new 0 0 17.008 30" xml:space="preserve">
<g id="Layer_1" display="none">
	<line display="inline" fill="none" stroke="#000000" stroke-miterlimit="10" x1="23.504" y1="0" x2="-6.496" y2="30"/>
	<line display="inline" fill="none" stroke="#000000" stroke-miterlimit="10" x1="-6.496" y1="0" x2="23.504" y2="30"/>
</g>
<g id="Layer_2">
</g>
<g id="Layer_3">
	<path fill="#FFFFFF" d="M5.884,16.127l0.008-0.008c-0.287-0.288-0.463-0.679-0.463-1.118s0.176-0.83,0.463-1.117H5.884v-0.008
		l9.721-9.721c0.631-0.623,0.631-1.628,0-2.251c-0.623-0.631-1.628-0.631-2.251,0L1.383,13.876l0.008,0.008
		c-0.287,0.287-0.463,0.679-0.463,1.117s0.176,0.83,0.463,1.118l-0.008,0.008l11.971,11.971c0.312,0.311,0.719,0.471,1.126,0.471
		c0.406,0,0.813-0.16,1.125-0.471c0.631-0.623,0.631-1.629,0-2.25L5.884,16.127z"/>
</g>
</svg>
