<?xml version="1.0" encoding="utf-8"?>
<!-- Generator: Adobe Illustrator 15.0.0, SVG Export Plug-In . SVG Version: 6.00 Build 0)  -->
<!DOCTYPE svg PUBLIC "-//W3C//DTD SVG 1.1//EN" "http://www.w3.org/Graphics/SVG/1.1/DTD/svg11.dtd">
<svg version="1.1" id="Layer_1" xmlns="http://www.w3.org/2000/svg" xmlns:xlink="http://www.w3.org/1999/xlink" x="0px" y="0px"
	 width="180px" height="180px" viewBox="0 0 180 180" enable-background="new 0 0 180 180" xml:space="preserve">
<g>
	<g>
		<path fill="#C73539" d="M170,105.287c0,8.741-7.087,15.827-15.826,15.827H91.542c-8.741,0-15.827-7.086-15.827-15.827V74.712
			c0-8.741,7.086-15.826,15.827-15.826h62.632c8.739,0,15.826,7.085,15.826,15.826V105.287z"/>
		<g>
			<defs>
				<filter id="Adobe_OpacityMaskFilter" filterUnits="userSpaceOnUse" x="137.156" y="61.633" width="29.579" height="19.602">
					<feFlood  style="flood-color:white;flood-opacity:1" result="back"/>
					<feBlend  in="SourceGraphic" in2="back" mode="normal"/>
				</filter>
			</defs>
			<mask maskUnits="userSpaceOnUse" x="137.156" y="61.633" width="29.579" height="19.602" id="SVGID_1_">
				<g filter="url(#Adobe_OpacityMaskFilter)">
					
						<image overflow="visible" width="140" height="99" xlink:href="7D112D19.jpg"  transform="matrix(0.24 0 0 0.24 135.1563 59.6333)">
					</image>
				</g>
			</mask>
			<g mask="url(#SVGID_1_)">
				<linearGradient id="SVGID_2_" gradientUnits="userSpaceOnUse" x1="157.6631" y1="61.8218" x2="151.525" y2="72.4532">
					<stop  offset="0" style="stop-color:#FFFFFF"/>
					<stop  offset="0.1014" style="stop-color:#FCF5F5"/>
					<stop  offset="0.2741" style="stop-color:#F5DADB"/>
					<stop  offset="0.4972" style="stop-color:#E9AEB0"/>
					<stop  offset="0.759" style="stop-color:#D87274"/>
					<stop  offset="1" style="stop-color:#C73438"/>
				</linearGradient>
				<path fill="url(#SVGID_2_)" d="M137.156,62.219c0,0,28.786-3.961,29.579,8.716v10.3L137.156,62.219z"/>
			</g>
		</g>
	</g>
	<g>
		<path fill="#FFFFFF" d="M91.443,108.519v-33.04h-6.536v-6.534h18.732v6.534h-6.533v33.04H91.443z"/>
		<path fill="#FFFFFF" d="M121.352,78.798v29.721h-5.19v-2.954c-1.095,2.497-2.694,3.744-4.805,3.744
			c-3.399,0-5.102-2.389-5.102-7.165V78.798h5.112v19.417c0,1.595,0.092,2.732,0.273,3.418c0.329,1.183,0.986,1.773,1.969,1.773
			c1.063,0,1.771-0.642,2.126-1.926c0.196-0.738,0.294-1.971,0.294-3.7V78.798H121.352z"/>
		<path fill="#FFFFFF" d="M125.917,108.519V68.945h5.295v12.37c0.885-2.205,2.383-3.307,4.491-3.307c2.69,0,4.452,1.917,5.281,5.752
			c0.426,1.935,0.636,5.281,0.636,10.039c0,4.621-0.23,7.927-0.691,9.913c-0.87,3.73-2.648,5.597-5.335,5.597
			c-2.241,0-3.788-1.301-4.645-3.897v3.107H125.917z M133.822,83.78c-1.446,0-2.336,1.525-2.667,4.573
			c-0.067,0.616-0.101,2.8-0.101,6.55c0,2.896,0.06,4.701,0.179,5.422c0.345,2.208,1.207,3.313,2.589,3.313
			c1.288,0,2.07-1.354,2.349-4.06c0.066-0.565,0.1-2.508,0.1-5.83c0-3.442-0.024-5.404-0.078-5.883
			C135.913,85.142,135.124,83.78,133.822,83.78z"/>
		<path fill="#FFFFFF" d="M155.67,98.319h4.979c0,0.137,0.007,0.329,0.019,0.579c0.015,0.247,0.02,0.44,0.02,0.577
			c0,3.424-0.631,5.918-1.896,7.484c-1.265,1.564-3.227,2.349-5.889,2.349c-2.753,0-4.737-0.949-5.947-2.852
			c-0.964-1.506-1.576-3.704-1.839-6.598c-0.12-1.269-0.179-3.656-0.179-7.163c0-2.826,0.059-4.836,0.179-6.036
			c0.236-2.43,0.758-4.279,1.561-5.545c1.319-2.071,3.438-3.107,6.363-3.107c2.82,0,4.881,1.12,6.185,3.361
			c1.056,1.813,1.581,5.472,1.581,10.982v2.256h-10.395c-0.038,0.328-0.059,0.96-0.059,1.902c0,2.212,0.093,3.789,0.277,4.73
			c0.382,1.937,1.173,2.905,2.37,2.905C154.781,104.145,155.67,102.202,155.67,98.319z M150.365,89.89h5.127v-1.256
			c0-1.708-0.119-2.921-0.356-3.639c-0.368-1.144-1.112-1.717-2.232-1.717c-0.935,0-1.602,0.394-1.996,1.179
			c-0.474,0.975-0.673,2.366-0.593,4.177l0.026,0.411C150.358,89.335,150.365,89.617,150.365,89.89z"/>
	</g>
	<g>
		<path fill="#040506" d="M18.028,108.743V91.868L10,68.945h6.319l4.632,14.97l4.569-14.97h6.141l-7.882,22.923v16.875H18.028z"/>
		<path fill="#040506" d="M33.629,93.813c0-5.147,0.391-8.798,1.172-10.95c1.165-3.201,3.469-4.803,6.912-4.803
			c3.443,0,5.755,1.602,6.934,4.803c0.781,2.134,1.172,5.785,1.172,10.95c0,5.162-0.391,8.813-1.172,10.949
			c-1.179,3.182-3.491,4.776-6.934,4.776c-3.442,0-5.747-1.601-6.912-4.803C34.02,102.601,33.629,98.959,33.629,93.813z
			 M39.087,94.199c0,3.701,0.02,5.712,0.059,6.038c0.277,2.667,1.118,4.002,2.527,4.002c1.411,0,2.271-1.145,2.588-3.433
			c0.065-0.499,0.099-2.365,0.099-5.601V92.29c0-3.029-0.04-4.852-0.117-5.471c-0.333-2.271-1.173-3.407-2.53-3.407
			c-1.315,0-2.139,0.999-2.468,2.994c-0.104,0.636-0.157,2.314-0.157,5.032V94.199z"/>
		<path fill="#040506" d="M68.903,78.855v29.888h-5.22v-2.97c-1.101,2.51-2.71,3.765-4.833,3.765c-3.419,0-5.131-2.401-5.131-7.205
			V78.855h5.142v19.527c0,1.604,0.092,2.75,0.276,3.437c0.329,1.19,0.99,1.785,1.979,1.785c1.068,0,1.781-0.646,2.138-1.938
			c0.197-0.742,0.296-1.98,0.296-3.72v-19.09H68.903z"/>
	</g>
</g>
</svg>
