<?xml version="1.0" encoding="utf-8"?>
<!-- Generator: Adobe Illustrator 15.0.0, SVG Export Plug-In . SVG Version: 6.00 Build 0)  -->
<!DOCTYPE svg PUBLIC "-//W3C//DTD SVG 1.1//EN" "http://www.w3.org/Graphics/SVG/1.1/DTD/svg11.dtd">
<svg version="1.1" xmlns="http://www.w3.org/2000/svg" xmlns:xlink="http://www.w3.org/1999/xlink" x="0px" y="0px"
	 width="1814.174px" height="1814.174px" viewBox="0 0 1814.174 1814.174" enable-background="new 0 0 1814.174 1814.174"
	 xml:space="preserve">
<g id="Skikt_1">
</g>
<g id="Lager_1">
	<g>
		<path fill="#22407D" d="M1686.457,577.177c-20.607-48.407-62.065-85.313-123.413-109.518
			c-170.388-67.579-471.859-27.079-767.819,103.527c-158.163,69.496-300.272,158.163-409.07,253.782h29.476
			c11.264,0,18.693,4.073,25.881,11.981c7.19-7.908,20.131-11.981,30.915-11.981h157.446c9.826,0,15.098,6.231,18.211,11.981
			c8.149-7.668,19.412-11.263,23.247-12.699c10.304-3.358,21.329-5.035,31.87-4.795c15.816,0.241,30.437,1.678,44.098,9.826
			c7.908,4.791,16.054,11.021,25.161,28.037c17.494-15.575,40.74-29.236,71.414-36.904c12.462-3.114,28.997-5.99,52.484-5.031
			c12.939,0.478,25.879,1.677,35.224,3.595c17.017,2.873,31.155,9.822,39.304,17.972c1.915-6.709,4.795-17.013,4.795-17.013
			l25.398-95.86c4.557-16.534,19.651-28.037,36.904-28.037h101.609c11.984,0,23.247,5.513,30.678,15.098
			c5.75,7.908,8.148,17.493,7.187,27.079c1.199-0.237,2.396-0.719,3.595-1.196c26.12-7.431,53.202-5.035,74.531,6.709
			c16.771,9.585,28.756,24.442,33.55,41.698c3.836,12.94,3.354,26.361-0.718,39.541h65.42c8.386,0,17.016,2.636,21.088,11.981
			c11.267-7.908,23.247-11.981,37.146-12.222c5.513,0,10.544,0.24,18.215,0.24c27.798-58.952,33.551-115.749,13.898-161.761
			c-17.256-40.978-52.243-72.133-104.245-92.74c-143.068-56.797-395.889-22.766-644.162,86.749
			c-38.341,17.017-75.727,35.228-111.673,54.64c67.579-41.937,141.869-81.24,221.669-116.468
			c289.731-127.729,583.292-168.467,747.448-103.284c54.639,21.808,91.303,53.681,108.797,95.376
			c28.037,65.664-8.867,144.505-72.61,237.488h40.259C1691.729,730.789,1715.217,645.477,1686.457,577.177z"/>
		<path fill="#22407D" d="M1216.038,1146.089c-46.49,25.883-95.616,50.085-146.897,72.854
			c-289.732,127.729-583.294,167.988-747.451,103.046c-6.229-2.398-12.221-5.034-17.973-7.671
			c144.984,50.089,390.62,14.861,631.7-91.543c52.962-23.243,103.527-48.886,151.214-76.687H951.955
			c-25.643,0-35.709-5.031-43.136-15.098c-19.893,14.86-55.12,24.446-86.512,24.446c-33.31,0-48.651-0.959-73.334-9.826
			c-13.418-5.513-24.443-13.898-33.069-23.246c-1.196-1.196-2.396-2.396-3.354-3.596c-14.139,16.298-31.873,27.319-65.664,27.319
			c-11.022,0-17.734,0-28.276,0l-15.337,52.484c-4.552,16.534-19.65,28.037-36.905,28.037H447.504
			c-11.982,0-23.485-5.753-30.675-15.338c-7.188-9.586-9.585-21.807-6.47-33.551l9.106-31.633h-38.582
			c-2.875,0-18.214,0-28.997-15.098l-1.677,1.918c-7.19,8.867-20.131,13.18-31.634,13.18c0,0-24.683,0-55.357,0
			c-3.116,0-12.701,0-23.486-15.098l-1.677,1.918c-7.188,8.867-25.881,13.18-37.144,13.18c-12.941,0-22.526,0-25.883,0
			c-1.677,29.478,2.636,65.424,13.421,90.825c20.609,48.408,62.067,85.313,123.417,109.759
			c170.386,67.338,471.86,26.838,768.056-103.527c66.382-29.475,129.885-62.066,189.317-97.057H1216.038z"/>
		<g>
			<path fill="#22407D" d="M298.206,930.651c-1.199-18.452-4.314-30.674-9.587-39.541c-7.908-11.983-14.857-19.17-34.987-25.883
				c-15.816-5.512-31.153-5.99-46.97-4.791v54.158h0.239c3.115-2.396,10.783-1.918,13.66,0c4.792,2.636,8.387,9.585,6.47,19.171
				c-1.916,8.629-8.388,27.319-8.388,27.319h-11.981v39.54h79.082c0,0,4.313-11.021,6.949-20.848
				C295.57,966.356,299.404,950.303,298.206,930.651L298.206,930.651z M206.663,1111.103c17.732-5.513,34.028-14.857,43.136-25.402
				c10.065-11.262,21.328-23.483,25.641-45.053c0,0,1.438-6.949,1.438-8.627l-52.482,0.241c0,0-2.636,7.907-6.47,13.417
				c-2.876,4.076-6.231,9.826-11.263,14.14V1111.103z M206.663,860.437c-1.679,0.237-3.356,0.479-5.273,0.479
				c-19.171,2.396-42.656,14.379-52.48,21.807c-7.908,5.99-24.444,21.088-36.666,46.253c-11.742,25.161-24.924,63.024-28.039,100.65
				c-2.636,32.352,4.074,46.25,12.462,58.23c6.949,10.544,24.204,22.047,40.74,25.643c16.056,3.835,46.251,4.313,65.422-1.437
				c1.198-0.241,2.636-0.719,3.835-0.959v-51.284c-1.917,1.677-4.314,3.116-6.951,4.075c-9.345,3.832-15.576,1.196-19.411,0
				c-3.834-0.959-9.585-7.189-10.544-12.942c-1.437-6.949,0-32.592,5.992-50.326h30.914v-39.54h-20.61
				c0,0,2.397-16.775,8.148-30.915c4.313-9.822,8.147-12.699,12.462-15.575V860.437z"/>
			<polygon fill="#22407D" points="477.698,1052.868 462.602,1108.466 382.8,1108.466 368.182,1050.473 320.492,1108.466 
				265.135,1108.466 279.274,1052.868 305.395,1052.868 353.563,994.635 334.152,917.23 321.451,917.23 335.829,862.592 
				412.995,862.592 427.134,917.23 469.79,862.592 522.033,862.592 506.215,917.23 488.722,917.23 442.232,975.224 
				462.123,1052.868 			"/>
			<path fill="#22407D" d="M735.792,895.184c-3.591-13.421-15.576-25.88-24.202-29.237c-10.304-4.313-23.965-6.468-35.708-4.313
				c-9.345,1.678-22.047,6.712-27.557,9.826c-7.19,3.595-19.411,13.421-19.411,13.421l5.035-20.852h-15.1v66.623
				c0.959-1.199,2.396-2.396,4.074-3.835c4.793-3.354,12.699-4.073,17.253-0.237c6.231,4.313,5.75,14.857,5.272,18.212
				c-1.437,6.23-11.981,69.255-25.641,88.188c-0.479,0.478-0.72,0.959-0.959,1.196v75.49c6.231,0.958,14.138,1.677,23.245,0.478
				c18.934-2.396,33.788-14.857,46.73-30.196c12.222-14.857,22.047-36.664,30.193-56.553c12.462-32.354,17.734-70.937,18.456-76.927
				C739.631,931.851,740.109,911,735.792,895.184z M618.849,864.028h-83.635l-14.139,53.202h13.899l-60.15,216.159h-12.221
				l-15.098,54.639h118.863l15.816-54.639h-21.088l12.462-48.647c13.18,14.379,28.756,19.651,28.756,19.651
				s5.992,3.354,16.536,5.272v-75.49c-4.074,5.513-8.867,7.431-13.66,7.189c-6.71-0.24-8.628-2.154-11.264-5.99
				c-2.875-4.072-2.636-13.18,0.241-24.442c1.438-5.754,17.254-65.184,19.17-69.978c1.2-3.114,2.397-6.709,5.513-10.304V864.028z"/>
			<path fill="#22407D" d="M972.8,930.892c-1.196-23.246-12.219-41.698-20.367-50.088c-7.908-8.146-19.411-16.775-38.585-20.13
				c-6.949-1.195-16.535-2.154-26.357-2.396c-14.62-0.718-25.883,0.719-34.512,2.637v70.214c1.68-3.595,3.357-6.708,4.557-8.146
				c6.468-6.712,10.782-8.866,16.294-8.389c6.468,0.48,11.262,5.031,10.785,14.62c-0.241,8.863-1.918,16.054-3.358,20.848
				c-0.958,5.513-17.253,62.787-19.411,69.256c-1.677,6.712-5.509,16.057-7.908,21.807c-0.237,0.722-0.718,1.199-0.958,1.681v69.015
				c14.142-2.636,25.886-8.148,40.743-17.493c23.961-14.617,44.332-39.301,54.639-63.983
				C960.818,999.188,973.521,957.971,972.8,930.892z M852.978,860.915c-1.677,0.24-3.354,0.718-4.792,0.959
				c-40.259,10.066-63.746,34.027-76.445,55.356c-8.389,13.421-23.006,47.93-28.756,67.101c-5.272,17.016-9.107,40.022-9.107,51.763
				c0,9.348,1.914,26.36,8.626,38.822c6.468,12.462,17.971,24.442,34.509,31.154c18.453,6.709,29.956,7.428,54.876,7.428
				c7.912,0,14.861-0.479,21.089-1.678v-69.015c-2.636,5.031-6.228,9.822-10.782,11.98c-5.75,2.877-12.699,2.158-16.538-1.437
				c-5.99-5.035-4.313-13.421-3.351-20.37c0.956-7.189,21.807-76.927,21.807-78.363c0,0,4.794-13.901,8.864-23.487V860.915z"/>
			<polygon fill="#22407D" points="1037.982,734.385 1139.592,734.385 1049.967,1053.109 1063.388,1053.109 1047.571,1107.748 
				936.136,1107.748 951.474,1053.109 964.173,1053.109 1025.761,830 1011.622,830 			"/>
			<polygon fill="#22407D" points="1062.666,1107.748 1078.726,1053.35 1091.906,1053.35 1129.529,918.908 1115.39,918.908 
				1130.966,863.551 1233.057,863.551 1180.095,1053.35 1192.794,1053.35 1175.538,1107.748 			"/>
			<path fill="#22407D" d="M1337.536,943.351l-30.91,109.759h13.657l-17.016,54.639h-112.869l16.294-54.398h12.94l37.866-134.441
				h-13.898l15.336-55.598h102.328l-5.754,20.851c0,0,17.253-14.62,29.237-19.174c11.984-4.551,22.048-5.75,31.155-5.509
				c10.784,0.478,25.879,3.595,37.623,17.012c6.949,8.63,8.148,25.165,4.794,38.104c-2.158,8.626-38.582,138.515-38.582,138.515
				h13.181l-16.298,54.639h-99.692c0,0,44.336-155.29,46.253-164.875c2.155-9.107-2.876-12.94-8.867-13.421
				C1348.324,929.215,1341.853,931.61,1337.536,943.351z"/>
			<path fill="#22407D" d="M1212.205,847.017c28.038-7.908,46.01-30.674,40.022-50.807c-5.513-20.367-32.832-30.193-60.393-22.285
				c-28.037,7.908-46.012,30.674-40.019,51.044C1157.804,845.099,1184.886,854.924,1212.205,847.017z"/>
			<path fill="#22407D" d="M1645.479,863.073h29.956l-26.12,93.221h-52.003c0,0,6.231-23.725,5.272-31.873
				c-0.722-8.627-5.754-13.421-10.785-14.14c-6.23-0.959-10.063,1.678-12.462,4.313c-8.386,8.148-19.171,37.623-28.037,66.619
				c-7.431,23.487-14.14,58.715-14.62,64.465c-0.237,6.472,1.439,16.298,11.506,17.734c8.867,1.199,14.617-4.313,17.734-8.387
				c4.31-5.753,11.021-20.851,11.499-23.724h51.525c0,0-6.472,18.689-13.421,32.11c-8.148,14.62-14.857,22.766-23.247,29.715
				c-14.136,11.503-23.243,14.139-34.027,18.215c-10.785,3.354-27.319,4.072-38.342,3.595c-11.025-0.48-28.278-2.158-46.012-16.775
				c-17.734-14.379-20.849-29.478-22.288-38.822c-2.158-13.18-0.959-46.49,7.908-77.167c8.867-29.475,19.889-52.003,29.478-66.379
				c9.345-15.098,26.598-35.709,44.332-46.253c17.256-10.063,36.904-11.263,48.647-11.263c11.984,0,37.387,2.158,51.048,14.857
				C1638.053,877.689,1645.479,863.073,1645.479,863.073z"/>
		</g>
		<path fill="#22407D" d="M1713.78,840.066c9.822,0,16.294,6.469,16.771,15.336v1.917c0,1.678-0.237,3.354-0.715,5.032
			c-2.88,10.066-12.222,18.692-22.048,21.329v-6.231c6.709-1.677,12.699-7.189,14.857-15.098
			c2.633-9.586-1.917-15.816-10.547-15.816c-1.437,0-3.114,0.24-4.311,0.722v-6.231
			C1709.704,840.545,1711.862,840.066,1713.78,840.066L1713.78,840.066z M1707.789,873.854h5.75l-2.636-9.345
			c3.595-0.24,6.468-1.678,7.668-5.99c1.437-5.754-1.438-7.19-7.908-7.19h-2.874v4.313h1.437c1.678,0,4.313,0,3.833,2.158
			c-0.719,2.155-1.915,2.873-4.073,2.873h-1.196V873.854z M1707.789,883.681c-2.158,0.48-4.313,0.718-6.23,0.718
			c-9.829,0-16.298-6.468-16.778-15.335v-1.918c0-1.437,0.24-3.117,0.722-4.794c2.873-10.304,12.221-18.689,22.287-21.326v6.231
			c-6.949,1.437-12.942,7.187-15.098,15.095c-2.64,9.589,2.155,15.579,10.544,15.579c1.678,0,3.114-0.241,4.554-0.481V883.681
			L1707.789,883.681z M1707.789,851.329h-5.993l-6.231,22.525h5.513l2.399-8.867h2.154l1.918,8.867h0.24v-13.181h-3.116l1.437-5.031
			h1.68V851.329z"/>
	</g>
</g>
</svg>
