<?xml version="1.0" encoding="utf-8"?>
<!-- Generator: Adobe Illustrator 15.0.0, SVG Export Plug-In . SVG Version: 6.00 Build 0)  -->
<!DOCTYPE svg PUBLIC "-//W3C//DTD SVG 1.1//EN" "http://www.w3.org/Graphics/SVG/1.1/DTD/svg11.dtd">
<svg version="1.1" id="Layer_1" xmlns="http://www.w3.org/2000/svg" xmlns:xlink="http://www.w3.org/1999/xlink" x="0px" y="0px"
	 width="850.394px" height="850.394px" viewBox="0 0 850.394 850.394" enable-background="new 0 0 850.394 850.394"
	 xml:space="preserve">
<g>
	<g>
		<path fill-rule="evenodd" clip-rule="evenodd" fill="#556497" d="M611.459,225.81c7.55-2.501,25.529-2.501,33.076,0
			C633.512,225.81,622.485,225.81,611.459,225.81z"/>
		<path fill-rule="evenodd" clip-rule="evenodd" fill="#C0C6D8" d="M530.274,261.892c4.563-2.498,19.491-2.498,24.055,0
			C546.311,261.892,538.293,261.892,530.274,261.892z"/>
		<path fill-rule="evenodd" clip-rule="evenodd" fill="#C0C6D8" d="M778.341,297.974c2.486,1.142,2.486,12.39,0,13.531
			C778.341,306.995,778.341,302.484,778.341,297.974z"/>
		<path fill-rule="evenodd" clip-rule="evenodd" fill="#8C96B8" d="M555.833,364.125c-0.247-2.467,9.267-2.467,9.02,0
			C561.846,364.125,558.84,364.125,555.833,364.125z"/>
		<path fill-rule="evenodd" clip-rule="evenodd" fill="#556497" d="M410,383.67c1.142-2.485,12.39-2.485,13.531,0
			C419.021,383.67,414.51,383.67,410,383.67z"/>
		<path fill-rule="evenodd" clip-rule="evenodd" fill="#556497" d="M791.871,398.704c2.44-1.075,2.438,7.089,0,6.014
			C791.871,402.713,791.871,400.709,791.871,398.704z"/>
		<path fill-rule="evenodd" clip-rule="evenodd" fill="#C0C6D8" d="M112.32,403.215c-0.247-2.468,9.268-2.468,9.021,0
			C118.334,403.215,115.327,403.215,112.32,403.215z"/>
		<path fill-rule="evenodd" clip-rule="evenodd" fill="#8C96B8" d="M229.588,404.718c4.069-2.497,18.482-2.497,22.552,0
			C244.623,404.718,237.105,404.718,229.588,404.718z"/>
		<path fill-rule="evenodd" clip-rule="evenodd" fill="#C0C6D8" d="M525.764,404.718c11.044-2.503,32.557-2.503,43.6,0
			C554.831,404.718,540.297,404.718,525.764,404.718z"/>
		<path fill-rule="evenodd" clip-rule="evenodd" fill="#8C96B8" d="M453.6,433.284c2.438-1.077,2.438,7.089,0,6.014
			C453.6,437.292,453.6,435.287,453.6,433.284z"/>
		<path fill-rule="evenodd" clip-rule="evenodd" fill="#556497" d="M97.286,466.359c13.54-3.5,33.57-0.508,49.613-1.503
			C133.359,468.354,113.329,465.364,97.286,466.359z"/>
		<path fill-rule="evenodd" clip-rule="evenodd" fill="#C0C6D8" d="M136.375,479.891c-1.076-2.44,7.089-2.438,6.014,0
			C140.384,479.891,138.38,479.891,136.375,479.891z"/>
		<path fill-rule="evenodd" clip-rule="evenodd" fill="#C0C6D8" d="M724.217,479.891c4.07-2.499,18.484-2.499,22.552,0
			C739.251,479.891,731.734,479.891,724.217,479.891z"/>
		<path fill-rule="evenodd" clip-rule="evenodd" fill="#556497" d="M489.682,487.408c0.341,2.164,4.487,0.522,4.511,3.007
			C491.13,491.698,484.852,489.105,489.682,487.408z"/>
		<path fill-rule="evenodd" clip-rule="evenodd" fill="#556497" d="M655.059,487.408c0.341,2.164,4.487,0.522,4.511,3.007
			C656.507,491.698,650.229,489.105,655.059,487.408z"/>
		<path fill-rule="evenodd" clip-rule="evenodd" fill="#556497" d="M444.579,490.415c0.465-2.041,3.765-1.248,6.014-1.504
			C450.313,491.137,446.96,490.288,444.579,490.415z"/>
		<path fill-rule="evenodd" clip-rule="evenodd" fill="#556497" d="M501.709,490.415c0.466-2.041,3.765-1.248,6.014-1.504
			C507.444,491.137,504.09,490.288,501.709,490.415z"/>
		<path fill-rule="evenodd" clip-rule="evenodd" fill="#556497" d="M558.84,490.415c0.465-2.041,3.764-1.248,6.013-1.504
			C564.574,491.137,561.221,490.288,558.84,490.415z"/>
		<path fill-rule="evenodd" clip-rule="evenodd" fill="#8C96B8" d="M306.263,514.47c0.247,2.467-9.267,2.467-9.021,0
			C300.25,514.47,303.256,514.47,306.263,514.47z"/>
		<path fill-rule="evenodd" clip-rule="evenodd" fill="#C0C6D8" d="M397.973,515.973c-2.593,2.493-15.448,2.493-18.041,0
			C385.945,515.973,391.959,515.973,397.973,515.973z"/>
		<path fill-rule="evenodd" clip-rule="evenodd" fill="#C0C6D8" d="M97.286,517.477c0.678,2.455-8.195,2.455-7.517,0
			C92.274,517.477,94.78,517.477,97.286,517.477z"/>
		<path fill-rule="evenodd" clip-rule="evenodd" fill="#C0C6D8" d="M563.35,531.008c4.069-2.499,18.484-2.499,22.551,0
			C578.384,531.008,570.866,531.008,563.35,531.008z"/>
		<path fill-rule="evenodd" clip-rule="evenodd" fill="#C0C6D8" d="M97.286,541.531c-2.467,0.247-2.467-9.267,0-9.021
			C97.286,535.518,97.286,538.524,97.286,541.531z"/>
		<path fill-rule="evenodd" clip-rule="evenodd" fill="#C0C6D8" d="M202.526,615.2c2.004,0,4.009,0,6.014,0c0,0.499,0,1.001,0,1.503
			C206.159,616.577,202.805,617.426,202.526,615.2z"/>
		<path fill-rule="evenodd" clip-rule="evenodd" fill="#8C96B8" d="M208.54,616.703c0-0.502,0-1.004,0-1.503
			c3.508,0,7.016,0,10.524,0c0,0.499,0,1.001,0,1.503C215.556,616.703,212.048,616.703,208.54,616.703z"/>
		<path fill-rule="evenodd" clip-rule="evenodd" fill="#556497" d="M219.064,616.703c0-0.502,0-1.004,0-1.503
			c4.009,0,8.019,0,12.027,0c0,0.499,0,1.001,0,1.503C227.083,616.703,223.073,616.703,219.064,616.703z"/>
		<path fill-rule="evenodd" clip-rule="evenodd" fill="#8C96B8" d="M231.091,616.703c0-0.502,0-1.004,0-1.503
			c3.508,0,7.016,0,10.524,0c0,0.499,0,1.001,0,1.503C238.107,616.703,234.6,616.703,231.091,616.703z"/>
		<path fill-rule="evenodd" clip-rule="evenodd" fill="#C0C6D8" d="M241.615,616.703c0-0.502,0-1.004,0-1.503
			c2.005,0,4.009,0,6.014,0C247.164,617.24,243.865,616.447,241.615,616.703z"/>
		<path fill-rule="evenodd" clip-rule="evenodd" fill="#C0C6D8" d="M267.174,622.717c0.465-2.041,3.765-1.248,6.014-1.503
			c0,0.499,0,1.001,0,1.503C271.183,622.717,269.179,622.717,267.174,622.717z"/>
		<path fill-rule="evenodd" clip-rule="evenodd" fill="#556497" d="M241.615,622.717c4.511,0,9.021,0,13.531,0
			C254.005,625.201,242.757,625.201,241.615,622.717z"/>
		<path fill-rule="evenodd" clip-rule="evenodd" fill="#C0C6D8" d="M240.112,634.744c5.513,0,11.025,0,16.538,0
			C254.544,637.234,242.217,637.234,240.112,634.744z"/>
		<path fill-rule="evenodd" clip-rule="evenodd" fill="#8C96B8" d="M584.397,353.602c2.651,1.357,4.657,3.362,6.014,6.014
			C587.763,358.257,585.757,356.252,584.397,353.602z"/>
		<path fill-rule="evenodd" clip-rule="evenodd" fill="#C0C6D8" d="M647.542,290.457c3.145,1.867,5.652,4.372,7.517,7.517
			C651.914,296.107,649.409,293.602,647.542,290.457z"/>
		<path fill-rule="evenodd" clip-rule="evenodd" fill="#556497" d="M751.278,263.396c-3.145-1.867-5.649-4.373-7.517-7.518
			C746.906,257.745,749.414,260.25,751.278,263.396z"/>
		<path fill-rule="evenodd" clip-rule="evenodd" fill="#8C96B8" d="M731.734,385.173c2.951,2.851,14.949,1.994,18.041,0
			c-1.14,4.931-16.224,3.746-19.545,1.504C730.315,385.76,730.457,384.897,731.734,385.173z"/>
		<path fill-rule="evenodd" clip-rule="evenodd" fill="#556497" d="M137.878,512.966c8.748-0.774,20.734,1.688,27.062-1.503
			C161.724,516.798,143.407,514.942,137.878,512.966z"/>
		<path fill-rule="evenodd" clip-rule="evenodd" fill="#233778" d="M204.03,404.718c2.16,7.362,4.222,14.821,6.014,22.552
			c7.83-6.202,11.58-16.483,19.544-22.552c7.517,0,15.035,0,22.552,0c-1.041,8.983-4.974,15.072-6.014,24.056
			c-17.812,0.229-19.011,17.069-28.565,25.559c1.748,11.784,5.769,21.292,7.517,33.076c-0.253,3.259,5.333,0.681,7.517,1.503
			c-0.98,9.041-4.48,15.566-6.014,24.055c-12.027,0-24.055,0-36.083,0c-0.501,0-1.002,0-1.503,0
			c0.798-9.819-5.182-12.861-4.51-22.551c-9.257,4.272-13.023,14.038-19.544,21.048c-6.328,3.191-18.314,0.729-27.062,1.503
			c1.48-8.542,3.504-16.543,6.014-24.055c21.291,1.747,21.721-17.368,33.076-25.559c-2.87-10.662-6.649-20.413-7.517-33.075
			c1.075-4.083-7.089,1.074-6.014-3.008c0.227-7.792,3.879-12.156,4.51-19.545c1.462-0.041,1.167-1.84,1.503-3.007
			C180.977,404.718,192.503,404.718,204.03,404.718z"/>
		<path fill-rule="evenodd" clip-rule="evenodd" fill="#E0E3EC" d="M76.238,421.256c1.867-3.145,4.372-5.65,7.517-7.518
			C81.888,416.884,79.382,419.389,76.238,421.256z"/>
		<path fill-rule="evenodd" clip-rule="evenodd" fill="#8C96B8" d="M294.236,328.043c4.333-0.679,4.703-5.321,10.524-4.511
			c-2.431,3.082-7.234,3.791-10.524,6.014C294.236,329.045,294.236,328.544,294.236,328.043z"/>
		<path fill-rule="evenodd" clip-rule="evenodd" fill="#556497" d="M294.236,328.043c0,0.501,0,1.002,0,1.503
			c-0.34,2.166-4.488,0.524-4.51,3.007C285.66,331.202,292.896,328.924,294.236,328.043z"/>
		<path fill-rule="evenodd" clip-rule="evenodd" fill="#233778" d="M564.853,364.125c39.248,9.662-11.047,53.223-30.067,27.063
			c0-1.003,0-2.005,0-3.007c0-3.008,0-6.015,0-9.021c3.978-8.049,9.645-14.41,21.048-15.034
			C558.84,364.125,561.846,364.125,564.853,364.125z"/>
		<path fill-rule="evenodd" clip-rule="evenodd" fill="#556497" d="M778.341,397.201c-0.276-1.279,0.587-1.419,1.503-1.504
			c-0.275,1.279,0.588,1.418,1.504,1.504c0.243,1.762,2.742,1.268,4.51,1.503c0.288,1.218,1.51,1.499,1.504,3.007
			c0.246,1.748-0.332,2.675-1.504,3.007c-1.471-2.036-5.068-1.948-6.014-4.51c0-0.502,0-1.002,0-1.504
			C780.12,397.426,779.26,397.286,778.341,397.201z"/>
		<path fill-rule="evenodd" clip-rule="evenodd" fill="#8C96B8" d="M787.361,401.711c0.006-1.508-1.216-1.789-1.504-3.007
			c0.502,0,1.005,0,1.504,0c2.422-0.644,5.045,5.604,1.503,6.014C789.111,402.97,788.532,402.043,787.361,401.711z"/>
		<path fill-rule="evenodd" clip-rule="evenodd" fill="#233778" d="M778.341,407.725c-1.242-4.249,2.12-3.895,1.503-7.517
			c0.945,2.562,4.543,2.474,6.014,4.51c-2.78-1.418-0.922,8.604-3.007,3.007c1.858-4.179-4.862-4.179-3.007,0
			c0.276,1.279-0.584,1.419-1.503,1.504C778.341,408.727,778.341,408.227,778.341,407.725z"/>
		<path fill-rule="evenodd" clip-rule="evenodd" fill="#556497" d="M369.407,421.256c1.358-2.651,3.363-4.656,6.014-6.014
			C374.063,417.893,372.058,419.897,369.407,421.256z"/>
		<path fill-rule="evenodd" clip-rule="evenodd" fill="#556497" d="M352.87,502.442c3.145,1.864,5.65,4.372,7.517,7.517
			C357.242,508.092,354.736,505.587,352.87,502.442z"/>
		<path fill-rule="evenodd" clip-rule="evenodd" fill="#8C96B8" d="M426.538,502.442c1.357-2.651,3.362-4.657,6.014-6.014
			C431.193,499.077,429.188,501.083,426.538,502.442z"/>
		<path fill-rule="evenodd" clip-rule="evenodd" fill="#556497" d="M441.572,409.229c2.65,1.357,4.655,3.362,6.014,6.014
			C444.935,413.884,442.93,411.879,441.572,409.229z"/>
		<path fill-rule="evenodd" clip-rule="evenodd" fill="#E0E3EC" d="M691.142,418.249c1.867-3.146,4.372-5.65,7.517-7.518
			C696.794,413.877,694.286,416.382,691.142,418.249z"/>
		<path fill-rule="evenodd" clip-rule="evenodd" fill="#8C96B8" d="M730.23,508.456c1.359-2.651,3.365-4.657,6.014-6.014
			C734.888,505.091,732.882,507.097,730.23,508.456z"/>
		<path fill-rule="evenodd" clip-rule="evenodd" fill="#233778" d="M734.741,403.215c11.005-1.371,14.355,11.017,21.048,1.503
			c3.594,0.916,10.908-1.887,12.027,1.504c-2.748,13.787-7.488,25.589-10.524,39.09c-6.818-1.7-20.628,3.589-22.551-3.007
			c0-1.503,0-3.007,0-4.51c2.466,0.246,2.466-9.269,0-9.021c-10.804-11.164-16.491,13.105-21.049,28.565
			c-3.97,13.476-12.629,31.278-3.007,36.083c9.714,0.692,11.152-6.892,13.531-13.531c7.518,0,15.034,0,22.552,0
			c-1.046,9.98-6.742,15.308-10.524,22.552c-2.648,1.356-4.654,3.362-6.014,6.014c-6.264,2.754-10.471,7.567-19.545,7.517
			c-6.014,0-12.027,0-18.041,0c-13.563-2.472-22.205-9.869-24.055-24.055c0-5.013,0-10.024,0-15.034
			c0.907-26.154,12.068-42.055,22.552-58.635c3.145-1.867,5.652-4.372,7.517-7.518c5.85-3.173,11.179-6.863,19.545-7.517
			C723.718,403.215,729.229,403.215,734.741,403.215z"/>
		<path fill-rule="evenodd" clip-rule="evenodd" fill="#8C96B8" d="M167.947,407.725c3.414-8.632,27.911-4.137,36.083-3.007
			c-11.526,0-23.053,0-34.579,0C169.114,405.885,169.41,407.684,167.947,407.725z"/>
		<path fill-rule="evenodd" clip-rule="evenodd" fill="#8C96B8" d="M339.339,406.222c2.651,1.357,4.655,3.362,6.014,6.014
			C342.702,410.877,340.697,408.872,339.339,406.222z"/>
		<path fill-rule="evenodd" clip-rule="evenodd" fill="#556497" d="M608.452,512.966c14.626-0.91,32.952,1.88,45.104-1.503
			C644.726,517.177,619.711,514.681,608.452,512.966z"/>
		<path fill-rule="evenodd" clip-rule="evenodd" fill="#C0C6D8" d="M755.789,404.718c1.187-3.489,17.274-1.439,12.027,1.504
			C766.697,402.831,759.383,405.634,755.789,404.718z"/>
		<path fill-rule="evenodd" clip-rule="evenodd" fill="#C0C6D8" d="M785.857,404.718c1.172-0.332,1.75-1.259,1.504-3.007
			c1.171,0.332,1.75,1.259,1.503,3.007c-1.28,4.23-4.272,6.754-10.523,6.014c0-0.501,0-1.002,0-1.503
			c0.919-0.085,1.779-0.225,1.503-1.504c1.004,0,2.006,0,3.007,0C784.936,413.322,783.077,403.3,785.857,404.718z"/>
		<path fill-rule="evenodd" clip-rule="evenodd" fill="#E0E3EC" d="M331.822,523.49c1.017-1.662,4.996-7.799,6.014-4.51
			C334.77,519.42,334.887,523.047,331.822,523.49z"/>
		<path fill-rule="evenodd" clip-rule="evenodd" fill="#C0C6D8" d="M294.236,532.511c2.506-6.014,15.332-1.706,22.551-3.007
			C312.465,533.7,298.656,528.412,294.236,532.511z"/>
		<path fill-rule="evenodd" clip-rule="evenodd" fill="#556497" d="M115.327,591.145c4.141,2.875,7.648,6.384,10.524,10.524
			C121.71,598.794,118.202,595.285,115.327,591.145z"/>
		<path fill-rule="evenodd" clip-rule="evenodd" fill="#556497" d="M337.835,518.98c2.651,1.356,4.655,3.361,6.014,6.014
			C341.198,523.634,339.193,521.629,337.835,518.98z"/>
		<path fill-rule="evenodd" clip-rule="evenodd" fill="#233778" d="M331.822,523.49c3.065-0.443,2.948-4.07,6.014-4.51
			c1.358,2.648,3.363,4.653,6.014,6.014c6.743,4.783,15.335,7.717,25.558,9.021c5.556,2.499,21.506,2.499,27.062,0
			c17.602,0.596,25.05-13.91,39.089-4.511c19.051,4.502,48.603-1.497,67.654,3.007c-64.304,34.421-131.74,65.711-217.998,78.179
			c-2.38,0.123-5.734-0.723-6.014,1.504c-1.503,0-3.007,0-4.51,0c-2.38,0.123-5.735-0.723-6.014,1.503c-2.505,0-5.012,0-7.517,0
			c-2.185,0.822-7.771-1.759-7.517,1.504c-2.005,0-4.009,0-6.014,0c-2.005,0-4.009,0-6.014,0c-3.508,0-7.016,0-10.524,0
			c-4.009,0-8.019,0-12.027,0c-3.508,0-7.016,0-10.524,0c-2.005,0-4.009,0-6.014,0c-1.504,0-3.007,0-4.511,0
			c0.253-3.263-5.333-0.682-7.517-1.504c-6.689,1.175-9.022-2.003-15.034-1.503c-0.465-2.041-3.765-1.248-6.014-1.504
			c-0.465-2.041-3.765-1.248-6.014-1.504c0.989,2.018,3.214,2.799,6.014,3.008c2.428-0.426,2.588,1.421,4.51,1.503
			c10.565,1.462,17.529,6.524,30.069,6.014c0.465,2.041,3.764,1.248,6.014,1.504c3.508,0,7.016,0,10.524,0
			c0.647,3.362,7.409,0.607,10.524,1.503c3.508,0,7.016,0,10.524,0c1.142,2.484,12.39,2.484,13.531,0c4.009,0,8.019,0,12.027,0
			c2.005,0,4.009,0,6.014,0c3.115-0.896,9.876,1.859,10.524-1.503c2.506,0,5.012,0,7.518,0c2.185-0.822,7.77,1.756,7.517-1.504
			c104.208-13.561,187.421-48.118,264.604-88.702c7.517,0,15.034,0,22.551,0c-74.532,43.232-156.166,79.37-257.086,96.22
			c-2.38,0.123-5.734-0.723-6.014,1.503c-5.09,0.423-8.634,2.391-15.034,1.504c-2.381,0.123-5.735-0.723-6.014,1.503
			c-2.005,0-4.009,0-6.014,0c-2.185,0.822-7.771-1.759-7.517,1.504c-3.007,0-6.014,0-9.021,0
			c-3.595,0.916-10.908-1.889-12.027,1.503c-3.508,0-7.016,0-10.524,0c-5.513,0-11.025,0-16.538,0c-3.508,0-7.016,0-10.524,0
			c-0.647-3.362-7.409-0.61-10.524-1.503c-2.505,0-5.012,0-7.517,0c-0.465-2.041-3.765-1.248-6.014-1.504
			c-33.55-3.033-59.115-14.054-79.682-30.068c-2.875-4.141-6.383-7.649-10.524-10.524c-7.649-10.392-15.585-20.499-16.538-37.586
			c-0.125-2.381,0.723-5.734-1.503-6.014c0-2.005,0-4.011,0-6.014c0-3.007,0-6.014,0-9.021c0-0.502,0-1.004,0-1.503
			c5.556-0.961,14.977,1.946,18.042-1.504c8.484-2.807,11.072-5.655,18.041,0c7.547,2.502,25.528,2.502,33.076,0
			c8.523-2.769,10.895-5.832,18.041,0c4.053,3.465,14.5,0.534,21.048,1.504c0.501,0,1.002,0,1.503,0
			c-4.908,11.059-8.693,33.375,7.517,34.578c17.049,2.505,44.592,2.505,61.641,0c14.766-2.272,13.72-20.357,18.042-33.075
			c4.42-4.099,18.229,1.189,22.551-3.007C323.179,528.879,328.717,527.401,331.822,523.49z"/>
		<path fill-rule="evenodd" clip-rule="evenodd" fill="#8C96B8" d="M169.451,612.193c-2.8-0.209-5.025-0.99-6.014-3.008
			c2.249,0.256,5.548-0.537,6.014,1.504C169.451,611.188,169.451,611.69,169.451,612.193z"/>
		<path fill-rule="evenodd" clip-rule="evenodd" fill="#E0E3EC" d="M169.451,610.689c2.249,0.256,5.548-0.537,6.014,1.504
			c-1.279-0.276-1.418,0.584-1.503,1.503c-1.922-0.082-2.082-1.929-4.51-1.503C169.451,611.69,169.451,611.188,169.451,610.689z"/>
		<path fill-rule="evenodd" clip-rule="evenodd" fill="#8C96B8" d="M652.052,213.782c3.007,0,6.014,0,9.021,0
			c0,0.501,0,1.002,0,1.503C658.43,214.421,652.24,217.103,652.052,213.782z"/>
		<path fill-rule="evenodd" clip-rule="evenodd" fill="#556497" d="M578.384,216.789c0.278-2.227,3.632-1.379,6.014-1.504
			C583.934,217.326,580.633,216.532,578.384,216.789z"/>
		<path fill-rule="evenodd" clip-rule="evenodd" fill="#556497" d="M566.356,218.292c0.278-2.227,3.632-1.379,6.014-1.503
			C571.906,218.829,568.605,218.036,566.356,218.292z"/>
		<path fill-rule="evenodd" clip-rule="evenodd" fill="#556497" d="M656.563,225.81c2.185,0.822,7.772-1.757,7.517,1.503
			C661.895,226.49,656.31,229.069,656.563,225.81z"/>
		<path fill-rule="evenodd" clip-rule="evenodd" fill="#233778" d="M661.072,215.285c60.429,6.225,107.91,25.396,117.269,82.688
			c0,4.511,0,9.021,0,13.531c-2.097,31.98-16.547,51.608-28.565,73.668c-3.092,1.994-15.09,2.851-18.041,0
			c18.695-27.647,54.54-84.984,19.544-121.777c-1.864-3.146-4.372-5.65-7.517-7.518c-20.186-15.896-47.547-24.617-79.683-28.565
			c0.256-3.26-5.332-0.681-7.517-1.503c-4.009,0-8.017,0-12.027,0c-7.547-2.501-25.526-2.501-33.076,0c-4.008,0-8.017,0-12.027,0
			c-2.643,0.864-8.833-1.817-9.021,1.503c-2.505,0-5.01,0-7.518,0c-2.185,0.822-7.77-1.757-7.517,1.504
			c-106.894,14.883-193.867,49.688-270.617,94.716c55.427-24.254,110.895-48.469,181.915-57.13c2.381-0.125,5.735,0.723,6.014-1.504
			c1.504,0,3.007,0,4.511,0c2.185-0.822,7.771,1.757,7.517-1.503c2.506,0,5.012,0,7.518,0c3.114-0.895,9.876,1.857,10.523-1.504
			c2.506,0,5.012,0,7.518,0c8.019,0,16.036,0,24.055,0c2.506,0,5.012,0,7.517,0c0.188,3.32,6.378,0.639,9.021,1.504
			c32.521,2.06,57.283,11.874,76.676,27.062c1.867,3.145,4.372,5.65,7.517,7.517c9.323,12.729,16.943,27.158,15.034,51.117
			c-2.04,0.466-1.248,3.765-1.503,6.014c-1.075,12.956-4.352,23.713-10.524,31.572c-3.594,0.915-10.908-1.888-12.027,1.504
			c-8.445,2.35-11.898,6.063-18.041,0c-7.048-4.478-24.522,1.47-31.572-3.008c0.649-11.171-1.083-19.964-6.014-25.558
			c-1.356-2.651-3.362-4.656-6.014-6.014c-4.032-3.486-9.638-5.397-16.538-6.014c-1.621-2.489-13.412-2.489-15.033,0
			c-1.504,0-3.007,0-4.511,0c-1.633-0.372-1.02-2.989-3.007-3.007c-0.424-8.097-5.067-11.972-12.027-13.531c0-0.502,0-1.002,0-1.504
			c-17.546,0.997-39.082-1.997-54.123,1.504c-1.504,0-3.007,0-4.511,0c-12.957,14.605-13.722,41.403-21.048,61.641
			c-7.715-5.314-16.03-10.03-30.068-9.021c-1.142-2.485-12.39-2.485-13.531,0c-20.629,0.921-33.748,9.351-46.606,18.041
			c-4.101-20.544-41.088-19.64-55.627-9.021c1.036-4.043-3.108-2.905-4.51-4.51c-22.057-2.505-54.619-2.505-76.675,0
			c-9.605,2.613-9.451,4.883-18.041,0c-2.085-3.429-10.465-0.562-15.035-1.504c98.143-82.268,216.583-144.243,372.851-168.385
			c2.249-0.256,5.55,0.537,6.014-1.503c2.005,0,4.011,0,6.014,0c2.249-0.257,5.55,0.537,6.014-1.504c3.007,0,6.014,0,9.021,0
			c3.115-0.895,9.878,1.858,10.524-1.503c16.038,0,32.074,0,48.109,0C652.24,217.103,658.43,214.421,661.072,215.285z
			 M294.236,329.546c3.29-2.223,8.093-2.932,10.524-6.014c-5.821-0.811-6.191,3.832-10.524,4.511
			c-1.339,0.881-8.576,3.159-4.51,4.51C289.748,330.07,293.896,331.712,294.236,329.546z"/>
		<path fill-rule="evenodd" clip-rule="evenodd" fill="#8C96B8" d="M575.377,228.816c-0.253-3.261,5.332-0.682,7.517-1.504
			C583.149,230.573,577.562,227.994,575.377,228.816z"/>
		<path fill-rule="evenodd" clip-rule="evenodd" fill="#556497" d="M561.846,261.892c2.643,0.865,8.833-1.816,9.021,1.504
			C568.224,262.53,562.034,265.212,561.846,261.892z"/>
		<path fill-rule="evenodd" clip-rule="evenodd" fill="#8C96B8" d="M497.199,264.898c-0.253-3.26,5.332-0.681,7.517-1.503
			C504.97,266.655,499.384,264.076,497.199,264.898z"/>
		<path fill-rule="evenodd" clip-rule="evenodd" fill="#556497" d="M486.675,266.402c0.28-2.227,3.633-1.379,6.014-1.504
			C492.41,267.125,489.056,266.277,486.675,266.402z"/>
		<path fill-rule="evenodd" clip-rule="evenodd" fill="#8C96B8" d="M527.268,350.595c-0.118-0.139,0.147-1.455,0-1.504
			c-10.288-3.356-30.103-0.608-43.6-1.503c5.046-3.475,16.513-0.526,24.055-1.504C513.692,347.177,532.964,342.833,527.268,350.595z
			"/>
		<path fill-rule="evenodd" clip-rule="evenodd" fill="#556497" d="M545.309,344.581c1.987,0.018,1.374,2.635,3.007,3.007
			c-0.332,1.171-1.259,1.747-3.007,1.503C545.309,347.588,545.309,346.084,545.309,344.581z"/>
		<path fill-rule="evenodd" clip-rule="evenodd" fill="#556497" d="M670.093,349.091c-0.255,2.249,0.538,5.549-1.503,6.014
			C668.845,352.855,668.053,349.557,670.093,349.091z"/>
		<path fill-rule="evenodd" clip-rule="evenodd" fill="#8C96B8" d="M193.505,386.677c4.57,0.942,12.95-1.925,15.035,1.504
			c-5.513,0-11.025,0-16.538,0C192.087,387.264,192.227,386.4,193.505,386.677z"/>
		<path fill-rule="evenodd" clip-rule="evenodd" fill="#8C96B8" d="M596.425,385.173c7.05,4.478,24.524-1.47,31.572,3.008
			c-11.023,0-22.05,0-33.075,0C595.259,387.014,594.963,385.215,596.425,385.173z"/>
		<path fill-rule="evenodd" clip-rule="evenodd" fill="#E0E3EC" d="M781.348,397.201c2.249,0.256,5.55-0.538,6.014,1.503
			c-0.499,0-1.002,0-1.504,0C784.09,398.469,781.591,398.963,781.348,397.201z"/>
		<path fill-rule="evenodd" clip-rule="evenodd" fill="#233778" d="M626.493,407.725c0,1.002,0,2.005,0,3.007
			c6.957-5.559,37.154-13.668,45.104,1.504c0.234,30.804-11.704,49.432-16.538,75.173c-4.83,1.697,1.448,4.29,4.511,3.007
			c-1.404,7.616-4.214,13.827-6.014,21.048c-12.151,3.383-30.478,0.593-45.104,1.503c5.679-26.894,15.947-49.202,19.545-78.178
			c-13.34-2.435-12.409,14.74-15.034,24.055c-3.11,11.035-6.992,20.366-9.021,30.068c0.34,2.164,4.486,0.522,4.51,3.007
			c-1.621,7.4-3.996,14.045-6.014,21.048c-15.187-2.208-36.563,2.98-49.612,0c-0.218-0.05,0.166-2.733,0-3.007
			c1.26-7.259,3.113-13.927,6.014-19.544c2.381-0.127,5.734,0.722,6.013-1.504c3.888-19.668,10.738-36.37,15.034-55.627
			c4.531-1.814-0.226-6.573-4.51-4.511c2.842-7.682,2.83-18.218,7.517-24.056c12.11,1.263,29.97-1.689,40.593,0
			C625.895,405.102,626.438,405.173,626.493,407.725z"/>
		<path fill-rule="evenodd" clip-rule="evenodd" fill="#233778" d="M121.341,403.215c16.893,1.649,29.103,7.982,30.068,25.559
			c0,6.015,0,12.028,0,18.042c-0.086,7.432-1.484,13.548-4.51,18.041c-16.043,0.995-36.074-1.997-49.613,1.503
			c1.09,4.599-2.594,4.423-1.503,9.021c-2.489,1.62-2.489,13.413,0,15.034c17.335,16.173,17.329-18.224,40.593-10.524
			c2.005,0,4.009,0,6.014,0c-3.043,24.519-20.175,34.949-45.103,37.586c-2.505,0-5.012,0-7.517,0
			c-18.322,0.282-26.373-9.711-33.076-21.048c0-7.019,0-14.033,0-21.048c2.04-0.468,1.248-3.765,1.503-6.015
			c2.523-19.526,9.833-34.268,18.042-48.11c3.145-1.867,5.65-4.372,7.517-7.518c9.462-3.566,15.386-10.674,28.565-10.523
			C115.327,403.215,118.334,403.215,121.341,403.215z M119.837,430.277c0.005-1.51-1.218-1.79-1.503-3.008
			c-12.838-1.312-13.851,9.2-15.035,19.546c-4.226,1.92,12.939,2.895,13.531,0c2.087-1.924,0.919-7.101,3.007-9.021
			C122.293,438.47,122.293,429.599,119.837,430.277z"/>
		<path fill-rule="evenodd" clip-rule="evenodd" fill="#233778" d="M423.531,403.215c9.185-1.167,13.136,2.9,18.041,6.014
			c1.357,2.65,3.362,4.655,6.014,6.014c2.052,5.967,6.986,9.05,6.014,18.042c0,2.003,0,4.008,0,6.014
			c-1.483,24.575-9.934,42.185-21.048,57.131c-2.651,1.356-4.656,3.362-6.014,6.014c-9.077,4.953-15.46,12.603-28.565,13.53
			c-6.014,0-12.027,0-18.041,0c-9.163,0.644-13.59-3.45-19.545-6.014c-1.867-3.145-4.372-5.652-7.517-7.517
			c-1.28-4.234-4.857-6.17-4.51-12.027c-0.822-2.185,1.757-7.772-1.503-7.518c0-1.004,0-2.006,0-3.007
			c2.041-0.467,1.247-3.765,1.503-6.014c1.751-22.807,11.624-37.489,21.048-52.621c2.651-1.358,4.656-3.363,6.014-6.014
			c8.029-5.502,15.273-11.788,28.565-12.027C410.501,403.215,417.016,403.215,423.531,403.215z M387.449,487.408
			c-0.005,1.506,1.218,1.788,1.503,3.007c14.408,2.031,15.129-16.794,18.041-27.063c3.366-11.868,11.112-26.653,4.51-36.083
			c-19.144,5.915-15.621,34.495-24.055,51.118C384.981,478.141,384.981,487.654,387.449,487.408z"/>
		<path fill-rule="evenodd" clip-rule="evenodd" fill="#556497" d="M776.837,403.215c0.235,1.769-0.259,4.267,1.504,4.51
			c0,0.502,0,1.002,0,1.504c0,0.501,0,1.002,0,1.503c-3.286-0.221-3.228-3.788-3.007-7.517
			C775.836,403.215,776.338,403.215,776.837,403.215z"/>
		<path fill-rule="evenodd" clip-rule="evenodd" fill="#C0C6D8" d="M626.493,407.725c-0.056-2.552-0.599-2.623-3.007-3.007
			c-10.623-1.689-28.482,1.263-40.593,0c5.048-3.474,16.515-0.526,24.056-1.503C612.919,404.308,632.19,399.963,626.493,407.725z"/>
		<path fill-rule="evenodd" clip-rule="evenodd" fill="#556497" d="M779.844,407.725c-1.855-4.179,4.865-4.179,3.007,0
			C781.85,407.725,780.848,407.725,779.844,407.725z"/>
		<path fill-rule="evenodd" clip-rule="evenodd" fill="#233778" d="M791.871,404.718c-1.63,6.89-6.78,10.259-16.537,9.021
			c-1.292-1.213-0.893-4.118-3.007-4.51c-1.154-7.17,2.122-9.904,6.014-12.027c0.919,0.085,1.779,0.225,1.503,1.503
			c-1.403,1.102-2.275,2.734-3.007,4.511c-0.499,0-1.001,0-1.503,0c-0.221,3.729-0.279,7.296,3.007,7.517
			c6.251,0.74,9.243-1.783,10.523-6.014c3.542-0.409,0.919-6.657-1.503-6.014c-0.464-2.041-3.765-1.247-6.014-1.503
			c-0.916-0.086-1.779-0.225-1.504-1.504c2.934-3.8,11.358-0.433,12.027,3.007C791.871,400.709,791.871,402.713,791.871,404.718z"/>
		<path fill-rule="evenodd" clip-rule="evenodd" fill="#233778" d="M345.353,412.235c0.865,3.144,3.727,4.291,3.007,9.021
			c0.865,2.643-1.817,8.834,1.503,9.021c0,0.499,0,1.001,0,1.504c-3.361,0.646-0.609,7.408-1.503,10.523
			c-5.32,32.768-12.593,63.582-42.096,72.165c-3.007,0-6.014,0-9.021,0c-9.936-0.088-14.192-5.855-21.048-9.021
			c-3.303,4.716-2.821,13.214-6.014,18.041c0.187,3.321,6.378,0.638,9.021,1.504c-1.861,8.662-3.156,17.891-7.517,24.055
			c-15.688-2.281-37.629,3.08-51.117,0c-0.217-0.05,0.167-2.734,0-3.007c-0.092-8.612,4.284-12.756,4.51-21.048
			c2.005,0,4.009,0,6.014,0c9.217-31.376,16.865-64.322,27.062-94.717c-0.465-2.042-3.765-1.248-6.014-1.504
			c0.795-9.229,4.516-15.53,6.014-24.056c14.533,0,29.066,0,43.6,0c0,2.506,0,5.012,0,7.518c8.045-6.572,24.979-13.124,37.586-6.014
			C340.697,408.872,342.702,410.877,345.353,412.235z M306.263,434.788c0.005-1.51-1.218-1.792-1.503-3.007
			c-12.187-1.848-12.573,13.287-15.034,22.551c-2.515,9.464-9.249,23.13-3.007,30.069c17.463-2.584,15.453-24.64,19.545-40.593
			C308.73,444.055,308.73,434.541,306.263,434.788z"/>
		<path fill-rule="evenodd" clip-rule="evenodd" fill="#233778" d="M569.363,404.718c-4.041,25.533-14.973,57.19-22.551,84.193
			c0.34,2.164,4.486,0.522,4.51,3.007c-1.771,7.25-3.682,14.359-6.014,21.048c-15.187-2.208-36.565,2.98-49.613,0
			c-0.217-0.05,0.167-2.733,0-3.007c1.66-6.859,2.53-14.509,6.014-19.544c2.381-0.127,5.735,0.722,6.014-1.504
			c4.204-19.351,10.05-37.058,15.034-55.627c4.53-1.814-0.228-6.573-4.51-4.511c1.861-8.663,3.155-17.893,7.517-24.056
			C540.297,404.718,554.831,404.718,569.363,404.718z"/>
		<path fill-rule="evenodd" clip-rule="evenodd" fill="#8C96B8" d="M119.837,430.277c2.456-0.679,2.456,8.192,0,7.518
			C119.837,435.287,119.837,432.782,119.837,430.277z"/>
		<path fill-rule="evenodd" clip-rule="evenodd" fill="#8C96B8" d="M522.757,433.284c2.338-5.345-5.106-0.907-4.51-4.511
			C522.529,426.711,527.287,431.47,522.757,433.284z"/>
		<path fill-rule="evenodd" clip-rule="evenodd" fill="#8C96B8" d="M579.887,433.284c2.338-5.345-5.106-0.907-4.51-4.511
			C579.661,426.711,584.418,431.47,579.887,433.284z"/>
		<path fill-rule="evenodd" clip-rule="evenodd" fill="#556497" d="M349.863,431.781c-0.894,3.112,1.858,9.875-1.503,10.523
			C349.253,439.189,346.501,432.427,349.863,431.781z"/>
		<path fill-rule="evenodd" clip-rule="evenodd" fill="#556497" d="M58.196,469.366c-0.256,2.25,0.537,5.547-1.503,6.015
			c0-2.006,0-4.012,0-6.015C57.194,469.366,57.695,469.366,58.196,469.366z"/>
		<path fill-rule="evenodd" clip-rule="evenodd" fill="#556497" d="M348.359,473.877c-0.256,2.249,0.537,5.547-1.503,6.014
			C346.98,477.509,346.133,474.156,348.359,473.877z"/>
		<path fill-rule="evenodd" clip-rule="evenodd" fill="#8C96B8" d="M668.59,476.884c0,5.01,0,10.021,0,15.034
			C666.103,490.297,666.103,478.505,668.59,476.884z"/>
		<path fill-rule="evenodd" clip-rule="evenodd" fill="#556497" d="M346.856,482.897c3.26-0.255,0.681,5.333,1.503,7.518
			C345.099,490.667,347.678,485.082,346.856,482.897z"/>
		<path fill-rule="evenodd" clip-rule="evenodd" fill="#556497" d="M546.813,488.911c2.664,0.341,7.528-1.515,6.014,3.007
			c-0.502,0-1.002,0-1.504,0C551.299,489.434,547.152,491.075,546.813,488.911z"/>
		<path fill-rule="evenodd" clip-rule="evenodd" fill="#556497" d="M603.942,488.911c2.666,0.341,7.528-1.515,6.014,3.007
			c-0.499,0-1.002,0-1.504,0C608.429,489.434,604.282,491.075,603.942,488.911z"/>
		<path fill-rule="evenodd" clip-rule="evenodd" fill="#556497" d="M190.499,512.966c12.028,0,24.055,0,36.083,0
			C218.036,515.468,199.043,515.468,190.499,512.966z"/>
		<path fill-rule="evenodd" clip-rule="evenodd" fill="#C0C6D8" d="M97.286,531.008c3.065-3.45,12.486-0.547,18.042-1.504
			C112.262,532.954,102.841,530.047,97.286,531.008z"/>
		<path fill-rule="evenodd" clip-rule="evenodd" fill="#8C96B8" d="M271.684,549.049c-8.079-2.158-39.959,7.734-51.117,1.503
			c-1.605-0.896-2.205-4.066,0-4.51c0.167,0.272-0.217,2.957,0,3.007C234.055,552.129,255.996,546.768,271.684,549.049z"/>
		<path fill-rule="evenodd" clip-rule="evenodd" fill="#556497" d="M97.286,547.545c2.227,0.279,1.379,3.633,1.503,6.014
			C96.749,553.092,97.542,549.795,97.286,547.545z"/>
		<path fill-rule="evenodd" clip-rule="evenodd" fill="#556497" d="M279.201,612.193c0.279-2.227,3.633-1.381,6.014-1.504
			C284.75,612.73,281.451,611.938,279.201,612.193z"/>
		<path fill-rule="evenodd" clip-rule="evenodd" fill="#556497" d="M268.677,613.696c0.279-2.226,3.633-1.38,6.014-1.503
			C274.226,614.233,270.927,613.441,268.677,613.696z"/>
		<path fill-rule="evenodd" clip-rule="evenodd" fill="#8C96B8" d="M190.499,613.696c2.185,0.822,7.771-1.759,7.517,1.504
			C195.831,614.378,190.246,616.956,190.499,613.696z"/>
		<path fill-rule="evenodd" clip-rule="evenodd" fill="#8C96B8" d="M253.643,615.2c-0.253-3.263,5.333-0.682,7.517-1.504
			C261.414,616.956,255.828,614.378,253.643,615.2z"/>
		<path fill-rule="evenodd" clip-rule="evenodd" fill="#556497" d="M204.03,619.71c2.38,0.123,5.734-0.723,6.014,1.504
			C207.794,620.958,204.495,621.751,204.03,619.71z"/>
		<path fill-rule="evenodd" clip-rule="evenodd" fill="#556497" d="M291.229,621.214c-0.253-3.263,5.332-0.682,7.517-1.504
			C298.999,622.97,293.414,620.392,291.229,621.214z"/>
		<path fill-rule="evenodd" clip-rule="evenodd" fill="#8C96B8" d="M273.188,621.214c3.508,0,7.016,0,10.524,0
			c-0.647,3.362-7.409,0.607-10.524,1.503C273.188,622.215,273.188,621.713,273.188,621.214z"/>
		<path fill-rule="evenodd" clip-rule="evenodd" fill="#556497" d="M322.801,628.73c0.279-2.226,3.633-1.38,6.014-1.503
			C328.349,629.268,325.05,628.476,322.801,628.73z"/>
		<path fill-rule="evenodd" clip-rule="evenodd" fill="#556497" d="M301.753,631.737c0.279-2.226,3.633-1.38,6.014-1.503
			C307.301,632.275,304.002,631.482,301.753,631.737z"/>
		<path fill-rule="evenodd" clip-rule="evenodd" fill="#556497" d="M205.533,631.737c2.249,0.256,5.548-0.537,6.014,1.504
			C209.166,633.115,205.812,633.963,205.533,631.737z"/>
		<path fill-rule="evenodd" clip-rule="evenodd" fill="#556497" d="M288.222,633.241c-0.253-3.263,5.332-0.682,7.517-1.504
			C295.992,634.997,290.407,632.419,288.222,633.241z"/>
		<path fill-rule="evenodd" clip-rule="evenodd" fill="#556497" d="M267.174,634.744c1.12-3.392,8.433-0.587,12.027-1.503
			C278.082,636.63,270.769,633.828,267.174,634.744z"/>
		<path fill-rule="evenodd" clip-rule="evenodd" fill="#C0C6D8" d="M479.158,331.05c15.041-3.501,36.577-0.507,54.123-1.504
			c0,0.502,0,1.002,0,1.504C515.24,331.05,497.199,331.05,479.158,331.05z"/>
		<path fill-rule="evenodd" clip-rule="evenodd" fill="#C0C6D8" d="M552.826,347.588c1.621-2.489,13.412-2.489,15.033,0
			C562.85,347.588,557.838,347.588,552.826,347.588z"/>
		<path fill-rule="evenodd" clip-rule="evenodd" fill="#C0C6D8" d="M306.263,434.788c2.467-0.247,2.467,9.267,0,9.021
			C306.263,440.802,306.263,437.795,306.263,434.788z"/>
		<path fill-rule="evenodd" clip-rule="evenodd" fill="#C0C6D8" d="M103.299,446.815c4.51,0,9.021,0,13.531,0
			C116.239,449.71,99.073,448.735,103.299,446.815z"/>
		<path fill-rule="evenodd" clip-rule="evenodd" fill="#C0C6D8" d="M133.368,529.504c11.025,0,22.05,0,33.076,0
			C158.896,532.006,140.916,532.006,133.368,529.504z"/>
		<path fill-rule="evenodd" clip-rule="evenodd" fill="#C0C6D8" d="M184.485,529.504c6.547,0.969,16.995-1.961,21.048,1.504
			C198.985,530.038,188.538,532.969,184.485,529.504z"/>
		<path fill-rule="evenodd" clip-rule="evenodd" fill="#C0C6D8" d="M435.559,529.504c20.012,4.155,52.538-5.635,69.157,0
			c0.751,0.253-0.736,3.87-1.503,3.007C484.161,528.007,454.609,534.006,435.559,529.504z"/>
		<path fill-rule="evenodd" clip-rule="evenodd" fill="#C0C6D8" d="M214.554,565.586c20.546,0,41.094,0,61.641,0
			C259.146,568.091,231.603,568.091,214.554,565.586z"/>
		<path fill-rule="evenodd" clip-rule="evenodd" fill="#C0C6D8" d="M220.567,621.214c3.115,0.893,9.876-1.859,10.524,1.503
			C227.977,621.821,221.215,624.576,220.567,621.214z"/>
		<path fill-rule="evenodd" clip-rule="evenodd" fill="#556497" d="M593.418,213.782c3.509,0,7.018,0,10.524,0
			c-0.646,3.361-7.409,0.608-10.524,1.503C593.418,214.784,593.418,214.283,593.418,213.782z"/>
		<path fill-rule="evenodd" clip-rule="evenodd" fill="#8C96B8" d="M590.411,227.313c0.188-3.32,6.378-0.639,9.021-1.503
			C599.244,229.13,593.054,226.448,590.411,227.313z"/>
		<path fill-rule="evenodd" clip-rule="evenodd" fill="#556497" d="M512.233,263.396c0.647-3.362,7.409-0.609,10.523-1.504
			C522.109,265.253,515.348,262.501,512.233,263.396z"/>
		<path fill-rule="evenodd" clip-rule="evenodd" fill="#556497" d="M534.785,379.159c0,3.007,0,6.014,0,9.021
			C532.317,388.427,532.317,378.913,534.785,379.159z"/>
		<path fill-rule="evenodd" clip-rule="evenodd" fill="#8C96B8" d="M226.581,388.181c22.057-2.505,54.619-2.505,76.675,0
			C277.698,388.181,252.14,388.181,226.581,388.181z"/>
		<path fill-rule="evenodd" clip-rule="evenodd" fill="#8C96B8" d="M646.038,388.181c1.119-3.392,8.434-0.589,12.027-1.504
			C656.947,390.067,649.633,387.265,646.038,388.181z"/>
		<path fill-rule="evenodd" clip-rule="evenodd" fill="#556497" d="M403.986,403.215c3.083-2.495,16.461-2.495,19.545,0
			C417.016,403.215,410.501,403.215,403.986,403.215z"/>
		<path fill-rule="evenodd" clip-rule="evenodd" fill="#556497" d="M718.203,403.215c2.105-2.491,14.433-2.491,16.538,0
			C729.229,403.215,723.718,403.215,718.203,403.215z"/>
		<path fill-rule="evenodd" clip-rule="evenodd" fill="#556497" d="M348.359,421.256c3.32,0.188,0.639,6.378,1.503,9.021
			C346.542,430.09,349.224,423.898,348.359,421.256z"/>
		<path fill-rule="evenodd" clip-rule="evenodd" fill="#556497" d="M151.409,428.773c2.493,2.594,2.493,15.449,0,18.042
			C151.409,440.802,151.409,434.788,151.409,428.773z"/>
		<path fill-rule="evenodd" clip-rule="evenodd" fill="#8C96B8" d="M734.741,428.773c2.466-0.247,2.466,9.268,0,9.021
			C734.741,434.788,734.741,431.781,734.741,428.773z"/>
		<path fill-rule="evenodd" clip-rule="evenodd" fill="#556497" d="M734.741,442.305c1.923,6.596,15.732,1.307,22.551,3.007
			C753.736,447.285,728.915,449.713,734.741,442.305z"/>
		<path fill-rule="evenodd" clip-rule="evenodd" fill="#8C96B8" d="M95.782,475.381c0,5.009,0,10.021,0,15.034
			C93.293,488.794,93.293,477.001,95.782,475.381z"/>
		<path fill-rule="evenodd" clip-rule="evenodd" fill="#8C96B8" d="M387.449,478.388c0,3.007,0,6.014,0,9.021
			C384.981,487.654,384.981,478.141,387.449,478.388z"/>
		<path fill-rule="evenodd" clip-rule="evenodd" fill="#556497" d="M495.695,509.959c0.167,0.273-0.217,2.957,0,3.007
			c13.048,2.98,34.427-2.208,49.613,0c-6.041,3.48-18.521,0.521-27.062,1.504C511.579,513.081,490.543,518.167,495.695,509.959z"/>
		<path fill-rule="evenodd" clip-rule="evenodd" fill="#556497" d="M552.826,509.959c0.166,0.273-0.218,2.957,0,3.007
			c13.049,2.98,34.426-2.208,49.612,0c-6.04,3.48-18.52,0.521-27.062,1.504C568.708,513.081,547.673,518.167,552.826,509.959z"/>
		<path fill-rule="evenodd" clip-rule="evenodd" fill="#556497" d="M438.565,512.966c16.537,0,33.075,0,49.613,0
			C477.55,515.491,446.425,515.327,438.565,512.966z"/>
		<path fill-rule="evenodd" clip-rule="evenodd" fill="#556497" d="M692.645,515.973c6.014,0,12.027,0,18.041,0
			C708.093,518.466,695.237,518.466,692.645,515.973z"/>
		<path fill-rule="evenodd" clip-rule="evenodd" fill="#8C96B8" d="M369.407,534.015c9.021,0,18.042,0,27.062,0
			C390.914,536.514,374.963,536.514,369.407,534.015z"/>
		<path fill-rule="evenodd" clip-rule="evenodd" fill="#556497" d="M219.064,633.241c3.115,0.893,9.876-1.859,10.524,1.503
			C226.473,633.849,219.711,636.604,219.064,633.241z"/>
		<path fill-rule="evenodd" clip-rule="evenodd" fill="#233778" d="M483.668,347.588c13.497,0.895,33.312-1.854,43.6,1.503
			c0.147,0.049-0.118,1.365,0,1.504c-11.305,46.828-25.605,90.662-37.586,136.813c-4.83,1.697,1.448,4.29,4.511,3.007
			c-0.783,8.738-4.862,14.18-6.014,22.551c-16.538,0-33.076,0-49.613,0c0.656-8.864,3.165-15.88,6.014-22.551
			c2.381-0.127,5.733,0.722,6.014-1.504c8.427-33.169,17.284-65.907,27.062-97.724c1.075-4.083-7.089,1.075-6.014-3.007
			C475.736,374.736,478.147,359.606,483.668,347.588z"/>
	</g>
</g>
</svg>
