<?xml version="1.0" encoding="utf-8"?>
<!-- Generator: Adobe Illustrator 15.0.0, SVG Export Plug-In . SVG Version: 6.00 Build 0)  -->
<!DOCTYPE svg PUBLIC "-//W3C//DTD SVG 1.1//EN" "http://www.w3.org/Graphics/SVG/1.1/DTD/svg11.dtd">
<svg version="1.1" id="Layer_1" xmlns="http://www.w3.org/2000/svg" xmlns:xlink="http://www.w3.org/1999/xlink" x="0px" y="0px"
	 width="1133.86px" height="1133.86px" viewBox="0 0 1133.86 1133.86" enable-background="new 0 0 1133.86 1133.86"
	 xml:space="preserve">
<g>
	
		<image overflow="visible" opacity="0.75" width="3945" height="3945" xlink:href="870C8DBA.png"  transform="matrix(0.24 0 0 0.24 72.2974 114.8169)">
	</image>
	<g>
		<radialGradient id="SVGID_1_" cx="755.9492" cy="278.9014" r="701.9205" gradientUnits="userSpaceOnUse">
			<stop  offset="0" style="stop-color:#D7E5F7"/>
			<stop  offset="1" style="stop-color:#68A8DE"/>
		</radialGradient>
		<polygon fill="url(#SVGID_1_)" points="942.661,616.396 992.127,566.931 942.661,517.465 977.639,456.881 917.056,421.903 
			935.161,354.332 867.59,336.227 867.59,266.271 797.635,266.271 779.528,198.699 711.957,216.805 676.979,156.222 
			616.396,191.199 566.931,141.733 517.465,191.199 456.882,156.222 421.903,216.805 354.332,198.699 336.227,266.271 
			266.271,266.271 266.271,336.226 198.699,354.332 216.805,421.903 156.222,456.881 191.199,517.465 141.733,566.931 
			191.199,616.396 156.222,676.979 216.805,711.957 198.699,779.529 266.271,797.635 266.271,867.59 336.226,867.59 
			354.331,935.161 421.903,917.056 456.881,977.639 517.464,942.661 566.93,992.127 616.396,942.661 676.979,977.639 
			711.956,917.056 779.528,935.161 797.634,867.59 867.589,867.59 867.589,797.635 935.161,779.529 917.056,711.957 
			977.639,676.979 		"/>
		<polygon fill="none" stroke="#FFFFFF" stroke-width="8" stroke-miterlimit="10" points="942.661,616.396 992.127,566.931 
			942.661,517.465 977.639,456.881 917.056,421.903 935.161,354.332 867.59,336.227 867.59,266.271 797.635,266.271 
			779.528,198.699 711.957,216.805 676.979,156.222 616.396,191.199 566.931,141.733 517.465,191.199 456.882,156.222 
			421.903,216.805 354.332,198.699 336.227,266.271 266.271,266.271 266.271,336.226 198.699,354.332 216.805,421.903 
			156.222,456.881 191.199,517.465 141.733,566.931 191.199,616.396 156.222,676.979 216.805,711.957 198.699,779.529 
			266.271,797.635 266.271,867.59 336.226,867.59 354.331,935.161 421.903,917.056 456.881,977.639 517.464,942.661 566.93,992.127 
			616.396,942.661 676.979,977.639 711.956,917.056 779.528,935.161 797.634,867.59 867.589,867.59 867.589,797.635 
			935.161,779.529 917.056,711.957 977.639,676.979 		"/>
	</g>
</g>
<g>
	<g>
		<path fill="#FFFFFF" d="M375.616,696.43l-132.032,35.379v-29l157.304-233.634l20.339-5.45v181.718l29.296-7.851v38.767
			l-29.296,7.851v78.982l-45.611,12.221V696.43z M303.834,676.897l71.782-19.233v-86.64L303.834,676.897z"/>
		<path fill="#CFCFCF" d="M417.228,468.938v181.718l29.296-7.851v30.484l-29.296,7.851v78.982l-37.611,10.077v-78.982
			l-132.032,35.379v-22.566L403.37,472.65L417.228,468.938 M294.498,683.54l85.118-22.807V557.997L294.498,683.54 M425.228,458.512
			l-10.07,2.698l-13.857,3.713l-2.893,0.775l-1.673,2.484L240.948,699.562l-1.364,2.025v2.442v22.566v10.426l10.071-2.698
			l121.961-32.681v68.557v10.426l10.07-2.698l37.611-10.077l5.93-1.589v-6.139v-72.844l23.367-6.262l5.929-1.589v-6.139v-30.484
			v-10.426l-10.071,2.698l-19.225,5.152V468.938V458.512L425.228,458.512z M313.171,670.255l58.445-86.203v70.543L313.171,670.255
			L313.171,670.255z"/>
	</g>
	<g>
		<path fill="#FFFFFF" d="M534.499,733.315c-18.773,0-34.15-6.452-45.703-19.178c-16.75-18.444-24.893-58.155-24.893-121.401
			c0-42.188,8.691-79.419,25.831-110.659c17.36-31.637,42.167-51.967,73.734-60.426c9.802-2.626,19-3.958,27.339-3.958
			c18.731,0,33.915,6.647,45.128,19.756c16.03,18.746,23.823,55.147,23.823,111.286c0,47.396-8.206,87.496-24.389,119.188
			c-16.432,32.171-40.858,52.796-72.603,61.302C552.637,731.939,543.126,733.315,534.499,733.315z M576.493,461.57
			c-3.651,0-7.67,0.581-11.944,1.726c-35.205,9.433-53.056,50.612-53.056,122.395c0,69.126,12.597,104.176,37.442,104.177
			c2.796,0,5.821-0.431,8.99-1.279c18.619-4.989,31.948-16.809,40.746-36.134c8.955-19.675,13.496-51.868,13.496-95.685
			c0-30.261-1.753-52.212-5.21-65.241c-3.289-12.393-8.528-21.054-15.572-25.744C587.122,462.949,582.25,461.57,576.493,461.57z"/>
		<path fill="#CFCFCF" d="M590.807,421.694c17.593,0,31.621,6.119,42.088,18.356c15.242,17.823,22.863,54.051,22.863,108.686
			c0,46.982-7.986,86.104-23.951,117.368c-15.971,31.27-39.328,51.019-70.075,59.258c-9.836,2.636-18.916,3.954-27.233,3.954
			c-17.683,0-31.928-5.955-42.742-17.866c-15.905-17.514-23.854-57.082-23.854-118.713c0-41.7,8.444-77.945,25.338-108.734
			c16.892-30.784,40.646-50.282,71.263-58.486C574.012,422.968,582.781,421.694,590.807,421.694 M548.935,693.868
			c3.161,0,6.502-0.472,10.025-1.416c19.662-5.269,34.113-18.049,43.352-38.34c9.235-20.29,13.855-52.735,13.855-97.342
			c0-30.748-1.78-52.836-5.344-66.267c-3.563-13.428-9.304-22.776-17.222-28.048c-4.896-3.256-10.599-4.885-17.108-4.885
			c-4.02,0-8.346,0.621-12.979,1.862c-37.348,10.007-56.021,52.095-56.021,126.259C507.493,657.808,521.306,693.868,548.935,693.868
			 M590.809,413.694h-0.002c-8.688,0-18.235,1.377-28.374,4.094c-32.662,8.752-58.301,29.735-76.206,62.365
			c-17.467,31.836-26.324,69.714-26.324,112.583c0,64.286,8.482,104.877,25.932,124.091c12.342,13.595,28.715,20.488,48.664,20.488
			c8.978,0,18.836-1.422,29.303-4.227c32.885-8.813,58.162-30.125,75.13-63.347c16.474-32.261,24.826-72.973,24.826-121.007
			c0-57.132-8.106-94.384-24.783-113.885C626.967,420.812,610.762,413.694,590.809,413.694L590.809,413.694z M548.935,685.868
			c-27.64,0-33.442-54.477-33.442-100.177c0-35.784,4.48-64.027,13.317-83.944c8.381-18.889,20.41-30.203,36.773-34.587
			c3.938-1.055,7.607-1.59,10.909-1.59c4.943,0,9.091,1.16,12.678,3.546c6.205,4.131,10.889,12.018,13.92,23.438
			c3.368,12.695,5.076,34.3,5.076,64.215c0,43.242-4.42,74.877-13.137,94.028c-8.271,18.169-20.748,29.267-38.141,33.927
			C554.059,685.483,551.382,685.868,548.935,685.868L548.935,685.868z"/>
	</g>
	<g>
		<path fill="#FFFFFF" d="M800.813,582.499L668.78,617.877v-29l157.306-233.634l20.338-5.45v181.718l29.297-7.85v38.767
			l-29.297,7.85v78.982l-45.61,12.222V582.499z M729.032,562.966l71.781-19.234v-86.639L729.032,562.966z"/>
		<path fill="#CFCFCF" d="M842.424,355.006v181.718l29.297-7.85v30.484l-29.297,7.85v78.982l-37.61,10.078v-78.982L672.78,612.664
			v-22.566l155.787-231.379L842.424,355.006 M719.695,569.609l85.118-22.808V444.065L719.695,569.609 M850.424,344.58l-10.07,2.698
			l-13.856,3.713l-2.894,0.775l-1.672,2.484L666.145,585.63l-1.364,2.025v2.442v22.566v10.426l10.07-2.698l121.963-32.68v68.557
			v10.426l10.07-2.698l37.61-10.078l5.93-1.589v-6.139v-72.844l23.367-6.261l5.93-1.589v-6.139v-30.484v-10.426l-10.07,2.698
			l-19.227,5.151V355.006V344.58L850.424,344.58z M738.368,556.324l58.445-86.203v70.542L738.368,556.324L738.368,556.324z"/>
	</g>
</g>
</svg>
