<?xml version="1.0" encoding="utf-8"?>
<!-- Generator: Adobe Illustrator 15.0.0, SVG Export Plug-In . SVG Version: 6.00 Build 0)  -->
<!DOCTYPE svg PUBLIC "-//W3C//DTD SVG 1.1//EN" "http://www.w3.org/Graphics/SVG/1.1/DTD/svg11.dtd">
<svg version="1.1" id="Layer_1" xmlns="http://www.w3.org/2000/svg" xmlns:xlink="http://www.w3.org/1999/xlink" x="0px" y="0px"
	 width="1133.86px" height="1133.86px" viewBox="0 0 1133.86 1133.86" enable-background="new 0 0 1133.86 1133.86"
	 xml:space="preserve">
<g>
	<g>
		<radialGradient id="SVGID_1_" cx="796.8008" cy="251.0137" r="764.5758" gradientUnits="userSpaceOnUse">
			<stop  offset="0" style="stop-color:#D6E4F7"/>
			<stop  offset="1" style="stop-color:#68A8DE"/>
		</radialGradient>
		<circle fill="url(#SVGID_1_)" cx="566.93" cy="560.104" r="453.543"/>
		<circle fill="none" stroke="#000000" stroke-width="2" stroke-miterlimit="10" cx="566.93" cy="560.104" r="453.543"/>
	</g>
	<defs>
		<filter id="Adobe_OpacityMaskFilter" filterUnits="userSpaceOnUse" x="112.387" y="105.561" width="909.087" height="909.086">
			
				<feColorMatrix  type="matrix" values="-1 0 0 0 1  0 -1 0 0 1  0 0 -1 0 1  0 0 0 1 0" color-interpolation-filters="sRGB" result="source"/>
		</filter>
	</defs>
	<mask maskUnits="userSpaceOnUse" x="112.387" y="105.561" width="909.087" height="909.086" id="SVGID_2_">
		<g filter="url(#Adobe_OpacityMaskFilter)">
			
				<image overflow="visible" width="3805" height="3805" xlink:href="5E75A37.jpg"  transform="matrix(0.24 0 0 0.24 110.3867 103.561)">
			</image>
		</g>
	</mask>
	<g opacity="0.75" mask="url(#SVGID_2_)">
		<circle fill="#030405" cx="566.93" cy="560.104" r="453.543"/>
		<circle fill="none" stroke="#030405" stroke-width="2" stroke-miterlimit="10" cx="566.93" cy="560.104" r="453.543"/>
	</g>
</g>
<g>
	<path d="M616.669,746.109c-10.023-3.65-20.781-5.034-31.391-4.956c-10.637,0.075-21.183,1.653-31.439,4.12
		c-5.132,1.237-10.185,2.75-15.177,4.411c-4.979,1.702-9.886,3.59-14.721,5.632c-19.314,8.248-37.327,19.146-53.882,31.75
		c-16.525,12.651-31.68,27.007-44.762,43.016c16.001-13.066,32.25-25.494,49.289-36.62c17.012-11.129,34.743-21.047,53.273-28.948
		c4.625-1.986,9.307-3.827,14.041-5.498c4.721-1.71,9.507-3.213,14.326-4.563c9.64-2.688,19.473-4.63,29.391-5.444
		c9.907-0.803,19.932-0.437,29.642,1.809c4.852,1.118,9.605,2.735,14.164,4.889c2.279,1.075,4.504,2.298,6.647,3.672
		c2.174,1.337,4.231,2.866,6.26,4.472C635.838,755.768,626.658,749.726,616.669,746.109z"/>
	<path d="M810.63,340.99c-2.89,2.66-5.79,5.23-8.75,7.65c-5.91,4.87-11.99,9.26-18.29,13.14c-12.59,7.75-25.96,13.58-39.92,17.3
		c-5.229,1.4-10.54,2.5-15.91,3.31c-8.95,1.36-18.08,1.9-27.31,1.64c-7.4-0.21-14.86-0.98-22.4-2.23c-2.43-0.39-4.859-0.85-7.3-1.36
		c-1.36-0.27-2.73-0.57-4.11-0.88c-3.83-0.87-7.68-1.86-11.649-2.86c3.71,3.71,7.819,7.02,12.24,9.92
		c-7.58,14.84-12.24,35.02-12.24,57.25c0,45.55,19.55,82.47,43.67,82.47s43.67-36.92,43.67-82.47c0-15.69-2.32-30.36-6.35-42.85
		c4.34-0.61,8.64-1.49,12.859-2.62c16.46-4.42,31.9-12.75,44.29-24.19c12.36-11.41,21.9-25.76,26.14-41.53
		C816.34,335.53,813.51,338.32,810.63,340.99z"/>
	<path d="M478.87,443.87c0-22.24-4.67-42.43-12.25-57.27c4.42-2.9,8.54-6.2,12.25-9.9c-3.97,1-7.81,2-11.64,2.87
		c-1.38,0.31-2.75,0.61-4.11,0.89c-2.45,0.51-4.87,0.97-7.3,1.36c-7.55,1.26-15.01,2.03-22.4,2.24c-9.24,0.26-18.37-0.29-27.33-1.66
		c-5.37-0.8-10.67-1.91-15.9-3.32c-13.95-3.75-27.32-9.57-39.9-17.32c-6.3-3.88-12.38-8.28-18.29-13.13
		c-2.97-2.42-5.86-4.99-8.76-7.65c-2.88-2.66-5.72-5.45-8.65-8.3c4.22,15.78,13.76,30.15,26.12,41.55
		c12.39,11.44,27.84,19.77,44.31,24.17c4.23,1.13,8.53,2,12.86,2.61c-4.03,12.49-6.35,27.16-6.35,42.86
		c0,45.55,19.55,82.47,43.67,82.47C459.32,526.34,478.87,489.42,478.87,443.87z"/>
</g>
</svg>
