<?xml version="1.0" encoding="utf-8"?>
<!-- Generator: Adobe Illustrator 15.0.0, SVG Export Plug-In . SVG Version: 6.00 Build 0)  -->
<!DOCTYPE svg PUBLIC "-//W3C//DTD SVG 1.1//EN" "http://www.w3.org/Graphics/SVG/1.1/DTD/svg11.dtd">
<svg version="1.1" id="Layer_1" xmlns="http://www.w3.org/2000/svg" xmlns:xlink="http://www.w3.org/1999/xlink" x="0px" y="0px"
	 width="1133.859px" height="1133.86px" viewBox="0 0 1133.859 1133.86" enable-background="new 0 0 1133.859 1133.86"
	 xml:space="preserve">
<polygon opacity="0.65" fill="#222221" points="841.038,468.25 841.038,467.614 970.823,392.674 710.171,242.184 580.391,317.113 
	579.825,316.787 579.271,317.107 449.5,242.184 188.849,392.674 318.613,467.603 318.612,467.604 318.612,468.263 188.849,543.172 
	318.612,618.09 318.612,769.239 579.825,920.051 841.038,769.239 841.038,618.102 970.823,543.172 "/>
<g>
	<polygon fill="#3CB5E5" points="565.825,604.42 565.825,905.409 826.493,754.915 826.493,453.928 565.836,604.42 	"/>
	<polygon fill="#7BD1EF" points="305.168,453.928 565.825,604.42 565.836,604.42 826.493,453.928 565.825,303.434 	"/>
	<polygon fill="#0B90D1" points="305.168,453.928 305.168,754.915 565.825,905.409 565.825,604.42 	"/>
	<path fill="#FFFFFF" d="M565.825,302.787L304.612,453.604v301.635l261.214,150.813l261.213-150.813V453.604L565.825,302.787z
		 M826.493,754.915L565.825,905.409L305.168,754.915V453.928l260.657-150.494l260.668,150.494V754.915L826.493,754.915z"/>
	<g>
		<g>
			<defs>
				<polygon id="SVGID_1_" points="305.168,453.928 565.825,604.42 565.836,604.42 826.493,453.928 565.825,303.434 				"/>
			</defs>
			<clipPath id="SVGID_2_">
				<use xlink:href="#SVGID_1_"  overflow="visible"/>
			</clipPath>
			<polygon clip-path="url(#SVGID_2_)" fill="#3CB5E5" points="304.886,453.928 304.886,754.917 565.553,604.42 565.553,303.434 
				304.895,453.928 			"/>
		</g>
		<g>
			<defs>
				<polygon id="SVGID_3_" points="305.168,453.928 565.825,604.42 565.836,604.42 826.493,453.928 565.825,303.434 				"/>
			</defs>
			<clipPath id="SVGID_4_">
				<use xlink:href="#SVGID_3_"  overflow="visible"/>
			</clipPath>
			<polygon clip-path="url(#SVGID_4_)" fill="#0B90D1" points="566.111,303.434 566.111,604.42 826.766,754.917 826.766,453.928 			
				"/>
		</g>
	</g>
	<g>
		<polygon fill="#7BD1EF" points="956.823,529.172 696.16,679.665 696.15,679.667 565.825,604.424 565.829,604.418 826.48,453.928 
					"/>
		<polygon fill="#7BD1EF" points="565.831,303.431 305.18,453.921 305.176,453.928 174.849,378.674 435.5,228.184 		"/>
	</g>
	<g>
		<polygon fill="#7BD1EF" points="305.192,453.928 565.842,604.418 565.846,604.424 435.522,679.667 435.511,679.665 
			174.849,529.172 		"/>
		<polygon fill="#7BD1EF" points="696.171,228.184 956.823,378.674 826.495,453.928 826.491,453.921 565.84,303.431 		"/>
	</g>
</g>
<g opacity="0.65">
	<path fill="#222221" d="M439.227,654.229V482.938v-10.425l-10.068,2.698l-13.857,3.713l-2.893,0.775l-1.674,2.483L254.948,713.563
		l-1.363,2.023v2.443v22.564v10.428l10.07-2.699l121.962-32.68V784.2v10.426l10.069-2.699l37.611-10.076l5.93-1.59v-6.139v-72.844
		l23.367-6.262l5.929-1.59v-6.139v-30.484v-10.426l-10.071,2.699L439.227,654.229z M327.171,684.254l58.445-86.203v70.543
		L327.171,684.254z"/>
	<polygon fill="#222221" points="439.227,472.512 439.227,472.512 439.228,472.512 	"/>
	<path fill="#222221" d="M604.809,427.694h-0.002c-8.688,0-18.235,1.377-28.374,4.094c-32.662,8.752-58.301,29.735-76.206,62.365
		c-17.467,31.836-26.324,69.714-26.324,112.583c0,64.285,8.482,104.877,25.933,124.09c12.342,13.596,28.715,20.488,48.664,20.488
		c8.978,0,18.836-1.422,29.303-4.227c32.885-8.813,58.162-30.125,75.13-63.348c16.474-32.26,24.826-72.973,24.826-121.006
		c0-57.133-8.106-94.385-24.783-113.886C640.967,434.813,624.762,427.694,604.809,427.694z M562.935,699.868
		c-27.64,0-33.442-54.477-33.442-100.176c0-35.785,4.48-64.028,13.317-83.945c8.381-18.889,20.41-30.203,36.773-34.587
		c3.938-1.055,7.606-1.59,10.908-1.59c4.943,0,9.092,1.16,12.679,3.546c6.204,4.131,10.889,12.018,13.92,23.438
		c3.367,12.695,5.075,34.3,5.075,64.214c0,43.242-4.42,74.877-13.137,94.029c-8.271,18.168-20.748,29.268-38.141,33.926
		C568.059,699.483,565.382,699.868,562.935,699.868z"/>
	<path fill="#222221" d="M883.651,535.146l-19.227,5.15v-171.29V358.58l-10.07,2.698l-13.856,3.713l-2.894,0.774l-1.672,2.484
		L680.145,599.629l-1.364,2.025v2.441v22.566v10.426l10.07-2.697l121.963-32.68v68.557v10.426l10.07-2.697l37.609-10.078l5.931-1.59
		v-6.139v-72.844l23.366-6.262l5.931-1.588v-6.139v-30.485v-10.426L883.651,535.146z M810.813,484.121v70.542l-58.445,15.662
		L810.813,484.121z"/>
</g>
<g>
	<g>
		<path fill="#FFFFFF" d="M375.616,696.43l-132.032,35.379v-29l157.304-233.634l20.339-5.45v181.719l29.296-7.852v38.768
			l-29.296,7.85v78.982l-45.61,12.221V696.43z M303.834,676.897l71.782-19.232v-86.641L303.834,676.897z"/>
		<path fill="#CFCFCF" d="M417.228,468.938v181.719l29.296-7.852v30.484l-29.296,7.85v78.982l-37.61,10.078v-78.982l-132.032,35.379
			V704.03L403.37,472.65L417.228,468.938 M294.498,683.54l85.117-22.807V557.997L294.498,683.54 M425.228,458.512l-10.069,2.698
			l-13.857,3.713l-2.893,0.775l-1.674,2.483L240.948,699.563l-1.363,2.023v2.443v22.564v10.428l10.07-2.699l121.962-32.68V770.2
			v10.426l10.069-2.699l37.611-10.076l5.93-1.59v-6.139v-72.844l23.367-6.262l5.929-1.59v-6.139v-30.484v-10.426l-10.071,2.699
			l-19.225,5.152V468.938L425.228,458.512L425.228,458.512z M313.171,670.254l58.445-86.203v70.543L313.171,670.254L313.171,670.254
			z"/>
	</g>
	<g>
		<path fill="#FFFFFF" d="M534.499,733.315c-18.773,0-34.15-6.451-45.703-19.178c-16.75-18.443-24.894-58.154-24.894-121.4
			c0-42.189,8.691-79.419,25.831-110.66c17.36-31.637,42.167-51.967,73.734-60.426c9.802-2.626,19-3.958,27.339-3.958
			c18.73,0,33.915,6.646,45.128,19.756c16.03,18.746,23.823,55.146,23.823,111.286c0,47.396-8.206,87.496-24.39,119.187
			c-16.432,32.172-40.857,52.797-72.603,61.303C552.637,731.94,543.126,733.315,534.499,733.315z M576.492,461.57
			c-3.65,0-7.67,0.581-11.943,1.726c-35.205,9.434-53.057,50.612-53.057,122.396c0,69.125,12.598,104.176,37.442,104.176
			c2.796,0,5.821-0.43,8.99-1.279c18.619-4.988,31.947-16.809,40.746-36.133c8.954-19.676,13.495-51.869,13.495-95.685
			c0-30.262-1.753-52.213-5.21-65.241c-3.289-12.394-8.527-21.055-15.571-25.744C587.121,462.949,582.249,461.57,576.492,461.57z"/>
		<path fill="#CFCFCF" d="M590.807,421.694c17.593,0,31.621,6.118,42.088,18.355c15.242,17.823,22.863,54.051,22.863,108.687
			c0,46.981-7.986,86.104-23.951,117.368c-15.971,31.27-39.328,51.02-70.075,59.258c-9.836,2.637-18.916,3.955-27.232,3.955
			c-17.684,0-31.929-5.955-42.742-17.867c-15.905-17.514-23.854-57.082-23.854-118.713c0-41.7,8.444-77.945,25.338-108.734
			c16.893-30.784,40.646-50.282,71.264-58.486C574.012,422.968,582.781,421.694,590.807,421.694 M548.935,693.868
			c3.161,0,6.502-0.471,10.025-1.416c19.661-5.27,34.112-18.049,43.352-38.34c9.235-20.289,13.855-52.734,13.855-97.342
			c0-30.748-1.78-52.836-5.345-66.267c-3.563-13.428-9.304-22.776-17.222-28.048c-4.896-3.256-10.599-4.885-17.108-4.885
			c-4.02,0-8.346,0.621-12.979,1.861c-37.349,10.007-56.021,52.096-56.021,126.26C507.492,657.807,521.306,693.868,548.935,693.868
			 M590.809,413.694h-0.002c-8.688,0-18.235,1.377-28.374,4.094c-32.662,8.752-58.301,29.735-76.206,62.365
			c-17.467,31.836-26.324,69.714-26.324,112.583c0,64.285,8.482,104.877,25.933,124.09c12.342,13.596,28.715,20.488,48.664,20.488
			c8.978,0,18.836-1.422,29.303-4.227c32.885-8.813,58.162-30.125,75.13-63.348c16.474-32.26,24.826-72.973,24.826-121.006
			c0-57.133-8.106-94.385-24.783-113.886C626.967,420.813,610.762,413.694,590.809,413.694L590.809,413.694z M548.935,685.868
			c-27.64,0-33.442-54.477-33.442-100.176c0-35.785,4.48-64.028,13.317-83.945c8.381-18.889,20.41-30.203,36.773-34.587
			c3.938-1.055,7.606-1.59,10.908-1.59c4.943,0,9.092,1.16,12.679,3.546c6.204,4.131,10.889,12.018,13.92,23.438
			c3.367,12.695,5.075,34.3,5.075,64.215c0,43.242-4.42,74.876-13.137,94.029c-8.271,18.168-20.748,29.268-38.141,33.926
			C554.059,685.483,551.382,685.868,548.935,685.868L548.935,685.868z"/>
	</g>
	<g>
		<path fill="#FFFFFF" d="M800.813,582.499L668.78,617.877v-29l157.307-233.634l20.338-5.45v181.718l29.297-7.85v38.767
			l-29.297,7.85v78.982l-45.61,12.223L800.813,582.499L800.813,582.499z M729.031,562.966l71.781-19.233v-86.64L729.031,562.966z"/>
		<path fill="#CFCFCF" d="M842.424,355.006v181.718l29.297-7.85v30.484l-29.297,7.85v78.982l-37.61,10.078v-78.982L672.78,612.665
			v-22.566l155.787-231.379L842.424,355.006 M719.695,569.61l85.118-22.809V444.065L719.695,569.61 M850.424,344.58l-10.07,2.698
			l-13.856,3.713l-2.894,0.774l-1.672,2.484L666.145,585.629l-1.364,2.025v2.441v22.566v10.426l10.07-2.697l121.963-32.68v68.557
			v10.426l10.07-2.697l37.609-10.078l5.931-1.59v-6.139v-72.844l23.366-6.261l5.931-1.589v-6.139v-30.484v-10.426l-10.07,2.698
			l-19.227,5.15v-171.29V344.58L850.424,344.58z M738.367,556.324l58.445-86.203v70.542L738.367,556.324L738.367,556.324z"/>
	</g>
</g>
</svg>
