<?xml version="1.0" encoding="utf-8"?>
<!-- Generator: Adobe Illustrator 15.0.0, SVG Export Plug-In . SVG Version: 6.00 Build 0)  -->
<!DOCTYPE svg PUBLIC "-//W3C//DTD SVG 1.1//EN" "http://www.w3.org/Graphics/SVG/1.1/DTD/svg11.dtd">
<svg version="1.1" id="Layer_2" xmlns="http://www.w3.org/2000/svg" xmlns:xlink="http://www.w3.org/1999/xlink" x="0px" y="0px"
	 width="1133.859px" height="850.394px" viewBox="0 0 1133.859 850.394" enable-background="new 0 0 1133.859 850.394"
	 xml:space="preserve">
<polygon fill="#81B246" points="1002.101,453.609 867.037,453.609 867.037,318.544 791.446,318.544 791.446,453.609 
	656.382,453.609 656.382,529.201 791.445,529.201 791.445,664.263 867.036,664.263 867.036,529.201 1002.101,529.201 "/>
<rect x="131.76" y="589.605" fill="#81B246" width="75.592" height="75.592"/>
<rect x="131.76" y="453.759" fill="#81B246" width="75.592" height="75.592"/>
<rect x="131.76" y="319.479" fill="#81B246" width="75.592" height="75.592"/>
<g>
	<rect x="131.76" y="185.196" fill="#81B246" width="75.592" height="75.592"/>
	<rect x="282.945" y="185.196" fill="#81B246" width="719.156" height="75.592"/>
</g>
<rect x="282.945" y="589.605" fill="#81B246" width="297.846" height="75.592"/>
<rect x="282.945" y="453.759" fill="#81B246" width="297.846" height="75.592"/>
<rect x="282.945" y="319.479" fill="#81B246" width="297.846" height="75.592"/>
</svg>
