<?xml version="1.0" encoding="utf-8"?>
<!-- Generator: Adobe Illustrator 15.0.0, SVG Export Plug-In . SVG Version: 6.00 Build 0)  -->
<!DOCTYPE svg PUBLIC "-//W3C//DTD SVG 1.1//EN" "http://www.w3.org/Graphics/SVG/1.1/DTD/svg11.dtd">
<svg version="1.1" id="Layer_3" xmlns="http://www.w3.org/2000/svg" xmlns:xlink="http://www.w3.org/1999/xlink" x="0px" y="0px"
	 width="1133.859px" height="1133.86px" viewBox="0 0 1133.859 1133.86" enable-background="new 0 0 1133.859 1133.86"
	 xml:space="preserve">
<g>
	<g>
		<polygon fill="#3CB5E5" points="647.825,509.421 647.825,810.409 908.493,659.915 908.493,358.928 647.835,509.421 		"/>
		<polygon fill="#7BD1EF" points="387.168,358.928 647.825,509.421 647.835,509.421 908.493,358.928 647.825,208.434 		"/>
		<polygon fill="#0B90D1" points="387.168,358.928 387.168,659.915 647.825,810.409 647.825,509.421 		"/>
		<path fill="#FFFFFF" d="M647.825,207.787L386.611,358.604v301.634l261.214,150.814l261.213-150.814V358.604L647.825,207.787z
			 M908.493,659.915L647.825,810.409L387.168,659.915V358.928l260.657-150.494l260.668,150.494V659.915z"/>
		<g>
			<defs>
				<polygon id="SVGID_1_" points="387.168,358.928 647.825,509.421 647.835,509.421 908.493,358.928 647.825,208.434 				"/>
			</defs>
			<clipPath id="SVGID_2_">
				<use xlink:href="#SVGID_1_"  overflow="visible"/>
			</clipPath>
			<polygon clip-path="url(#SVGID_2_)" fill="#3CB5E5" points="386.885,358.928 386.885,659.917 647.552,509.421 647.552,208.434 
				386.894,358.928 			"/>
			<polygon clip-path="url(#SVGID_2_)" fill="#0B90D1" points="648.11,208.434 648.11,509.421 908.765,659.917 908.765,358.928 			
				"/>
		</g>
		<g>
			<polygon fill="#7BD1EF" points="1038.822,434.172 778.16,584.665 778.149,584.667 647.825,509.425 647.829,509.418 
				908.479,358.928 			"/>
			<polygon fill="#7BD1EF" points="647.831,208.431 387.179,358.921 387.176,358.928 256.848,283.674 517.499,133.184 			"/>
		</g>
	</g>
	<g>
		<polygon fill="#3CB5E5" points="300.097,728.413 300.097,992.547 528.85,860.479 528.85,596.344 300.107,728.413 		"/>
		<polygon fill="#7BD1EF" points="71.355,596.344 300.097,728.413 300.107,728.413 528.85,596.344 300.097,464.277 		"/>
		<polygon fill="#0B90D1" points="71.355,596.344 71.355,860.479 300.097,992.547 300.097,728.413 		"/>
		<path fill="#FFFFFF" d="M300.097,463.709L70.866,596.061v264.701l229.231,132.352l229.231-132.352V596.061L300.097,463.709z
			 M528.85,860.479L300.097,992.547L71.355,860.479V596.344l228.742-132.067L528.85,596.344V860.479z"/>
	</g>
	<g>
		<polygon fill="#3CB5E5" points="884.398,794.444 884.398,1000.235 1062.618,897.34 1062.618,691.551 884.406,794.444 		"/>
		<polygon fill="#7BD1EF" points="706.185,691.551 884.398,794.444 884.406,794.444 1062.618,691.551 884.398,588.657 		"/>
		<polygon fill="#0B90D1" points="706.185,691.551 706.185,897.34 884.398,1000.235 884.398,794.444 		"/>
		<path fill="#FFFFFF" d="M884.398,588.215L705.805,691.331v206.23l178.593,103.115l178.595-103.115v-206.23L884.398,588.215z
			 M1062.618,897.34l-178.22,102.895L706.185,897.34V691.551l178.213-102.895l178.22,102.895V897.34z"/>
	</g>
</g>
</svg>
