<?xml version="1.0" encoding="utf-8"?>
<!-- Generator: Adobe Illustrator 15.0.0, SVG Export Plug-In . SVG Version: 6.00 Build 0)  -->
<!DOCTYPE svg PUBLIC "-//W3C//DTD SVG 1.1//EN" "http://www.w3.org/Graphics/SVG/1.1/DTD/svg11.dtd">
<svg version="1.1" id="Layer_3" xmlns="http://www.w3.org/2000/svg" xmlns:xlink="http://www.w3.org/1999/xlink" x="0px" y="0px"
	 width="1133.859px" height="1133.86px" viewBox="0 0 1133.859 1133.86" enable-background="new 0 0 1133.859 1133.86"
	 xml:space="preserve">
<g>
	<g>
		<polygon fill="#3CB5E5" points="657.931,497.338 657.931,870.459 981.07,683.898 981.07,310.778 657.944,497.338 		"/>
		<polygon fill="#7BD1EF" points="334.807,310.778 657.931,497.338 657.944,497.338 981.07,310.778 657.931,124.218 		"/>
		<polygon fill="#0B90D1" points="334.807,310.778 334.807,683.898 657.931,870.459 657.931,497.338 		"/>
		<path fill="#FFFFFF" d="M657.931,123.417L334.117,310.377v373.922l323.814,186.96l323.814-186.96V310.377L657.931,123.417z
			 M981.07,683.898L657.931,870.459L334.807,683.898v-373.12l323.124-186.56l323.139,186.56V683.898z"/>
	</g>
	<g>
		<polygon fill="#3CB5E5" points="304.672,766.645 304.672,1009.92 515.359,888.283 515.359,645.007 304.68,766.645 		"/>
		<polygon fill="#7BD1EF" points="93.994,645.007 304.672,766.645 304.68,766.645 515.359,645.007 304.672,523.37 		"/>
		<polygon fill="#0B90D1" points="93.994,645.007 93.994,888.283 304.672,1009.92 304.672,766.645 		"/>
		<path fill="#FFFFFF" d="M304.672,522.847L93.544,644.746v243.798l211.128,121.899L515.8,888.543V644.746L304.672,522.847z
			 M515.359,888.283L304.672,1009.92L93.994,888.283V645.007L304.672,523.37l210.687,121.638V888.283z"/>
	</g>
	<g>
		<polygon fill="#3CB5E5" points="875.825,820.499 875.825,1010.037 1039.97,915.268 1039.97,725.732 875.833,820.499 		"/>
		<polygon fill="#7BD1EF" points="711.686,725.732 875.825,820.499 875.833,820.499 1039.97,725.732 875.825,630.963 		"/>
		<polygon fill="#0B90D1" points="711.686,725.732 711.686,915.268 875.825,1010.037 875.825,820.499 		"/>
		<path fill="#FFFFFF" d="M875.825,630.557l-164.488,94.972v189.942l164.488,94.972l164.49-94.972V725.529L875.825,630.557z
			 M1039.97,915.268l-164.146,94.769l-164.139-94.769V725.732l164.139-94.769l164.146,94.769V915.268z"/>
	</g>
</g>
</svg>
