<?xml version="1.0" encoding="utf-8"?>
<!-- Generator: Adobe Illustrator 15.0.0, SVG Export Plug-In . SVG Version: 6.00 Build 0)  -->
<!DOCTYPE svg PUBLIC "-//W3C//DTD SVG 1.1//EN" "http://www.w3.org/Graphics/SVG/1.1/DTD/svg11.dtd">
<svg version="1.1" id="Layer_1" xmlns="http://www.w3.org/2000/svg" xmlns:xlink="http://www.w3.org/1999/xlink" x="0px" y="0px"
	 width="1133.859px" height="1133.86px" viewBox="0 0 1133.859 1133.86" enable-background="new 0 0 1133.859 1133.86"
	 xml:space="preserve">
<g>
	<g>
		<g>
			<g>
				<path fill="#0290D0" d="M506.188,449.495c0,31.181-25.512,56.692-56.693,56.692H198.426c-31.181,0-56.693-25.512-56.693-56.692
					V198.426c0-31.181,25.513-56.693,56.693-56.693h251.068c31.182,0,56.693,25.512,56.693,56.693V449.495z"/>
			</g>
			<g>
				<path fill="#0290D0" d="M992.127,449.495c0,31.181-25.513,56.692-56.693,56.692H684.365c-31.182,0-56.692-25.512-56.692-56.692
					V198.426c0-31.181,25.512-56.693,56.692-56.693h251.067c31.182,0,56.692,25.512,56.692,56.693v251.069H992.127z"/>
			</g>
		</g>
		<g>
			<g>
				<path fill="#0290D0" d="M506.188,935.434c0,31.182-25.512,56.693-56.693,56.693H198.426c-31.181,0-56.693-25.512-56.693-56.693
					V684.366c0-31.182,25.513-56.693,56.693-56.693h251.068c31.182,0,56.693,25.514,56.693,56.693V935.434z"/>
			</g>
			<g>
				<path fill="#0290D0" d="M992.127,935.434c0,31.182-25.513,56.693-56.693,56.693H684.365c-31.182,0-56.692-25.512-56.692-56.693
					V684.366c0-31.182,25.512-56.693,56.692-56.693h251.067c31.182,0,56.692,25.514,56.692,56.693v251.068H992.127z"/>
			</g>
		</g>
	</g>
</g>
</svg>
