<?xml version="1.0" encoding="utf-8"?>
<!-- Generator: Adobe Illustrator 15.0.0, SVG Export Plug-In . SVG Version: 6.00 Build 0)  -->
<!DOCTYPE svg PUBLIC "-//W3C//DTD SVG 1.1//EN" "http://www.w3.org/Graphics/SVG/1.1/DTD/svg11.dtd">
<svg version="1.1" id="Layer_1" xmlns="http://www.w3.org/2000/svg" xmlns:xlink="http://www.w3.org/1999/xlink" x="0px" y="0px"
	 width="1133.86px" height="1133.86px" viewBox="0 0 1133.86 1133.86" enable-background="new 0 0 1133.86 1133.86"
	 xml:space="preserve">
<g>
	<polygon fill="#81B246" points="920.003,541.408 857.073,814.396 492.159,814.396 399.951,414.395 131.76,414.395 131.76,494.395 
		336.295,494.395 428.503,894.396 920.729,894.396 1002.101,541.408 	"/>
	<path fill="#81B246" d="M1002.101,319.465v-80c-61.495,0-115.924,9.102-161.775,27.051
		c-44.756,17.521-82.649,43.901-112.629,78.408c-48.493,55.817-77.024,132.604-86.97,234.291l-131.155-0.689l169.209,170.929
		L849.75,580.313l-128.647-0.676c8.805-80.822,30.81-140.606,66.985-182.245C833.645,344.955,903.648,319.465,1002.101,319.465z"/>
</g>
</svg>
