<?xml version="1.0" encoding="utf-8"?>
<!-- Generator: Adobe Illustrator 15.0.0, SVG Export Plug-In . SVG Version: 6.00 Build 0)  -->
<!DOCTYPE svg PUBLIC "-//W3C//DTD SVG 1.1//EN" "http://www.w3.org/Graphics/SVG/1.1/DTD/svg11.dtd">
<svg version="1.1" id="Layer_1" xmlns="http://www.w3.org/2000/svg" xmlns:xlink="http://www.w3.org/1999/xlink" x="0px" y="0px"
	 width="1133.86px" height="1133.86px" viewBox="0 0 1133.86 1133.86" enable-background="new 0 0 1133.86 1133.86"
	 xml:space="preserve">
<path d="M660.395,566.931l398.009-398.01c25.018-25.017,25.018-65.579,0-90.595l-2.868-2.869c-25.017-25.018-65.578-25.018-90.596,0
	L566.93,473.467L168.921,75.458c-25.017-25.017-65.579-25.017-90.595,0l-2.869,2.868c-25.018,25.018-25.018,65.579,0,90.596
	l398.01,398.009L75.457,964.939c-25.016,25.017-25.018,65.579,0,90.596l2.869,2.868c25.016,25.018,65.579,25.018,90.595,0
	L566.93,660.395l398.009,398.009c25.017,25.017,65.579,25.018,90.596,0l2.868-2.869c25.018-25.016,25.018-65.578,0-90.595
	L660.395,566.931z"/>
</svg>
