<?xml version="1.0" encoding="utf-8"?>
<!-- Generator: Adobe Illustrator 15.0.0, SVG Export Plug-In . SVG Version: 6.00 Build 0)  -->
<!DOCTYPE svg PUBLIC "-//W3C//DTD SVG 1.1//EN" "http://www.w3.org/Graphics/SVG/1.1/DTD/svg11.dtd">
<svg version="1.1" id="Layer_2" xmlns="http://www.w3.org/2000/svg" xmlns:xlink="http://www.w3.org/1999/xlink" x="0px" y="0px"
	 width="1133.86px" height="850.394px" viewBox="0 0 1133.86 850.394" enable-background="new 0 0 1133.86 850.394"
	 xml:space="preserve">
<path fill="#81B246" d="M648.12,185.196v87.502h112.284c13.535-21.708,37.389-35.218,63.531-35.218
	c41.287,0,74.877,33.59,74.877,74.878s-33.59,74.878-74.877,74.878c-26.143,0-49.996-13.51-63.531-35.219H648.12v163.366H361.45
	c-8.815-20.703-29.344-35.219-53.266-35.219c-31.961,0-57.87,25.91-57.87,57.87c0,31.961,25.909,57.87,57.87,57.87
	c23.922,0,44.45-14.516,53.266-35.218h286.67v104.51h342.24V185.196H648.12z"/>
<path fill="#81B246" d="M823.936,254.488c-23.922,0-44.45,14.516-53.266,35.219H484v-104.51H141.76v480.001H484v-87.502H371.715
	c-13.534,21.708-37.388,35.218-63.53,35.218c-41.288,0-74.878-33.59-74.878-74.878s33.59-74.878,74.878-74.878
	c26.142,0,49.997,13.51,63.53,35.219H484V335.01h286.67c8.815,20.703,29.344,35.219,53.266,35.219c31.961,0,57.87-25.91,57.87-57.87
	C881.806,280.397,855.896,254.488,823.936,254.488z"/>
</svg>
