<?xml version="1.0" encoding="utf-8"?>
<!-- Generator: Adobe Illustrator 15.0.0, SVG Export Plug-In . SVG Version: 6.00 Build 0)  -->
<!DOCTYPE svg PUBLIC "-//W3C//DTD SVG 1.1//EN" "http://www.w3.org/Graphics/SVG/1.1/DTD/svg11.dtd">
<svg version="1.1" id="Layer_1" xmlns="http://www.w3.org/2000/svg" xmlns:xlink="http://www.w3.org/1999/xlink" x="0px" y="0px"
	 width="1133.859px" height="1133.658px" viewBox="0 0 1133.859 1133.658" enable-background="new 0 0 1133.859 1133.658"
	 xml:space="preserve">
<path fill="#FFFFFF" d="M926.562,131.737H207.3c-41.695,0-75.537,33.841-75.537,75.537h-0.004v719.11
	c0,41.845,33.842,75.537,75.538,75.537h719.265c41.694,0,75.539-33.692,75.539-75.537v-719.11
	C1002.101,165.578,968.255,131.737,926.562,131.737z M900.569,442.187l-9.064,117.985H770.5v410.014H617.61V560.179h-81.579
	l0.005-117.985h81.579v-37.013v-36.255v-6.048c0-34.897,0.899-88.83,26.285-122.215c26.735-35.354,63.455-59.371,126.604-59.371
	c102.873,0,146.233,14.651,146.233,14.651l-20.396,120.861c0,0-33.992-9.825-65.719-9.825c-31.725,0-60.126,11.332-60.126,43.056
	v12.842v42.301v37.01H900.569z"/>
</svg>
