<?xml version="1.0" encoding="utf-8"?>
<!-- Generator: Adobe Illustrator 15.0.0, SVG Export Plug-In . SVG Version: 6.00 Build 0)  -->
<!DOCTYPE svg PUBLIC "-//W3C//DTD SVG 1.1//EN" "http://www.w3.org/Graphics/SVG/1.1/DTD/svg11.dtd">
<svg version="1.1" id="Layer_1" xmlns="http://www.w3.org/2000/svg" xmlns:xlink="http://www.w3.org/1999/xlink" x="0px" y="0px"
	 width="1133.859px" height="1133.658px" viewBox="-422.904 -422.829 1133.859 1133.658"
	 enable-background="new -422.904 -422.829 1133.859 1133.658" xml:space="preserve">
<g>
	<g>
		<g>
			<defs>
				<path id="SVGID_1_" d="M-251.137-182.501c0-37.862,30.731-68.593,68.593-68.593h653.141c37.86,0,68.594,30.731,68.594,68.593
					v653.003c0,37.998-30.733,68.593-68.594,68.593h-653.144c-37.862,0-68.593-30.595-68.593-68.593v-653.003H-251.137z"/>
			</defs>
			<clipPath id="SVGID_2_">
				<use xlink:href="#SVGID_1_"  overflow="visible"/>
			</clipPath>
			<g clip-path="url(#SVGID_2_)">
				<path fill="#283165" d="M853.345,346.238c0-388.1-314.978-703.075-703.076-703.075S-552.811-41.861-552.811,346.238
					c0,388.096,314.978,703.076,703.079,703.076C538.367,1049.314,853.345,734.334,853.345,346.238"/>
				<path fill="#283165" d="M847.375,346.238c0-384.801-312.304-697.104-697.106-697.104s-697.1,312.303-697.1,697.104
					c0,384.803,312.297,697.1,697.1,697.1C535.071,1043.341,847.375,731.041,847.375,346.238"/>
				<path fill="#293266" d="M841.402,346.238c0-381.502-309.633-691.131-691.134-691.131c-381.507,0-691.13,309.626-691.13,691.131
					c0,381.507,309.626,691.133,691.13,691.133C531.775,1037.371,841.402,727.745,841.402,346.238"/>
				<path fill="#293267" d="M835.423,346.238c0-378.206-306.949-685.158-685.154-685.158
					c-378.208,0-685.162,306.952-685.162,685.158c0,378.214,306.951,685.16,685.162,685.16
					C528.474,1031.398,835.423,724.452,835.423,346.238"/>
				<path fill="#2A3367" d="M829.45,346.238c0-374.91-304.272-679.182-679.182-679.182c-374.917,0-679.183,304.275-679.183,679.182
					c0,374.912,304.271,679.185,679.183,679.185C525.178,1025.423,829.45,721.15,829.45,346.238"/>
				<path fill="#2A3368" d="M823.48,346.238c0-371.611-301.604-673.211-673.212-673.211c-371.618,0-673.208,301.6-673.208,673.211
					c0,371.616,301.597,673.211,673.208,673.211C521.876,1019.449,823.48,717.854,823.48,346.238"/>
				<path fill="#2B3468" d="M817.508,346.238C817.508-22.077,518.58-321,150.269-321c-368.319,0-667.242,298.923-667.242,667.238
					c0,368.317,298.92,667.241,667.236,667.241C518.58,1013.477,817.508,714.556,817.508,346.238"/>
				<path fill="#2B3469" d="M811.537,346.238c0-365.019-296.253-661.267-661.269-661.267c-365.017,0-661.263,296.25-661.263,661.267
					c0,365.019,296.246,661.263,661.263,661.263C515.284,1007.504,811.537,711.257,811.537,346.238"/>
				<path fill="#2C356A" d="M805.564,346.238c0-361.72-293.576-655.291-655.296-655.291c-361.721,0-655.29,293.573-655.29,655.291
					c0,361.723,293.566,655.296,655.29,655.296C511.988,1001.534,805.564,707.961,805.564,346.238"/>
				<path fill="#2C356A" d="M799.586,346.238c0-358.424-290.894-649.318-649.317-649.318
					c-358.428,0-649.317,290.894-649.317,649.318c0,358.429,290.89,649.32,649.317,649.32
					C508.692,995.559,799.586,704.667,799.586,346.238"/>
				<path fill="#2D366B" d="M793.613,346.238c0-355.125-288.223-643.348-643.345-643.348
					c-355.132,0-643.349,288.222-643.349,643.348c0,355.133,288.217,643.347,643.343,643.347
					C505.391,989.585,793.613,701.371,793.613,346.238"/>
				<path fill="#2D376C" d="M787.641,346.238c0-351.827-285.54-637.374-637.378-637.374c-351.827,0-637.37,285.547-637.37,637.374
					c0,351.831,285.54,637.374,637.376,637.374C502.101,983.612,787.641,698.069,787.641,346.238"/>
				<path fill="#2D376C" d="M781.67,346.238c0-348.532-282.868-631.401-631.401-631.401c-348.534,0-631.403,282.869-631.403,631.401
					c0,348.535,282.869,631.404,631.403,631.404C498.802,977.643,781.67,694.773,781.67,346.238"/>
				<path fill="#2E386D" d="M775.7,346.238c0-345.236-280.197-625.428-625.432-625.428c-345.238,0-625.423,280.192-625.423,625.428
					c0,345.236,280.185,625.429,625.423,625.429C495.503,971.67,775.7,691.475,775.7,346.238"/>
				<path fill="#2E386E" d="M769.728,346.238c0-341.937-277.521-619.457-619.459-619.457
					c-341.942,0-619.458,277.517-619.458,619.457c0,341.94,277.516,619.453,619.453,619.453
					C492.207,965.693,769.728,688.179,769.728,346.238"/>
				<path fill="#2F396E" d="M763.755,346.238c0-338.641-274.844-613.483-613.486-613.483
					c-338.641,0-613.483,274.839-613.483,613.483c0,338.642,274.839,613.482,613.483,613.482
					C488.914,959.721,763.755,684.88,763.755,346.238"/>
				<path fill="#2F396F" d="M757.781,346.238c0-335.345-272.169-607.511-607.513-607.511
					c-335.351,0-607.512,272.166-607.512,607.511c0,335.349,272.161,607.51,607.512,607.51
					C485.612,953.748,757.781,681.587,757.781,346.238"/>
				<path fill="#303A70" d="M751.806,346.238c0-332.046-269.486-601.536-601.537-601.536
					c-332.052,0-601.536,269.487-601.536,601.536c0,332.053,269.487,601.537,601.536,601.537
					C482.319,947.775,751.806,678.285,751.806,346.238"/>
				<path fill="#303B70" d="M745.836,346.238c0-328.75-266.815-595.563-595.567-595.563c-328.757,0-595.566,266.813-595.566,595.563
					c0,328.751,266.809,595.566,595.56,595.566C479.021,941.805,745.836,674.989,745.836,346.238"/>
				<path fill="#313B71" d="M739.863,346.238c0-325.455-264.142-589.593-589.601-589.593
					c-325.453,0-589.588,264.139-589.588,589.593c0,325.455,264.136,589.594,589.594,589.594
					C475.722,935.832,739.863,671.693,739.863,346.238"/>
				<path fill="#313C72" d="M733.891,346.238c0-322.156-261.465-583.619-583.622-583.619
					c-322.159,0-583.616,261.463-583.616,583.619c0,322.159,261.457,583.618,583.616,583.618
					C472.426,929.859,733.891,668.397,733.891,346.238"/>
				<path fill="#323C73" d="M727.917,346.238c0-318.86-258.788-577.649-577.648-577.649s-577.64,258.789-577.64,577.649
					c0,318.86,258.78,577.646,577.64,577.646S727.917,665.102,727.917,346.238"/>
				<path fill="#323D73" d="M721.938,346.238c0-315.563-256.114-571.673-571.67-571.673c-315.567,0-571.67,256.112-571.67,571.673
					c0,315.564,256.105,571.673,571.67,571.673C465.827,917.911,721.938,661.806,721.938,346.238"/>
				<path fill="#333E74" d="M715.966,346.238c0-312.266-253.435-565.701-565.703-565.701
					c-312.266,0-565.698,253.435-565.698,565.701c0,312.269,253.433,565.702,565.698,565.702
					C462.531,911.94,715.966,658.504,715.966,346.238"/>
				<path fill="#333E75" d="M709.999,346.24c0-308.969-250.758-559.728-559.73-559.728S-409.46,37.271-409.46,346.24
					c0,308.968,250.756,559.728,559.729,559.728S709.999,655.214,709.999,346.24"/>
				<path fill="#343F76" d="M704.025,346.238c0-305.671-248.08-553.756-553.757-553.756S-403.484,40.564-403.484,346.238
					c0,305.674,248.076,553.757,553.753,553.757S704.025,651.912,704.025,346.238"/>
				<path fill="#344076" d="M698.05,346.238c0-302.375-245.406-547.782-547.781-547.782S-397.51,43.866-397.51,346.238
					c0,302.378,245.403,547.778,547.778,547.778C452.644,894.02,698.05,648.616,698.05,346.238"/>
				<path fill="#354077" d="M692.08,346.238c0-299.077-242.732-541.812-541.812-541.812S-391.543,47.162-391.543,346.238
					c0,299.079,242.732,541.811,541.812,541.811S692.08,645.317,692.08,346.238"/>
				<path fill="#354178" d="M686.107,346.238c0-295.781-240.062-535.836-535.839-535.836
					c-295.786,0-535.835,240.056-535.835,535.836c0,295.783,240.049,535.838,535.835,535.838
					C446.052,882.076,686.107,642.021,686.107,346.238"/>
				<path fill="#364179" d="M680.129,346.238c0-292.485-237.379-529.863-529.86-529.863c-292.487,0-529.864,237.381-529.864,529.863
					c0,292.486,237.38,529.865,529.864,529.865C442.756,876.104,680.129,638.725,680.129,346.238"/>
				<path fill="#364279" d="M674.158,346.235c0-289.183-234.704-523.886-523.89-523.886c-289.188,0-523.889,234.703-523.889,523.886
					c0,289.19,234.7,523.896,523.889,523.896C439.454,870.131,674.158,635.426,674.158,346.235"/>
				<path fill="#37437A" d="M668.188,346.238c0-285.89-232.03-517.919-517.926-517.919c-285.891,0-517.916,232.029-517.916,517.919
					c0,285.895,232.022,517.923,517.916,517.923C436.158,864.161,668.188,632.13,668.188,346.238"/>
				<path fill="#37437B" d="M662.216,346.238c0-282.591-229.354-511.943-511.947-511.943
					c-282.598,0-511.947,229.352-511.947,511.943c0,282.596,229.35,511.946,511.947,511.946
					C432.862,858.185,662.216,628.834,662.216,346.238"/>
				<path fill="#38447C" d="M656.243,346.238c0-279.295-226.677-505.975-505.975-505.975c-279.296,0-505.971,226.68-505.971,505.975
					c0,279.3,226.672,505.968,505.971,505.968C429.566,852.206,656.243,625.538,656.243,346.238"/>
				<path fill="#38457C" d="M650.27,346.238c0-275.996-224.005-499.999-500.001-499.999c-276,0-499.999,224.003-499.999,499.999
					c0,276.004,223.999,499.998,499.999,499.998C426.271,846.236,650.27,622.242,650.27,346.238"/>
				<path fill="#39457D" d="M644.297,346.238c0-272.703-221.328-494.029-494.034-494.029
					c-272.701,0-494.027,221.329-494.027,494.029c0,272.702,221.326,494.028,494.027,494.028
					C422.969,840.267,644.297,618.94,644.297,346.238"/>
				<path fill="#39467E" d="M638.324,346.238c0-269.401-218.651-488.055-488.056-488.055c-269.408,0-488.054,218.65-488.054,488.055
					c0,269.406,218.643,488.055,488.054,488.055C419.673,834.293,638.324,615.645,638.324,346.238"/>
				<path fill="#3A477F" d="M632.352,346.238c0-266.107-215.975-482.082-482.083-482.082
					c-266.112,0-482.081,215.975-482.081,482.082c0,266.11,215.969,482.082,482.081,482.082
					C416.377,828.32,632.352,612.349,632.352,346.238"/>
				<path fill="#3A477F" d="M626.379,346.238c0-262.811-213.301-476.109-476.11-476.109c-262.813,0-476.11,213.298-476.11,476.109
					c0,262.814,213.293,476.106,476.11,476.106C413.078,822.345,626.379,609.053,626.379,346.238"/>
				<path fill="#3B4880" d="M620.402,346.238c0-259.515-210.623-470.138-470.134-470.138
					c-259.518,0-470.137,210.625-470.137,470.138c0,259.519,210.62,470.134,470.137,470.134
					C409.785,816.372,620.402,605.757,620.402,346.238"/>
				<path fill="#3B4981" d="M614.433,346.238c0-256.216-207.944-464.162-464.164-464.162
					c-256.219,0-464.161,207.945-464.161,464.162c0,256.22,207.945,464.164,464.161,464.164
					C406.486,810.402,614.433,602.458,614.433,346.238"/>
				<path fill="#3C4982" d="M608.46,346.238c0-252.92-205.271-458.189-458.191-458.189c-252.922,0-458.188,205.269-458.188,458.189
					c0,252.924,205.269,458.191,458.188,458.191C403.192,804.43,608.46,599.162,608.46,346.238"/>
				<path fill="#3C4A83" d="M602.481,346.235c0-249.621-202.594-452.213-452.213-452.213
					c-249.626,0-452.217,202.592-452.217,452.213c0,249.625,202.593,452.221,452.217,452.221
					C399.888,798.456,602.481,595.86,602.481,346.235"/>
				<path fill="#3D4B83" d="M596.515,346.238c0-246.325-199.923-446.245-446.252-446.245
					c-246.325,0-446.241,199.919-446.241,446.245c0,246.329,199.917,446.248,446.241,446.248
					C396.592,792.486,596.515,592.567,596.515,346.238"/>
				<path fill="#3D4B84" d="M590.541,346.24c0-243.028-197.245-440.271-440.272-440.271c-243.029,0-440.271,197.243-440.271,440.271
					s197.245,440.271,440.271,440.271C393.293,786.511,590.541,589.269,590.541,346.24"/>
				<path fill="#3E4C85" d="M584.568,346.238c0-239.73-194.568-434.299-434.3-434.299c-239.734,0-434.294,194.568-434.294,434.299
					c0,239.734,194.56,434.297,434.294,434.297C390,780.538,584.568,585.973,584.568,346.238"/>
				<path fill="#3E4D86" d="M578.596,346.238c0-236.438-191.892-428.325-428.327-428.325c-236.438,0-428.324,191.89-428.324,428.325
					c0,236.441,191.889,428.32,428.324,428.32C386.707,774.559,578.596,582.68,578.596,346.238"/>
				<path fill="#3F4D86" d="M572.623,346.238c0-233.139-189.218-422.352-422.36-422.352c-233.14,0-422.351,189.213-422.351,422.352
					c0,233.145,189.214,422.354,422.357,422.354C383.408,768.592,572.623,579.383,572.623,346.238"/>
				<path fill="#3F4E87" d="M566.649,346.238c0-229.841-186.543-416.379-416.381-416.379
					c-229.847,0-416.383,186.538-416.383,416.379c0,229.844,186.536,416.384,416.383,416.384
					C380.109,762.622,566.649,576.082,566.649,346.238"/>
				<path fill="#404F88" d="M560.677,346.238c0-226.542-183.863-410.407-410.408-410.407c-226.548,0-410.41,183.865-410.41,410.407
					c0,226.547,183.862,410.408,410.41,410.408C376.813,756.646,560.677,572.785,560.677,346.238"/>
				<path fill="#415089" d="M554.704,346.238c0-223.25-181.187-404.435-404.436-404.435s-404.434,181.185-404.434,404.435
					c0,223.246,181.183,404.432,404.434,404.432C373.518,750.67,554.704,569.489,554.704,346.238"/>
				<path fill="#41508A" d="M548.729,346.238c0-219.951-178.513-398.464-398.466-398.464c-219.95,0-398.459,178.514-398.459,398.464
					c0,219.949,178.51,398.462,398.459,398.462C370.222,744.7,548.729,566.188,548.729,346.238"/>
				<path fill="#42518B" d="M542.759,346.238c0-216.652-175.839-392.487-392.49-392.487c-216.654,0-392.487,175.838-392.487,392.487
					c0,216.653,175.835,392.486,392.487,392.486C366.92,738.73,542.759,562.892,542.759,346.238"/>
				<path fill="#42528B" d="M536.785,346.238c0-213.355-173.161-386.518-386.517-386.518
					c-213.355,0-386.514,173.162-386.514,386.518c0,213.357,173.159,386.52,386.514,386.52
					C363.624,732.758,536.785,559.596,536.785,346.238"/>
				<path fill="#43538C" d="M530.813,346.238c0-210.063-170.484-380.542-380.544-380.542
					c-210.065,0-380.545,170.482-380.545,380.542c0,210.056,170.483,380.544,380.545,380.544
					C360.334,726.782,530.813,556.3,530.813,346.238"/>
				<path fill="#43538D" d="M524.84,346.238c0-206.761-167.808-374.572-374.577-374.572c-206.76,0-374.569,167.811-374.569,374.572
					c0,206.76,167.809,374.573,374.575,374.573C357.032,720.807,524.84,552.998,524.84,346.238"/>
				<path fill="#44548E" d="M518.87,346.238c0-203.465-165.14-368.597-368.602-368.597c-203.467,0-368.6,165.135-368.6,368.597
					c0,203.464,165.132,368.598,368.6,368.598C353.73,714.836,518.87,549.702,518.87,346.238"/>
				<path fill="#45558F" d="M512.895,346.238c0-200.166-162.454-362.625-362.626-362.625
					c-200.173,0-362.624,162.458-362.624,362.625c0,200.171,162.454,362.625,362.624,362.625
					C350.44,708.863,512.895,546.409,512.895,346.238"/>
				<path fill="#455690" d="M506.921,346.238c0-196.87-159.776-356.653-356.652-356.653c-196.874,0-356.649,159.783-356.649,356.653
					c0,196.875,159.775,356.652,356.649,356.652C347.139,702.894,506.921,543.113,506.921,346.238"/>
				<path fill="#465791" d="M500.948,346.238c0-193.574-157.105-350.68-350.68-350.68c-193.578,0-350.683,157.106-350.683,350.68
					c0,193.579,157.104,350.677,350.683,350.677C343.843,696.915,500.948,539.817,500.948,346.238"/>
				<path fill="#465791" d="M494.976,346.238c0-190.278-154.435-344.705-344.707-344.705
					c-190.282,0-344.711,154.426-344.711,344.705c0,190.28,154.429,344.709,344.711,344.709
					C340.541,690.947,494.976,536.519,494.976,346.238"/>
				<path fill="#475892" d="M489.003,346.238c0-186.977-151.753-338.731-338.734-338.731
					c-186.983,0-338.735,151.755-338.735,338.731c0,186.984,151.752,338.733,338.735,338.733
					C337.25,684.972,489.003,533.223,489.003,346.238"/>
				<path fill="#475993" d="M483.029,346.238c0-183.681-149.075-332.76-332.761-332.76c-183.684,0-332.76,149.08-332.76,332.76
					c0,183.688,149.073,332.761,332.76,332.761C333.954,678.999,483.029,529.927,483.029,346.238"/>
				<path fill="#485A94" d="M477.054,346.238c0-180.388-146.398-326.787-326.785-326.787c-180.388,0-326.79,146.399-326.79,326.787
					c0,180.39,146.401,326.791,326.79,326.791C330.655,673.029,477.054,526.628,477.054,346.238"/>
				<path fill="#495A95" d="M471.087,346.238c0-177.092-143.73-320.817-320.818-320.817c-177.089,0-320.815,143.726-320.815,320.817
					c0,177.094,143.723,320.814,320.815,320.814C327.356,667.053,471.087,523.332,471.087,346.238"/>
				<path fill="#495B96" d="M465.111,346.238c0-173.79-141.051-314.84-314.843-314.84c-173.793,0-314.839,141.05-314.839,314.84
					c0,173.795,141.046,314.845,314.839,314.845C324.061,661.083,465.111,520.033,465.111,346.238"/>
				<path fill="#4A5C97" d="M459.139,346.238c0-170.5-138.371-308.87-308.87-308.87c-170.495,0-308.867,138.37-308.867,308.87
					c0,170.499,138.375,308.869,308.867,308.869C320.765,655.107,459.139,516.737,459.139,346.238"/>
				<path fill="#4A5D98" d="M453.165,346.238c0-167.198-135.702-302.895-302.896-302.895
					c-167.199,0-302.898,135.696-302.898,302.895c0,167.2,135.699,302.894,302.898,302.894
					C317.463,649.132,453.165,513.438,453.165,346.238"/>
				<path fill="#4B5E99" d="M447.195,346.238c0-163.901-133.025-296.923-296.927-296.923
					c-163.903,0-296.925,133.021-296.925,296.923c0,163.906,133.02,296.924,296.925,296.924
					C314.17,643.162,447.195,510.145,447.195,346.238"/>
				<path fill="#4C5E9A" d="M441.22,346.238c0-160.605-130.346-290.953-290.951-290.953c-160.604,0-290.955,130.347-290.955,290.953
					c0,160.607,130.351,290.953,290.955,290.953C310.874,637.191,441.22,506.846,441.22,346.238"/>
				<path fill="#4C5F9B" d="M435.25,346.238c0-157.31-127.672-284.98-284.981-284.98c-157.312,0-284.981,127.676-284.981,284.98
					c0,157.309,127.669,284.98,284.981,284.98C307.578,631.219,435.25,503.547,435.25,346.238"/>
				<path fill="#4D609B" d="M429.279,346.238c0-154.008-125.003-279.006-279.011-279.006
					c-154.011,0-279.002,124.998-279.002,279.006c0,154.013,124.996,279.002,279.002,279.002
					C304.282,625.243,429.279,500.251,429.279,346.238"/>
				<path fill="#4E619C" d="M423.301,346.238c0-150.712-122.314-273.036-273.032-273.036
					c-150.714,0-273.035,122.324-273.035,273.036c0,150.717,122.321,273.035,273.035,273.035
					C300.98,619.273,423.301,496.955,423.301,346.238"/>
				<path fill="#4E629D" d="M417.328,346.238c0-147.416-119.646-267.06-267.06-267.06c-147.418,0-267.063,119.641-267.063,267.06
					c0,147.415,119.639,267.059,267.063,267.059C297.685,613.297,417.328,493.659,417.328,346.238"/>
				<path fill="#4F629E" d="M411.355,346.238c0-144.114-116.967-261.087-261.087-261.087
					c-144.123,0-261.088,116.964-261.088,261.087c0,144.119,116.968,261.089,261.088,261.089
					C294.386,607.327,411.355,490.363,411.355,346.238"/>
				<path fill="#50639F" d="M405.383,346.238c0-140.821-114.293-255.113-255.114-255.113
					c-140.824,0-255.115,114.292-255.115,255.113c0,140.823,114.292,255.116,255.115,255.116
					C291.09,601.354,405.383,487.067,405.383,346.238"/>
				<path fill="#5064A0" d="M399.412,346.238c0-137.525-111.618-249.143-249.149-249.143
					c-137.528,0-249.141,111.617-249.141,249.143c0,137.527,111.616,249.146,249.146,249.146
					C287.8,595.385,399.412,483.766,399.412,346.238"/>
				<path fill="#5165A1" d="M393.442,346.238c0-134.229-108.944-243.164-243.174-243.164
					c-134.229,0-243.168,108.938-243.168,243.164c0,134.226,108.939,243.171,243.168,243.171
					C284.498,589.409,393.442,480.47,393.442,346.238"/>
				<path fill="#5266A2" d="M387.47,346.238c0-130.931-106.268-237.198-237.201-237.198c-130.933,0-237.192,106.265-237.192,237.198
					c0,130.936,106.262,237.197,237.192,237.197C281.202,583.436,387.47,477.174,387.47,346.238"/>
				<path fill="#5267A3" d="M381.491,346.238c0-127.632-103.591-231.223-231.223-231.223c-127.64,0-231.222,103.591-231.222,231.223
					c0,127.64,103.585,231.225,231.222,231.225C277.9,577.463,381.491,473.872,381.491,346.238"/>
				<path fill="#5368A4" d="M375.518,346.238c0-124.336-100.913-225.25-225.255-225.25c-124.335,0-225.248,100.914-225.248,225.25
					c0,124.338,100.91,225.252,225.248,225.252C274.604,571.49,375.518,470.576,375.518,346.238"/>
				<path fill="#5468A5" d="M369.548,346.238c0-121.043-98.239-219.278-219.279-219.278c-121.04,0-219.281,98.235-219.281,219.278
					c0,121.042,98.241,219.279,219.281,219.279C271.309,565.518,369.548,467.28,369.548,346.238"/>
				<path fill="#5469A6" d="M363.575,346.238c0-117.744-95.563-213.306-213.307-213.306c-117.746,0-213.305,95.562-213.305,213.306
					c0,117.746,95.562,213.306,213.305,213.306S363.575,463.984,363.575,346.238"/>
				<path fill="#556AA7" d="M357.603,346.238c0-114.445-92.887-207.33-207.334-207.33c-114.444,0-207.333,92.884-207.333,207.33
					c0,114.45,92.885,207.33,207.333,207.33C264.716,553.568,357.603,460.688,357.603,346.238"/>
				<path fill="#566BA8" d="M351.627,346.238c0-111.149-90.207-201.361-201.358-201.361c-111.153,0-201.364,90.212-201.364,201.361
					c0,111.157,90.211,201.36,201.364,201.36C261.42,547.599,351.627,457.396,351.627,346.238"/>
				<path fill="#566CA9" d="M345.659,346.238c0-107.854-87.535-195.389-195.391-195.389c-107.851,0-195.388,87.535-195.388,195.389
					c0,107.855,87.537,195.382,195.388,195.382C258.124,541.62,345.659,454.094,345.659,346.238"/>
				<path fill="#576DAA" d="M339.681,346.238c0-104.552-84.858-189.415-189.412-189.415c-104.558,0-189.417,84.863-189.417,189.415
					c0,104.56,84.858,189.415,189.417,189.415C254.822,535.653,339.681,450.798,339.681,346.238"/>
				<path fill="#586EAB" d="M333.708,346.238c0-101.256-82.182-183.439-183.439-183.439c-101.259,0-183.44,82.184-183.44,183.439
					c0,101.264,82.181,183.441,183.44,183.441C251.526,529.68,333.708,447.502,333.708,346.238"/>
				<path fill="#596FAC" d="M327.738,346.238c0-97.963-79.514-177.47-177.476-177.47c-97.96,0-177.468,79.507-177.468,177.47
					c0,97.965,79.507,177.472,177.468,177.472C248.23,523.71,327.738,444.203,327.738,346.238"/>
				<path fill="#5970AD" d="M321.768,346.238c0-94.669-76.839-171.497-171.499-171.497c-94.667,0-171.499,76.828-171.499,171.497
					c0,94.666,76.832,171.496,171.499,171.496C244.929,517.734,321.768,440.904,321.768,346.238"/>
				<path fill="#5A71AE" d="M315.795,346.238c0-91.367-74.159-165.521-165.526-165.521c-91.369,0-165.521,74.154-165.521,165.521
					c0,91.372,74.155,165.523,165.521,165.523C241.636,511.762,315.795,437.61,315.795,346.238"/>
				<path fill="#5B72AF" d="M309.822,346.238c0-88.071-71.482-159.551-159.554-159.551c-88.072,0-159.545,71.479-159.545,159.551
					c0,88.076,71.475,159.551,159.545,159.551C238.337,505.789,309.822,434.314,309.822,346.238"/>
				<path fill="#5B72B0" d="M303.844,346.238c0-84.775-68.8-153.581-153.581-153.581c-84.771,0-153.576,68.806-153.576,153.581
					c0,84.774,68.803,153.583,153.576,153.583C235.044,499.821,303.844,431.013,303.844,346.238"/>
				<path fill="#5C73B1" d="M297.871,346.238c0-81.479-66.126-147.605-147.603-147.605c-81.48,0-147.609,66.126-147.609,147.605
					c0,81.479,66.129,147.604,147.609,147.604C231.745,493.843,297.871,427.717,297.871,346.238"/>
				<path fill="#5D74B2" d="M291.9,346.238c0-78.178-63.451-141.633-141.632-141.633c-78.182,0-141.63,63.455-141.63,141.633
					c0,78.183,63.452,141.632,141.63,141.632C228.446,487.87,291.9,424.421,291.9,346.238"/>
				<path fill="#5E75B3" d="M285.928,346.238c0-74.882-60.777-135.654-135.659-135.654c-74.886,0-135.661,60.772-135.661,135.654
					c0,74.884,60.775,135.656,135.661,135.656C225.15,481.895,285.928,421.122,285.928,346.238"/>
				<path fill="#5E76B4" d="M279.952,346.238c0-71.586-58.101-129.687-129.684-129.687c-71.587,0-129.689,58.101-129.689,129.687
					c0,71.588,58.102,129.686,129.689,129.686C221.857,475.924,279.952,417.826,279.952,346.238"/>
				<path fill="#5F77B5" d="M273.985,346.238c0-68.29-55.43-123.714-123.717-123.714c-68.29,0-123.713,55.424-123.713,123.714
					c0,68.295,55.424,123.713,123.713,123.713C218.556,469.951,273.985,414.533,273.985,346.238"/>
				<path fill="#6078B7" d="M268.012,346.238c0-64.994-52.749-117.741-117.743-117.741c-64.991,0-117.741,52.753-117.741,117.741
					c0,64.993,52.75,117.74,117.741,117.74C215.263,463.979,268.012,411.237,268.012,346.238"/>
				<path fill="#6179B8" d="M262.039,346.238c0-61.692-50.075-111.766-111.771-111.766c-61.695,0-111.769,50.073-111.769,111.766
					c0,61.691,50.077,111.768,111.769,111.768C211.967,458.006,262.039,407.936,262.039,346.238"/>
				<path fill="#617AB9" d="M256.063,346.238c0-58.396-47.396-105.795-105.801-105.795c-58.396,0-105.793,47.393-105.793,105.795
					c0,58.401,47.395,105.797,105.793,105.797C208.668,452.035,256.063,404.64,256.063,346.238"/>
				<path fill="#627BBA" d="M250.094,346.238c0-55.101-44.723-99.822-99.825-99.822c-55.105,0-99.823,44.719-99.823,99.822
					c0,55.105,44.718,99.821,99.823,99.821C205.371,446.06,250.094,401.344,250.094,346.238"/>
				<path fill="#637CBB" d="M244.118,346.238c0-51.802-42.043-93.85-93.85-93.85s-93.852,42.045-93.852,93.85
					c0,51.804,42.045,93.849,93.852,93.849S244.118,398.048,244.118,346.238"/>
			</g>
		</g>
	</g>
</g>
<g opacity="0.2">
	<path fill="#FFFFFF" d="M-251.137,88.81c109.543,41.062,246.846,65.479,395.92,65.479c148.353,0,285.093-24.198,394.407-64.928
		v-271.863c0-37.862-30.733-68.593-68.594-68.593h-653.144c-37.859,0-68.59,30.731-68.59,68.593V88.81L-251.137,88.81z"/>
</g>
<g>
	<path fill="#FFFFFF" d="M115.973,30.824h74.08v-33.61v-32.922v-5.492c0-31.69,0.816-80.664,23.868-110.981
		c24.278-32.104,57.622-53.913,114.966-53.913c93.417,0,132.791,13.304,132.791,13.304L443.157-83.039
		c0,0-30.867-8.922-59.677-8.922c-28.808,0-54.599,10.29-54.599,39.098v11.661V-2.79v33.607h118.113l-8.231,107.139H328.882v372.322
		H190.047V137.963h-74.079L115.973,30.824L115.973,30.824z"/>
</g>
<g opacity="0.2">
	<path fill="#FFFFFF" d="M-228.362,384.075c0-30.183,24.552-54.87,54.872-54.87h631.052c30.186,0,54.874,24.688,54.874,54.87v71.478
		c0,30.316-24.688,54.873-54.874,54.873H-173.49c-30.32,0-54.872-24.557-54.872-54.873V384.075L-228.362,384.075z"/>
</g>
</svg>
