<?xml version="1.0" encoding="utf-8"?>
<!-- Generator: Adobe Illustrator 15.0.0, SVG Export Plug-In . SVG Version: 6.00 Build 0)  -->
<!DOCTYPE svg PUBLIC "-//W3C//DTD SVG 1.1//EN" "http://www.w3.org/Graphics/SVG/1.1/DTD/svg11.dtd">
<svg version="1.1" id="Layer_1" xmlns="http://www.w3.org/2000/svg" xmlns:xlink="http://www.w3.org/1999/xlink" x="0px" y="0px"
	 width="288.051px" height="288px" viewBox="0 0 288.051 288" enable-background="new 0 0 288.051 288" xml:space="preserve">
<g>
	<g>
		<defs>
			<path id="SVGID_1_" d="M9.38,32.75c0-12.901,10.471-23.372,23.372-23.372h222.547c12.9,0,23.372,10.471,23.372,23.372v222.5
				c0,12.947-10.472,23.372-23.372,23.372H32.751c-12.901,0-23.372-10.425-23.372-23.372V32.75L9.38,32.75z"/>
		</defs>
		<clipPath id="SVGID_2_">
			<use xlink:href="#SVGID_1_"  overflow="visible"/>
		</clipPath>
		<g clip-path="url(#SVGID_2_)">
			<path fill="#283165" d="M385.714,212.909c0-132.238-107.324-239.561-239.562-239.561c-132.238,0-239.562,107.323-239.562,239.561
				c0,132.238,107.323,239.562,239.562,239.562C278.39,452.471,385.714,345.147,385.714,212.909"/>
			<path fill="#283165" d="M383.679,212.909c0-131.114-106.412-237.526-237.526-237.526c-131.116,0-237.526,106.412-237.526,237.526
				c0,131.115,106.41,237.526,237.526,237.526C277.267,450.436,383.679,344.024,383.679,212.909"/>
			<path fill="#293266" d="M381.644,212.909c0-129.99-105.501-235.491-235.492-235.491c-129.992,0-235.491,105.5-235.491,235.491
				c0,129.992,105.5,235.492,235.491,235.492C276.144,448.401,381.644,342.901,381.644,212.909"/>
			<path fill="#293267" d="M379.608,212.909c0-128.867-104.589-233.456-233.456-233.456c-128.868,0-233.457,104.589-233.457,233.456
				c0,128.87,104.588,233.457,233.457,233.457C275.02,446.366,379.608,341.779,379.608,212.909"/>
			<path fill="#2A3367" d="M377.573,212.909c0-127.744-103.677-231.42-231.421-231.42c-127.746,0-231.42,103.677-231.42,231.42
				c0,127.745,103.675,231.421,231.42,231.421C273.896,444.33,377.573,340.654,377.573,212.909"/>
			<path fill="#2A3368" d="M375.538,212.909c0-126.62-102.766-229.385-229.386-229.385C19.53-16.476-83.232,86.289-83.232,212.909
				c0,126.622,102.764,229.386,229.385,229.386C272.772,442.295,375.538,339.531,375.538,212.909"/>
			<path fill="#2B3468" d="M373.503,212.909c0-125.497-101.854-227.35-227.351-227.35c-125.498,0-227.351,101.853-227.351,227.35
				c0,125.498,101.852,227.352,227.35,227.352C271.649,440.26,373.503,338.407,373.503,212.909"/>
			<path fill="#2B3469" d="M371.469,212.909c0-124.374-100.943-225.315-225.316-225.315c-124.374,0-225.315,100.942-225.315,225.315
				c0,124.374,100.941,225.315,225.315,225.315C270.525,438.225,371.469,337.283,371.469,212.909"/>
			<path fill="#2C356A" d="M369.434,212.909c0-123.25-100.031-223.279-223.281-223.279c-123.251,0-223.28,100.03-223.28,223.279
				c0,123.251,100.028,223.281,223.28,223.281C269.402,436.19,369.434,336.16,369.434,212.909"/>
			<path fill="#2C356A" d="M367.397,212.909c0-122.127-99.118-221.244-221.245-221.244c-122.128,0-221.244,99.117-221.244,221.244
				c0,122.129,99.116,221.245,221.244,221.245C268.279,434.154,367.397,335.038,367.397,212.909"/>
			<path fill="#2D366B" d="M365.362,212.909c0-121.003-98.207-219.21-219.21-219.21c-121.005,0-219.21,98.207-219.21,219.21
				c0,121.006,98.205,219.21,219.209,219.21S365.362,333.915,365.362,212.909"/>
			<path fill="#2D376C" d="M363.326,212.909c0-119.879-97.293-217.174-217.175-217.174c-119.88,0-217.174,97.295-217.174,217.174
				c0,119.881,97.293,217.175,217.175,217.175C266.033,430.084,363.326,332.79,363.326,212.909"/>
			<path fill="#2D376C" d="M361.292,212.909c0-118.756-96.383-215.139-215.14-215.139s-215.14,96.383-215.14,215.139
				c0,118.758,96.383,215.141,215.14,215.141S361.292,331.667,361.292,212.909"/>
			<path fill="#2E386D" d="M359.258,212.909c0-117.633-95.473-213.104-213.105-213.104c-117.635,0-213.103,95.471-213.103,213.104
				c0,117.634,95.468,213.105,213.103,213.105C263.785,426.015,359.258,330.543,359.258,212.909"/>
			<path fill="#2E386E" d="M357.222,212.909C357.222,96.4,262.662,1.84,146.152,1.84c-116.511,0-211.07,94.559-211.07,211.069
				c0,116.511,94.559,211.069,211.069,211.069C262.662,423.979,357.222,329.42,357.222,212.909"/>
			<path fill="#2F396E" d="M355.187,212.909c0-115.386-93.648-209.034-209.035-209.034c-115.386,0-209.034,93.647-209.034,209.034
				c0,115.387,93.647,209.034,209.035,209.034C261.54,421.943,355.187,328.296,355.187,212.909"/>
			<path fill="#2F396F" d="M353.152,212.909c0-114.263-92.737-206.999-207-206.999c-114.265,0-206.999,92.736-206.999,206.999
				c0,114.265,92.734,206.999,206.999,206.999C260.415,419.908,353.152,327.174,353.152,212.909"/>
			<path fill="#303A70" d="M351.116,212.909c0-113.139-91.823-204.963-204.964-204.963c-113.141,0-204.963,91.823-204.963,204.963
				c0,113.142,91.823,204.964,204.963,204.964C259.293,417.873,351.116,326.049,351.116,212.909"/>
			<path fill="#303B70" d="M349.082,212.909c0-112.016-90.913-202.928-202.93-202.928c-112.018,0-202.929,90.912-202.929,202.928
				c0,112.017,90.911,202.93,202.928,202.93C258.169,415.839,349.082,324.926,349.082,212.909"/>
			<path fill="#313B71" d="M347.047,212.909c0-110.893-90.002-200.894-200.896-200.894c-110.893,0-200.893,90.001-200.893,200.894
				c0,110.894,90,200.895,200.894,200.895C257.045,413.804,347.047,323.803,347.047,212.909"/>
			<path fill="#313C72" d="M345.012,212.909c0-109.769-89.09-198.858-198.859-198.858c-109.771,0-198.858,89.089-198.858,198.858
				c0,109.771,89.087,198.859,198.858,198.859C255.922,411.769,345.012,322.68,345.012,212.909"/>
			<path fill="#323C73" d="M342.976,212.909c0-108.646-88.177-196.824-196.823-196.824c-108.647,0-196.822,88.178-196.822,196.824
				c0,108.647,88.175,196.823,196.822,196.823C254.799,409.732,342.976,321.557,342.976,212.909"/>
			<path fill="#323D73" d="M340.94,212.909c0-107.522-87.267-194.788-194.788-194.788c-107.524,0-194.787,87.266-194.787,194.788
				c0,107.524,87.264,194.788,194.787,194.788C253.674,407.697,340.94,320.434,340.94,212.909"/>
			<path fill="#333E74" d="M338.905,212.909c0-106.399-86.354-192.753-192.754-192.753c-106.4,0-192.753,86.354-192.753,192.753
				c0,106.401,86.353,192.754,192.753,192.754C252.551,405.663,338.905,319.309,338.905,212.909"/>
			<path fill="#333E75" d="M336.871,212.91c0-105.276-85.442-190.718-190.719-190.718c-105.277,0-190.718,85.442-190.718,190.718
				c0,105.276,85.441,190.718,190.718,190.718C251.429,403.628,336.871,318.187,336.871,212.91"/>
			<path fill="#343F76" d="M334.836,212.909c0-104.152-84.53-188.683-188.684-188.683c-104.154,0-188.682,84.53-188.682,188.683
				c0,104.154,84.528,188.684,188.682,188.684C250.306,401.593,334.836,317.063,334.836,212.909"/>
			<path fill="#344076" d="M332.8,212.909c0-103.029-83.618-186.647-186.647-186.647c-103.03,0-186.647,83.619-186.647,186.647
				c0,103.03,83.617,186.647,186.647,186.647C249.182,399.557,332.8,315.939,332.8,212.909"/>
			<path fill="#354077" d="M330.765,212.909c0-101.905-82.707-184.613-184.613-184.613S-38.461,111.004-38.461,212.909
				c0,101.906,82.707,184.613,184.613,184.613S330.765,314.815,330.765,212.909"/>
			<path fill="#354178" d="M328.73,212.909c0-100.782-81.796-182.577-182.578-182.577c-100.784,0-182.577,81.795-182.577,182.577
				c0,100.783,81.793,182.578,182.577,182.578C246.935,395.487,328.73,313.692,328.73,212.909"/>
			<path fill="#364179" d="M326.694,212.909c0-99.659-80.883-180.542-180.542-180.542c-99.66,0-180.542,80.884-180.542,180.542
				c0,99.66,80.883,180.543,180.542,180.543C245.812,393.452,326.694,312.569,326.694,212.909"/>
			<path fill="#364279" d="M324.659,212.908c0-98.534-79.972-178.505-178.507-178.505c-98.536,0-178.506,79.971-178.506,178.505
				c0,98.537,79.97,178.509,178.506,178.509C244.688,391.417,324.659,311.445,324.659,212.908"/>
			<path fill="#37437A" d="M322.625,212.909c0-97.412-79.061-176.472-176.474-176.472c-97.413,0-176.472,79.06-176.472,176.472
				c0,97.414,79.058,176.474,176.472,176.474C243.564,389.383,322.625,310.322,322.625,212.909"/>
			<path fill="#37437B" d="M320.59,212.909c0-96.288-78.148-174.436-174.438-174.436c-96.29,0-174.437,78.148-174.437,174.436
				c0,96.29,78.147,174.438,174.437,174.438C242.441,387.347,320.59,309.199,320.59,212.909"/>
			<path fill="#38447C" d="M318.554,212.909c0-95.165-77.235-172.402-172.401-172.402S-26.249,117.744-26.249,212.909
				c0,95.167,77.235,172.401,172.401,172.401S318.554,308.076,318.554,212.909"/>
			<path fill="#38457C" d="M316.519,212.909c0-94.041-76.325-170.366-170.366-170.366c-94.043,0-170.367,76.325-170.367,170.366
				c0,94.044,76.324,170.366,170.367,170.366C240.195,383.275,316.519,306.953,316.519,212.909"/>
			<path fill="#39457D" d="M314.484,212.909c0-92.919-75.414-168.332-168.333-168.332c-92.919,0-168.332,75.414-168.332,168.332
				c0,92.919,75.413,168.332,168.332,168.332C239.07,381.241,314.484,305.828,314.484,212.909"/>
			<path fill="#39467E" d="M312.449,212.909c0-91.794-74.501-166.296-166.297-166.296S-20.144,121.114-20.144,212.909
				c0,91.796,74.499,166.297,166.296,166.297C237.947,379.206,312.449,304.705,312.449,212.909"/>
			<path fill="#3A477F" d="M310.414,212.909c0-90.671-73.59-164.261-164.262-164.261c-90.673,0-164.261,73.59-164.261,164.261
				c0,90.673,73.588,164.262,164.261,164.262C236.824,377.171,310.414,303.582,310.414,212.909"/>
			<path fill="#3A477F" d="M308.379,212.909c0-89.548-72.679-162.226-162.227-162.226c-89.549,0-162.226,72.678-162.226,162.226
				c0,89.55,72.676,162.226,162.226,162.226C235.7,375.135,308.379,302.459,308.379,212.909"/>
			<path fill="#3B4880" d="M306.343,212.909c0-88.425-71.767-160.191-160.191-160.191c-88.426,0-160.191,71.767-160.191,160.191
				c0,88.427,71.765,160.191,160.191,160.191S306.343,301.336,306.343,212.909"/>
			<path fill="#3B4981" d="M304.309,212.909c0-87.301-70.854-158.155-158.156-158.155c-87.303,0-158.156,70.854-158.156,158.155
				c0,87.303,70.854,158.156,158.156,158.156C233.454,371.065,304.309,300.212,304.309,212.909"/>
			<path fill="#3C4982" d="M302.273,212.909c0-86.178-69.942-156.12-156.121-156.12S-9.968,126.731-9.968,212.909
				c0,86.18,69.942,156.121,156.121,156.121S302.273,299.089,302.273,212.909"/>
			<path fill="#3C4A83" d="M300.237,212.908c0-85.054-69.031-154.084-154.085-154.084c-85.056,0-154.085,69.03-154.085,154.084
				c0,85.056,69.03,154.087,154.085,154.087C231.206,366.995,300.237,297.964,300.237,212.908"/>
			<path fill="#3D4B83" d="M298.203,212.909c0-83.931-68.12-152.05-152.052-152.05s-152.05,68.119-152.05,152.05
				c0,83.933,68.118,152.052,152.05,152.052C230.083,364.961,298.203,296.842,298.203,212.909"/>
			<path fill="#3D4B84" d="M296.168,212.91c0-82.808-67.208-150.015-150.016-150.015S-3.863,130.102-3.863,212.91
				c0,82.808,67.208,150.015,150.015,150.015S296.168,295.718,296.168,212.91"/>
			<path fill="#3E4C85" d="M294.133,212.909c0-81.684-66.296-147.98-147.98-147.98c-81.686,0-147.979,66.296-147.979,147.98
				c0,81.686,66.293,147.98,147.979,147.98C227.837,360.89,294.133,294.595,294.133,212.909"/>
			<path fill="#3E4D86" d="M292.097,212.909c0-80.562-65.383-145.944-145.944-145.944c-80.563,0-145.945,65.383-145.945,145.944
				c0,80.563,65.383,145.944,145.945,145.944S292.097,293.472,292.097,212.909"/>
			<path fill="#3F4D86" d="M290.063,212.909C290.063,133.471,225.59,69,146.151,69S2.241,133.471,2.241,212.909
				c0,79.44,64.472,143.91,143.911,143.91S290.063,292.35,290.063,212.909"/>
			<path fill="#3F4E87" d="M288.027,212.909c0-78.314-63.561-141.874-141.875-141.874c-78.316,0-141.875,63.56-141.875,141.874
				c0,78.315,63.559,141.876,141.875,141.876C224.467,354.785,288.027,291.225,288.027,212.909"/>
			<path fill="#404F88" d="M285.992,212.909c0-77.19-62.648-139.839-139.84-139.839c-77.192,0-139.84,62.649-139.84,139.839
				c0,77.192,62.648,139.84,139.84,139.84C223.344,352.749,285.992,290.102,285.992,212.909"/>
			<path fill="#415089" d="M283.957,212.909c0-76.068-61.737-137.804-137.805-137.804c-76.068,0-137.804,61.736-137.804,137.804
				c0,76.068,61.735,137.804,137.804,137.804C222.22,350.713,283.957,288.978,283.957,212.909"/>
			<path fill="#41508A" d="M281.921,212.909c0-74.944-60.825-135.77-135.77-135.77c-74.945,0-135.769,60.826-135.769,135.77
				c0,74.944,60.824,135.77,135.769,135.77C221.097,348.679,281.921,287.854,281.921,212.909"/>
			<path fill="#42518B" d="M279.887,212.909c0-73.82-59.914-133.733-133.734-133.733c-73.822,0-133.734,59.914-133.734,133.733
				c0,73.821,59.913,133.734,133.734,133.734C219.973,346.644,279.887,286.73,279.887,212.909"/>
			<path fill="#42528B" d="M277.852,212.909c0-72.697-59.002-131.699-131.699-131.699c-72.698,0-131.699,59.002-131.699,131.699
				c0,72.699,59.001,131.7,131.699,131.7C218.85,344.609,277.852,285.608,277.852,212.909"/>
			<path fill="#43538C" d="M275.817,212.909c0-71.575-58.09-129.663-129.665-129.663c-71.576,0-129.664,58.089-129.664,129.663
				c0,71.574,58.089,129.664,129.664,129.664C217.728,342.573,275.817,284.485,275.817,212.909"/>
			<path fill="#43538D" d="M273.781,212.909c0-70.45-57.178-127.629-127.63-127.629c-70.451,0-127.629,57.179-127.629,127.629
				c0,70.451,57.178,127.63,127.63,127.63C216.604,340.537,273.781,283.36,273.781,212.909"/>
			<path fill="#44548E" d="M271.747,212.909c0-69.327-56.268-125.593-125.595-125.593c-69.328,0-125.594,56.267-125.594,125.593
				c0,69.328,56.266,125.594,125.594,125.594C215.479,338.503,271.747,282.237,271.747,212.909"/>
			<path fill="#45558F" d="M269.711,212.909c0-68.203-55.354-123.558-123.559-123.558S22.594,144.706,22.594,212.909
				c0,68.205,55.354,123.559,123.559,123.559S269.711,281.114,269.711,212.909"/>
			<path fill="#455690" d="M267.676,212.909c0-67.08-54.442-121.523-121.523-121.523c-67.082,0-121.523,54.443-121.523,121.523
				c0,67.082,54.441,121.524,121.523,121.524C213.233,334.434,267.676,279.991,267.676,212.909"/>
			<path fill="#465791" d="M265.64,212.909c0-65.957-53.531-119.488-119.488-119.488c-65.958,0-119.489,53.531-119.489,119.488
				c0,65.959,53.531,119.488,119.489,119.488C212.11,332.397,265.64,278.868,265.64,212.909"/>
			<path fill="#465791" d="M263.605,212.909c0-64.834-52.62-117.452-117.453-117.452c-64.835,0-117.454,52.618-117.454,117.452
				c0,64.835,52.619,117.454,117.454,117.454C210.985,330.363,263.605,277.744,263.605,212.909"/>
			<path fill="#475892" d="M261.57,212.909c0-63.709-51.707-115.417-115.418-115.417c-63.711,0-115.418,51.708-115.418,115.417
				c0,63.712,51.707,115.418,115.418,115.418C209.863,328.327,261.57,276.621,261.57,212.909"/>
			<path fill="#475993" d="M259.535,212.909c0-62.586-50.795-113.382-113.383-113.382c-62.587,0-113.382,50.796-113.382,113.382
				c0,62.589,50.794,113.383,113.382,113.383C208.74,326.292,259.535,275.498,259.535,212.909"/>
			<path fill="#485A94" d="M257.499,212.909c0-61.463-49.883-111.347-111.347-111.347S34.804,151.446,34.804,212.909
				c0,61.465,49.884,111.349,111.348,111.349S257.499,274.374,257.499,212.909"/>
			<path fill="#495A95" d="M255.466,212.909c0-60.34-48.974-109.313-109.313-109.313c-60.341,0-109.313,48.973-109.313,109.313
				c0,60.342,48.971,109.313,109.313,109.313C206.492,322.222,255.466,273.251,255.466,212.909"/>
			<path fill="#495B96" d="M253.43,212.909c0-59.216-48.061-107.276-107.277-107.276c-59.218,0-107.277,48.061-107.277,107.276
				c0,59.218,48.059,107.278,107.277,107.278C205.369,320.188,253.43,272.127,253.43,212.909"/>
			<path fill="#4A5C97" d="M251.395,212.909c0-58.094-47.148-105.242-105.242-105.242c-58.094,0-105.242,47.148-105.242,105.242
				c0,58.095,47.149,105.242,105.242,105.242C204.246,318.151,251.395,271.004,251.395,212.909"/>
			<path fill="#4A5D98" d="M249.359,212.909c0-56.97-46.238-103.206-103.207-103.206c-56.97,0-103.207,46.236-103.207,103.206
				c0,56.971,46.237,103.206,103.207,103.206C203.121,316.115,249.359,269.88,249.359,212.909"/>
			<path fill="#4B5E99" d="M247.325,212.909c0-55.847-45.326-101.171-101.173-101.171c-55.847,0-101.172,45.325-101.172,101.171
				c0,55.849,45.324,101.172,101.172,101.172C201.999,314.081,247.325,268.758,247.325,212.909"/>
			<path fill="#4C5E9A" d="M245.289,212.909c0-54.723-44.413-99.137-99.137-99.137c-54.723,0-99.138,44.414-99.138,99.137
				c0,54.725,44.415,99.138,99.138,99.138C200.876,312.047,245.289,267.634,245.289,212.909"/>
			<path fill="#4C5F9B" d="M243.255,212.909c0-53.6-43.502-97.102-97.103-97.102S49.05,159.31,49.05,212.909
				c0,53.601,43.501,97.103,97.102,97.103S243.255,266.51,243.255,212.909"/>
			<path fill="#4D609B" d="M241.22,212.909c0-52.476-42.592-95.066-95.067-95.066c-52.477,0-95.066,42.591-95.066,95.066
				c0,52.478,42.59,95.066,95.066,95.066C198.63,307.976,241.22,265.387,241.22,212.909"/>
			<path fill="#4E619C" d="M239.184,212.909c0-51.353-41.677-93.032-93.031-93.032c-51.354,0-93.033,41.679-93.033,93.032
				c0,51.354,41.679,93.032,93.033,93.032C197.505,305.941,239.184,264.263,239.184,212.909"/>
			<path fill="#4E629D" d="M237.149,212.909c0-50.229-40.768-90.996-90.997-90.996c-50.23,0-90.997,40.766-90.997,90.996
				c0,50.23,40.765,90.996,90.997,90.996C196.382,303.905,237.149,263.14,237.149,212.909"/>
			<path fill="#4F629E" d="M235.113,212.909c0-49.105-39.854-88.961-88.961-88.961s-88.961,39.854-88.961,88.961
				s39.855,88.962,88.961,88.962S235.113,262.017,235.113,212.909"/>
			<path fill="#50639F" d="M233.078,212.909c0-47.982-38.943-86.925-86.926-86.925c-47.983,0-86.926,38.943-86.926,86.925
				c0,47.984,38.943,86.927,86.926,86.927C194.135,299.836,233.078,260.894,233.078,212.909"/>
			<path fill="#5064A0" d="M231.044,212.909c0-46.859-38.032-84.891-84.893-84.891S61.26,166.05,61.26,212.909
				c0,46.86,38.031,84.893,84.892,84.893C193.013,297.802,231.044,259.77,231.044,212.909"/>
			<path fill="#5165A1" d="M229.01,212.909c0-45.736-37.121-82.854-82.857-82.854c-45.737,0-82.856,37.119-82.856,82.854
				c0,45.736,37.119,82.856,82.856,82.856C191.889,295.766,229.01,258.646,229.01,212.909"/>
			<path fill="#5266A2" d="M226.974,212.909c0-44.612-36.208-80.821-80.821-80.821c-44.614,0-80.82,36.208-80.82,80.821
				c0,44.614,36.207,80.821,80.82,80.821C190.766,293.73,226.974,257.523,226.974,212.909"/>
			<path fill="#5267A3" d="M224.938,212.909c0-43.488-35.298-78.785-78.786-78.785c-43.491,0-78.785,35.297-78.785,78.785
				c0,43.491,35.295,78.786,78.785,78.786C189.641,291.695,224.938,256.398,224.938,212.909"/>
			<path fill="#5368A4" d="M222.903,212.909c0-42.365-34.385-76.75-76.752-76.75c-42.366,0-76.75,34.385-76.75,76.75
				c0,42.366,34.383,76.751,76.75,76.751S222.903,255.275,222.903,212.909"/>
			<path fill="#5468A5" d="M220.868,212.909c0-41.243-33.474-74.715-74.716-74.715s-74.716,33.472-74.716,74.715
				s33.474,74.716,74.716,74.716S220.868,254.152,220.868,212.909"/>
			<path fill="#5469A6" d="M218.833,212.909c0-40.119-32.562-72.68-72.681-72.68c-40.12,0-72.68,32.561-72.68,72.68
				c0,40.12,32.561,72.681,72.68,72.681C186.271,285.59,218.833,253.029,218.833,212.909"/>
			<path fill="#556AA7" d="M216.798,212.909c0-38.995-31.649-70.644-70.646-70.644c-38.995,0-70.645,31.649-70.645,70.644
				c0,38.997,31.649,70.645,70.645,70.645C185.148,283.554,216.798,251.906,216.798,212.909"/>
			<path fill="#566BA8" d="M214.762,212.909c0-37.872-30.737-68.61-68.61-68.61s-68.611,30.738-68.611,68.61
				c0,37.875,30.738,68.61,68.611,68.61C184.026,281.52,214.762,250.784,214.762,212.909"/>
			<path fill="#566CA9" d="M212.728,212.909c0-36.749-29.826-66.575-66.575-66.575s-66.576,29.826-66.576,66.575
				c0,36.75,29.827,66.574,66.576,66.574S212.728,249.659,212.728,212.909"/>
			<path fill="#576DAA" d="M210.691,212.909c0-35.624-28.913-64.54-64.539-64.54s-64.54,28.916-64.54,64.54
				c0,35.627,28.914,64.54,64.54,64.54S210.691,248.536,210.691,212.909"/>
			<path fill="#586EAB" d="M208.657,212.909c0-34.501-28.002-62.504-62.505-62.504c-34.502,0-62.504,28.003-62.504,62.504
				c0,34.504,28.002,62.505,62.504,62.505C180.655,275.414,208.657,247.413,208.657,212.909"/>
			<path fill="#596FAC" d="M206.622,212.909c0-33.379-27.092-60.47-60.471-60.47s-60.47,27.091-60.47,60.47
				c0,33.38,27.091,60.471,60.47,60.471C179.531,273.38,206.622,246.289,206.622,212.909"/>
			<path fill="#5970AD" d="M204.588,212.909c0-32.256-26.181-58.434-58.436-58.434c-32.256,0-58.435,26.178-58.435,58.434
				s26.179,58.435,58.435,58.435C178.407,271.344,204.588,245.165,204.588,212.909"/>
			<path fill="#5A71AE" d="M202.552,212.909c0-31.132-25.268-56.398-56.399-56.398c-31.133,0-56.399,25.267-56.399,56.398
				c0,31.134,25.267,56.399,56.399,56.399C177.284,269.309,202.552,244.043,202.552,212.909"/>
			<path fill="#5B72AF" d="M200.517,212.909c0-30.008-24.356-54.364-54.364-54.364c-30.01,0-54.363,24.356-54.363,54.364
				c0,30.011,24.354,54.364,54.363,54.364C176.16,267.273,200.517,242.92,200.517,212.909"/>
			<path fill="#5B72B0" d="M198.48,212.909c0-28.885-23.442-52.33-52.329-52.33c-28.885,0-52.329,23.445-52.329,52.33
				c0,28.886,23.443,52.331,52.329,52.331C175.038,265.24,198.48,241.795,198.48,212.909"/>
			<path fill="#5C73B1" d="M196.446,212.909c0-27.762-22.532-50.294-50.294-50.294c-27.763,0-50.295,22.532-50.295,50.294
				c0,27.763,22.532,50.294,50.295,50.294C173.914,263.203,196.446,240.672,196.446,212.909"/>
			<path fill="#5D74B2" d="M194.411,212.909c0-26.638-21.62-48.258-48.259-48.258s-48.258,21.62-48.258,48.258
				c0,26.64,21.62,48.259,48.258,48.259S194.411,239.549,194.411,212.909"/>
			<path fill="#5E75B3" d="M192.376,212.909c0-25.515-20.709-46.222-46.224-46.222c-25.516,0-46.224,20.707-46.224,46.222
				c0,25.516,20.708,46.223,46.224,46.223C171.667,259.132,192.376,238.425,192.376,212.909"/>
			<path fill="#5E76B4" d="M190.34,212.909c0-24.392-19.797-44.188-44.188-44.188c-24.392,0-44.189,19.796-44.189,44.188
				c0,24.393,19.797,44.188,44.189,44.188C170.545,257.098,190.34,237.302,190.34,212.909"/>
			<path fill="#5F77B5" d="M188.306,212.909c0-23.269-18.886-42.153-42.153-42.153c-23.269,0-42.154,18.885-42.154,42.153
				c0,23.27,18.885,42.153,42.154,42.153C169.42,255.063,188.306,236.179,188.306,212.909"/>
			<path fill="#6078B7" d="M186.271,212.909c0-22.146-17.973-40.118-40.118-40.118c-22.145,0-40.119,17.975-40.119,40.118
				c0,22.146,17.974,40.118,40.119,40.118C168.298,253.027,186.271,235.056,186.271,212.909"/>
			<path fill="#6179B8" d="M184.236,212.909c0-21.021-17.062-38.082-38.084-38.082c-21.021,0-38.083,17.062-38.083,38.082
				c0,21.021,17.063,38.083,38.083,38.083C167.175,250.992,184.236,233.931,184.236,212.909"/>
			<path fill="#617AB9" d="M182.2,212.909c0-19.897-16.149-36.048-36.049-36.048c-19.898,0-36.048,16.149-36.048,36.048
				c0,19.899,16.149,36.049,36.048,36.049C166.051,248.958,182.2,232.809,182.2,212.909"/>
			<path fill="#627BBA" d="M180.166,212.909c0-18.774-15.239-34.012-34.014-34.012c-18.776,0-34.013,15.237-34.013,34.012
				c0,18.776,15.237,34.013,34.013,34.013C164.927,246.922,180.166,231.686,180.166,212.909"/>
			<path fill="#637CBB" d="M178.13,212.909c0-17.65-14.326-31.978-31.978-31.978c-17.652,0-31.978,14.327-31.978,31.978
				c0,17.652,14.326,31.978,31.978,31.978C163.804,244.887,178.13,230.562,178.13,212.909"/>
		</g>
	</g>
</g>
<g opacity="0.2">
	<path fill="#FFFFFF" d="M9.38,125.195c37.325,13.991,84.109,22.311,134.903,22.311c50.549,0,97.141-8.245,134.388-22.123V32.75
		c0-12.901-10.472-23.372-23.372-23.372H32.751C19.851,9.378,9.38,19.849,9.38,32.75V125.195L9.38,125.195z"/>
</g>
<g>
	<path fill="#FFFFFF" d="M134.467,105.437h25.241V93.985V82.767v-1.871c0-10.798,0.279-27.485,8.133-37.815
		c8.273-10.939,19.633-18.37,39.172-18.37c31.831,0,45.247,4.533,45.247,4.533l-6.311,37.396c0,0-10.517-3.04-20.333-3.04
		s-18.604,3.506-18.604,13.322v3.973v13.089v11.451h40.245l-2.805,36.506h-37.44v126.863h-47.306V141.943h-25.241L134.467,105.437
		L134.467,105.437z"/>
</g>
<g opacity="0.2">
	<path fill="#FFFFFF" d="M17.14,225.802c0-10.284,8.366-18.697,18.697-18.697h215.021c10.284,0,18.697,8.413,18.697,18.697v24.354
		c0,10.33-8.413,18.697-18.697,18.697H35.837c-10.331,0-18.697-8.367-18.697-18.697V225.802L17.14,225.802z"/>
</g>
</svg>
