<?xml version="1.0" encoding="utf-8"?>
<!-- Generator: Adobe Illustrator 15.0.0, SVG Export Plug-In . SVG Version: 6.00 Build 0)  -->
<!DOCTYPE svg PUBLIC "-//W3C//DTD SVG 1.1//EN" "http://www.w3.org/Graphics/SVG/1.1/DTD/svg11.dtd">
<svg version="1.1" id="Layer_3" xmlns="http://www.w3.org/2000/svg" xmlns:xlink="http://www.w3.org/1999/xlink" x="0px" y="0px"
	 width="1133.859px" height="1133.859px" viewBox="0 0 1133.859 1133.859" enable-background="new 0 0 1133.859 1133.859"
	 xml:space="preserve">
<path fill="#FFFFFF" d="M1069.477,585.597L573.413,163.033l-6.484-5.524l-6.484,5.524L64.383,585.597l-20.676,17.612h27.161h153.482
	v353.732v10h10h273.996h10v-10V718.039c0-26.79,21.795-48.585,48.585-48.585s48.585,21.795,48.585,48.585v238.902v10h10h273.996h10
	v-10V603.209h153.481h27.16L1069.477,585.597z M853.46,547.156v10v353.732H671.567v-192.85c0-57.697-46.94-104.637-104.638-104.637
	c-57.697,0-104.637,46.939-104.637,104.637v192.85H280.401V557.156v-10h-10h-74.453L566.93,231.141l370.982,316.015H863.46H853.46z"
	/>
</svg>
