<?xml version="1.0" encoding="utf-8"?>
<!-- Generator: Adobe Illustrator 15.0.0, SVG Export Plug-In . SVG Version: 6.00 Build 0)  -->
<!DOCTYPE svg PUBLIC "-//W3C//DTD SVG 1.1//EN" "http://www.w3.org/Graphics/SVG/1.1/DTD/svg11.dtd">
<svg version="1.1" id="Layer_1" xmlns="http://www.w3.org/2000/svg" xmlns:xlink="http://www.w3.org/1999/xlink" x="0px" y="0px"
	 width="1133.859px" height="1133.86px" viewBox="0 0 1133.859 1133.86" enable-background="new 0 0 1133.859 1133.86"
	 xml:space="preserve">
<g>
	<g id="XMLID_1_">
		<path fill="#0290D0" d="M936.05,264.33h-522.28h-42.28c-11.65,2.17-20.86,11.38-23.03,23.03c-0.33,1.73-0.5,3.5-0.5,5.32v31.65
			c0,0.01,0,0.02,0,0.03c0,1.81,0.17,3.58,0.5,5.29c2.17,11.65,11.38,20.86,23.03,23.03h42.28h522.28c14.39,0,26.05-13.43,26.05-30
			v-28.35C962.099,277.76,950.439,264.33,936.05,264.33z"/>
		<path fill="#0290D0" d="M260.61,292.65c0,0.01,0,0.02,0,0.03v31.65c0,1.82-0.17,3.6-0.5,5.32c-0.33-1.71-0.5-3.48-0.5-5.29
			c0-0.01,0-0.02,0-0.03v-31.65c0-1.82,0.17-3.59,0.5-5.32C260.439,289.07,260.61,290.84,260.61,292.65z"/>
		<path fill="#0290D0" d="M259.61,292.68v31.65c0,0.01,0,0.02,0,0.03c-0.02,15.35-12.5,27.82-27.85,27.82h-31.65
			c-15.35,0-27.84-12.49-27.84-27.85v-31.65c0-15.36,12.49-27.85,27.84-27.85h31.65C247.119,264.83,259.61,277.32,259.61,292.68z"/>
		<path fill="#0290D0" d="M936.05,522.755h-522.28h-42.28c-11.65,2.17-20.86,11.38-23.03,23.03c-0.33,1.73-0.5,3.5-0.5,5.32v31.649
			c0,0.011,0,0.021,0,0.031c0,1.81,0.17,3.579,0.5,5.289c2.17,11.65,11.38,20.86,23.03,23.03h42.28h522.28
			c14.39,0,26.05-13.431,26.05-30v-28.35C962.099,536.185,950.439,522.755,936.05,522.755z"/>
		<path fill="#0290D0" d="M259.61,551.105v31.649c0,0.011,0,0.021,0,0.031c-0.02,15.35-12.5,27.819-27.85,27.819h-31.65
			c-15.35,0-27.84-12.49-27.84-27.851v-31.649c0-15.36,12.49-27.85,27.84-27.85h31.65
			C247.119,523.255,259.61,535.745,259.61,551.105z"/>
		<path fill="#0290D0" d="M936.05,781.18h-522.28h-42.28c-11.65,2.17-20.86,11.381-23.03,23.031c-0.33,1.729-0.5,3.5-0.5,5.319
			v31.649c0,0.011,0,0.021,0,0.031c0,1.81,0.17,3.579,0.5,5.289c2.17,11.65,11.38,20.86,23.03,23.03h42.28h522.28
			c14.39,0,26.05-13.431,26.05-30V811.18C962.099,794.611,950.439,781.18,936.05,781.18z"/>
		<path fill="#0290D0" d="M259.61,809.531v31.649c0,0.011,0,0.021,0,0.031c-0.02,15.35-12.5,27.819-27.85,27.819h-31.65
			c-15.35,0-27.84-12.49-27.84-27.851v-31.649c0-15.36,12.49-27.851,27.84-27.851h31.65
			C247.119,781.68,259.61,794.17,259.61,809.531z"/>
		<path fill="#0290D0" d="M259.61,324.36c0,1.81,0.17,3.58,0.5,5.29c-2.17,11.65-11.38,20.86-23.03,23.03h-39.27
			c-3.15,0-6.17-0.64-8.96-1.82c-9.97-4.21-17.08-15.23-17.08-28.18v-28.35c0-12.95,7.11-23.97,17.08-28.18
			c2.79-1.18,5.81-1.82,8.96-1.82h39.27c11.65,2.17,20.86,11.38,23.03,23.03c-0.33,1.73-0.5,3.5-0.5,5.32
			c0-15.36-12.49-27.85-27.85-27.85h-31.65c-15.35,0-27.84,12.49-27.84,27.85v31.65c0,15.36,12.49,27.85,27.84,27.85h31.65
			C247.11,352.18,259.59,339.71,259.61,324.36z"/>
	</g>
</g>
</svg>
