<?xml version="1.0" encoding="utf-8"?>
<!-- Generator: Adobe Illustrator 15.0.0, SVG Export Plug-In . SVG Version: 6.00 Build 0)  -->
<!DOCTYPE svg PUBLIC "-//W3C//DTD SVG 1.1//EN" "http://www.w3.org/Graphics/SVG/1.1/DTD/svg11.dtd">
<svg version="1.1" id="Layer_1" xmlns="http://www.w3.org/2000/svg" xmlns:xlink="http://www.w3.org/1999/xlink" x="0px" y="0px"
	 width="1133.859px" height="1133.86px" viewBox="0 0 1133.859 1133.86" enable-background="new 0 0 1133.859 1133.86"
	 xml:space="preserve">
<g>
	<path fill="#0290D0" d="M936.051,608.897H413.77h-42.28c-11.65,2.17-20.86,11.38-23.03,23.03c-0.33,1.729-0.5,3.5-0.5,5.32v31.649
		c0,0.01,0,0.021,0,0.031c0,1.809,0.17,3.578,0.5,5.289c2.17,11.648,11.38,20.859,23.03,23.029h42.28h522.28
		c14.39,0,26.05-13.432,26.05-30v-28.351C962.099,622.327,950.439,608.897,936.051,608.897z"/>
	<path fill="#0290D0" d="M259.61,637.248v31.649c0,0.01,0,0.021,0,0.031c-0.021,15.35-12.5,27.818-27.851,27.818H200.11
		c-15.351,0-27.84-12.49-27.84-27.852v-31.649c0-15.359,12.49-27.85,27.84-27.85h31.649
		C247.119,609.397,259.61,621.887,259.61,637.248z"/>
</g>
<g>
	<path fill="#0290D0" d="M936.051,436.614H413.77h-42.28c-11.65,2.17-20.86,11.38-23.03,23.03c-0.33,1.729-0.5,3.5-0.5,5.32v31.649
		c0,0.01,0,0.021,0,0.031c0,1.809,0.17,3.578,0.5,5.289c2.17,11.648,11.38,20.859,23.03,23.029h42.28h522.28
		c14.39,0,26.05-13.432,26.05-30v-28.35C962.099,450.043,950.439,436.614,936.051,436.614z"/>
	<path fill="#0290D0" d="M259.61,464.964v31.649c0,0.01,0,0.021,0,0.031c-0.021,15.35-12.5,27.818-27.851,27.818H200.11
		c-15.351,0-27.84-12.49-27.84-27.852v-31.649c0-15.359,12.49-27.85,27.84-27.85h31.649
		C247.119,437.114,259.61,449.604,259.61,464.964z"/>
</g>
<g>
	<path fill="#0290D0" d="M936.051,781.18H413.77h-42.28c-11.65,2.17-20.86,11.381-23.03,23.031c-0.33,1.729-0.5,3.5-0.5,5.318
		v31.648c0,0.012,0,0.021,0,0.031c0,1.811,0.17,3.58,0.5,5.289c2.17,11.65,11.38,20.861,23.03,23.031h42.28h522.28
		c14.39,0,26.05-13.432,26.05-30v-28.35C962.099,794.612,950.439,781.18,936.051,781.18z"/>
	<path fill="#0290D0" d="M259.61,809.532v31.648c0,0.012,0,0.021,0,0.031c-0.021,15.35-12.5,27.818-27.851,27.818H200.11
		c-15.351,0-27.84-12.49-27.84-27.852V809.53c0-15.359,12.49-27.852,27.84-27.852h31.649
		C247.119,781.68,259.61,794.17,259.61,809.532z"/>
</g>
<g>
	<path fill="#0290D0" d="M936.051,264.33H413.77h-42.28c-11.65,2.17-20.86,11.38-23.03,23.03c-0.33,1.73-0.5,3.5-0.5,5.32v31.65
		c0,0.01,0,0.02,0,0.03c0,1.81,0.17,3.579,0.5,5.29c2.17,11.649,11.38,20.859,23.03,23.029h42.28h522.28
		c14.39,0,26.05-13.43,26.05-30v-28.35C962.099,277.76,950.439,264.33,936.051,264.33z"/>
	<path fill="#0290D0" d="M260.61,292.65c0,0.01,0,0.02,0,0.03v31.65c0,1.82-0.17,3.6-0.5,5.32c-0.33-1.71-0.5-3.48-0.5-5.29
		c0-0.011,0-0.021,0-0.03v-31.65c0-1.82,0.17-3.59,0.5-5.32C260.439,289.07,260.61,290.84,260.61,292.65z"/>
	<path fill="#0290D0" d="M259.61,292.68v31.65c0,0.01,0,0.02,0,0.03c-0.021,15.35-12.5,27.819-27.851,27.819H200.11
		c-15.351,0-27.84-12.489-27.84-27.85v-31.65c0-15.36,12.49-27.85,27.84-27.85h31.649C247.119,264.83,259.61,277.32,259.61,292.68z"
		/>
	<path fill="#0290D0" d="M259.61,324.36c0,1.81,0.17,3.579,0.5,5.29c-2.17,11.649-11.38,20.859-23.03,23.029h-39.27
		c-3.15,0-6.17-0.64-8.96-1.819c-9.971-4.21-17.08-15.23-17.08-28.181v-28.35c0-12.95,7.109-23.97,17.08-28.18
		c2.79-1.18,5.81-1.82,8.96-1.82h39.27c11.65,2.17,20.86,11.38,23.03,23.03c-0.33,1.73-0.5,3.5-0.5,5.32
		c0-15.36-12.49-27.85-27.851-27.85H200.11c-15.351,0-27.84,12.49-27.84,27.85v31.65c0,15.359,12.49,27.85,27.84,27.85h31.649
		C247.11,352.18,259.59,339.71,259.61,324.36z"/>
</g>
</svg>
