<?xml version="1.0" encoding="utf-8"?>
<!-- Generator: Adobe Illustrator 15.0.0, SVG Export Plug-In . SVG Version: 6.00 Build 0)  -->
<!DOCTYPE svg PUBLIC "-//W3C//DTD SVG 1.1//EN" "http://www.w3.org/Graphics/SVG/1.1/DTD/svg11.dtd">
<svg version="1.1" id="Layer_1" xmlns="http://www.w3.org/2000/svg" xmlns:xlink="http://www.w3.org/1999/xlink" x="0px" y="0px"
	 width="1133.859px" height="1133.86px" viewBox="0 0 1133.859 1133.86" enable-background="new 0 0 1133.859 1133.86"
	 xml:space="preserve">
<path fill="#FFFFFF" d="M904.756,877.989L687.04,660.272c-7.468-7.475-18.895-8.715-27.688-3.748l-2.172,2.172l-7.203-7.203
	c43.71-50.5,70.154-116.355,70.154-188.387c0-159.06-128.942-288.001-288.002-288.001c-159.061,0-288.003,128.943-288.003,288.001
	c0,159.061,128.943,288.002,288.003,288.002c70.519,0,135.104-25.357,185.171-67.436l7.454,7.453l-2.167,2.17
	c-4.974,8.795-3.733,20.221,3.739,27.688L844.044,938.7c8.229,8.236,21.274,8.904,30.303,2.018l0.147,0.15l2.168-2.168
	l28.094-28.094l2.168-2.168l-0.149-0.148C913.66,899.264,912.992,886.219,904.756,877.989z M432.129,691.477
	c-126.115,0-228.352-102.41-228.352-228.741c0-126.331,102.236-228.742,228.352-228.742c126.114,0,228.353,102.411,228.353,228.742
	C660.481,589.067,558.243,691.477,432.129,691.477z"/>
</svg>
