<?xml version="1.0" encoding="utf-8"?>
<!-- Generator: Adobe Illustrator 15.0.0, SVG Export Plug-In . SVG Version: 6.00 Build 0)  -->
<!DOCTYPE svg PUBLIC "-//W3C//DTD SVG 1.1//EN" "http://www.w3.org/Graphics/SVG/1.1/DTD/svg11.dtd">
<svg version="1.1" id="Layer_1" xmlns="http://www.w3.org/2000/svg" xmlns:xlink="http://www.w3.org/1999/xlink" x="0px" y="0px"
	 width="1133.86px" height="1133.86px" viewBox="0 0 1133.86 1133.86" enable-background="new 0 0 1133.86 1133.86"
	 xml:space="preserve">
<path fill="#0290D0" d="M904.756,877.988L687.041,660.272c-7.468-7.474-18.895-8.714-27.688-3.749l-2.172,2.172l-7.203-7.202
	c43.71-50.501,70.154-116.355,70.154-188.387c0-159.06-128.942-288.002-288.002-288.002c-159.06,0-288.003,128.943-288.003,288.002
	c0,159.06,128.944,288.002,288.003,288.002c70.519,0,135.104-25.358,185.171-67.436l7.454,7.454l-2.167,2.169
	c-4.973,8.795-3.733,20.221,3.74,27.688l217.716,217.716c8.23,8.237,21.275,8.906,30.303,2.019l0.148,0.149l2.168-2.168
	l28.093-28.093l2.168-2.168l-0.149-0.149C913.661,899.265,912.993,886.219,904.756,877.988z M432.129,691.477
	c-126.115,0-228.351-102.41-228.351-228.741c0-126.331,102.236-228.742,228.351-228.742c126.115,0,228.353,102.411,228.353,228.742
	C660.481,589.066,558.244,691.477,432.129,691.477z"/>
</svg>
