<?xml version="1.0" encoding="utf-8"?>
<!-- Generator: Adobe Illustrator 15.0.0, SVG Export Plug-In . SVG Version: 6.00 Build 0)  -->
<!DOCTYPE svg PUBLIC "-//W3C//DTD SVG 1.1//EN" "http://www.w3.org/Graphics/SVG/1.1/DTD/svg11.dtd">
<svg version="1.1" id="Layer_1" xmlns="http://www.w3.org/2000/svg" xmlns:xlink="http://www.w3.org/1999/xlink" x="0px" y="0px"
	 width="1133.859px" height="1133.859px" viewBox="0 0 1133.859 1133.859" enable-background="new 0 0 1133.859 1133.859"
	 xml:space="preserve">
<path fill="#FFFFFF" d="M904.756,877.988L687.041,660.272c-7.468-7.474-18.895-8.714-27.688-3.749l-2.173,2.172l-7.202-7.202
	c43.709-50.501,70.153-116.354,70.153-188.387c0-159.061-128.942-288.002-288.002-288.002S144.127,304.047,144.127,463.106
	c0,159.06,128.944,288.002,288.003,288.002c70.519,0,135.104-25.358,185.171-67.436l7.454,7.453l-2.167,2.17
	c-4.973,8.795-3.732,20.221,3.74,27.688l217.716,217.716c8.229,8.237,21.275,8.906,30.303,2.02l0.148,0.148l2.168-2.168
	l28.093-28.093l2.168-2.168l-0.148-0.149C913.661,899.265,912.993,886.219,904.756,877.988z M432.129,691.477
	c-126.115,0-228.351-102.41-228.351-228.741s102.236-228.741,228.351-228.741c126.115,0,228.354,102.41,228.354,228.741
	C660.48,589.066,558.244,691.477,432.129,691.477z"/>
</svg>
