<?xml version="1.0" encoding="utf-8"?>
<!-- Generator: Adobe Illustrator 15.0.0, SVG Export Plug-In . SVG Version: 6.00 Build 0)  -->
<!DOCTYPE svg PUBLIC "-//W3C//DTD SVG 1.1//EN" "http://www.w3.org/Graphics/SVG/1.1/DTD/svg11.dtd">
<svg version="1.1" id="Layer_1" xmlns="http://www.w3.org/2000/svg" xmlns:xlink="http://www.w3.org/1999/xlink" x="0px" y="0px"
	 width="1133.859px" height="1133.859px" viewBox="0 0 1133.859 1133.859" enable-background="new 0 0 1133.859 1133.859"
	 xml:space="preserve">
<g>
	<path fill="#FFFFFF" d="M936.052,352.678H197.808c-14.384,0-26.043-13.433-26.043-30v-28.346c0-16.568,11.659-30,26.043-30h738.244
		c14.384,0,26.044,13.432,26.044,30v28.346C962.096,339.246,950.436,352.678,936.052,352.678z"/>
</g>
<g>
	<path fill="#FFFFFF" d="M936.052,869.53H197.808c-14.384,0-26.043-13.434-26.043-30v-28.348c0-16.568,11.659-30,26.043-30h738.244
		c14.384,0,26.044,13.432,26.044,30v28.348C962.096,856.098,950.436,869.53,936.052,869.53z"/>
</g>
<g>
	<path fill="#FFFFFF" d="M936.052,611.104H197.808c-14.384,0-26.043-13.432-26.043-30v-28.347c0-16.567,11.659-30,26.043-30h738.244
		c14.384,0,26.044,13.433,26.044,30v28.347C962.096,597.672,950.436,611.104,936.052,611.104z"/>
</g>
</svg>
