<?xml version="1.0" encoding="utf-8"?>
<!-- Generator: Adobe Illustrator 15.0.0, SVG Export Plug-In . SVG Version: 6.00 Build 0)  -->
<!DOCTYPE svg PUBLIC "-//W3C//DTD SVG 1.1//EN" "http://www.w3.org/Graphics/SVG/1.1/DTD/svg11.dtd">
<svg version="1.1" id="Layer_1" xmlns="http://www.w3.org/2000/svg" xmlns:xlink="http://www.w3.org/1999/xlink" x="0px" y="0px"
	 width="1133.859px" height="1133.86px" viewBox="0 0 1133.859 1133.86" enable-background="new 0 0 1133.859 1133.86"
	 xml:space="preserve">
<path fill="#55B2E3" d="M748.875,172.266h-1.41h-72.529h-0.592L172.266,674.346l0,1.998l285.241,285.25h1.999l502.089-502.09
	v-73.099v-1.41V172.266L748.875,172.266z M505.592,776.188c-16.409,16.409-37.089,28.132-49.672,31.759l-20.029-33.252
	c13-4.044,31.12-13.208,44.977-27.065c14.917-14.917,16.627-28.984,7.238-38.374c-8.955-8.954-20.878-7.235-44.109,4.053
	c-32.41,15.334-61.394,17.902-82.29-2.994c-24.505-24.505-22.363-63.719,11.308-97.389c16.418-16.418,31.334-24.948,43.899-29.427
	l18.77,33.263c-8.322,2.768-22.821,9.146-36.68,23.005c-14.066,14.065-14.275,27.499-7.021,34.753
	c9.164,9.164,21.095,5.32,46.895-6.387c34.737-15.993,59.667-14.51,79.921,5.745C542.888,697.967,545.022,736.756,505.592,776.188z
	 M675.102,602.408l-91.438,91.438L439.997,550.177l88.451-88.451l26.657,26.657l-56.057,56.058l29.834,29.834l52.864-52.864
	l26.432,26.432l-52.864,52.864l34.104,34.104l59.043-59.043L675.102,602.408z M777.047,500.462l-97.418-26.64l2.986,27.282
	L729.51,548l-32.186,32.185L553.657,436.517l32.185-32.185l63.521,63.52l0.424-0.425c-2.336-8.738-4.043-17.268-5.752-25.798
	l-15.352-80.139l40.074-40.073l13.641,108.714l132.369,32.611L777.047,500.462z M860.492,353.545
	c-22.143,22.14-58.037,22.14-80.178,0c-22.141-22.142-22.141-58.037,0-80.176c22.141-22.141,58.035-22.142,80.176,0
	C882.631,295.509,882.631,331.405,860.492,353.545z"/>
</svg>
