<?xml version="1.0" encoding="utf-8"?>
<!-- Generator: Adobe Illustrator 15.0.0, SVG Export Plug-In . SVG Version: 6.00 Build 0)  -->
<!DOCTYPE svg PUBLIC "-//W3C//DTD SVG 1.1//EN" "http://www.w3.org/Graphics/SVG/1.1/DTD/svg11.dtd">
<svg version="1.1" id="Layer_1" xmlns="http://www.w3.org/2000/svg" xmlns:xlink="http://www.w3.org/1999/xlink" x="0px" y="0px"
	 width="1133.859px" height="1133.86px" viewBox="0 0 1133.859 1133.86" enable-background="new 0 0 1133.859 1133.86"
	 xml:space="preserve">
<path fill="#0290D0" d="M319.1,264.83h-15.82h-15.83h-48.178c-0.721-0.194-1.452-0.362-2.193-0.5h-39.27
	c-3.15,0-6.17,0.64-8.96,1.82c-9.97,4.21-17.08,15.23-17.08,28.18v9.1v19.25v57.35v15.825v15.825c0,15.36,12.49,27.85,27.84,27.85
	h16.33h15.32h56.19h15.83h15.82c15.35,0,27.83-12.47,27.85-27.82c0-0.01,0-0.02,0-0.03v-15.825V380.03v-55.67c0-0.01,0-0.02,0-0.03
	v-20.9v-10.75C346.95,277.32,334.46,264.83,319.1,264.83z"/>
<path fill="#0290D0" d="M319.1,694.581h-15.82h-15.83h-48.178c-0.721-0.193-1.452-0.361-2.193-0.5h-39.27
	c-3.15,0-6.17,0.641-8.96,1.82c-9.97,4.21-17.08,15.23-17.08,28.18v9.1v19.25v57.351v15.825v15.824
	c0,15.36,12.49,27.851,27.84,27.851h16.33h15.32h56.19h15.83h15.82c15.35,0,27.83-12.47,27.85-27.819c0-0.011,0-0.021,0-0.031
	v-15.824v-15.825v-55.67c0-0.011,0-0.021,0-0.03v-20.9v-10.75C346.95,707.071,334.46,694.581,319.1,694.581z"/>
<path fill="#0290D0" d="M934.25,478.825h-15.82h-15.83h-22.595v-0.5h-27.776h-39.27H587.441h-39.271c-3.15,0-6.17,0.64-8.96,1.82
	c-9.97,4.21-17.08,15.23-17.08,28.18v9.1v19.25v57.35v15.825v15.824c0,15.36,12.49,27.851,27.84,27.851h16.33h15.32h5.82h50.37
	h15.83h15.819H814.76h16.329h15.32h33.596h22.595h15.83h15.82c15.35,0,27.83-12.47,27.85-27.819c0-0.011,0-0.021,0-0.031V609.85
	v-15.825v-55.67c0-0.01,0-0.02,0-0.03v-20.9v-10.75C962.099,491.315,949.609,478.825,934.25,478.825z"/>
</svg>
