<?xml version="1.0" encoding="utf-8"?>
<!-- Generator: Adobe Illustrator 15.0.0, SVG Export Plug-In . SVG Version: 6.00 Build 0)  -->
<!DOCTYPE svg PUBLIC "-//W3C//DTD SVG 1.1//EN" "http://www.w3.org/Graphics/SVG/1.1/DTD/svg11.dtd">
<svg version="1.1" id="Layer_2" xmlns="http://www.w3.org/2000/svg" xmlns:xlink="http://www.w3.org/1999/xlink" x="0px" y="0px"
	 width="1133.859px" height="1133.86px" viewBox="0 0 1133.859 1133.86" enable-background="new 0 0 1133.859 1133.86"
	 xml:space="preserve">
<g>
	<path fill="#0290D0" d="M121.731,379.417c0-137.202,91.017-250.297,199.164-250.297c108.112,0,198.212,111.978,198.212,250.297
		s-89.184,251.507-198.212,251.507C211.867,630.923,121.731,517.736,121.731,379.417z M243.38,379.417
		c0,52.591,36.062,97.178,77.515,97.178c40.538,0,76.599-45.703,76.599-97.178c0-52.591-36.061-95.967-76.599-95.967
		C280.322,283.45,243.38,326.826,243.38,379.417z M420.019,1011.627h-91.016l382.04-889.396h91.016L420.019,1011.627z
		 M813.76,500.609c109.028,0,197.366,115.421,197.366,252.624c0,138.319-88.338,249.18-197.366,249.18
		c-107.231,0-199.127-110.86-199.127-249.18C614.634,616.03,705.651,500.609,813.76,500.609z M813.76,848.083
		c40.573,0,75.718-44.493,75.718-95.967c0-51.475-34.263-97.178-75.718-97.178c-41.417,0-77.478,43.47-77.478,97.178
		C736.283,804.707,774.14,848.083,813.76,848.083z"/>
</g>
</svg>
