<?xml version="1.0" encoding="utf-8"?>
<!-- Generator: Adobe Illustrator 15.0.0, SVG Export Plug-In . SVG Version: 6.00 Build 0)  -->
<!DOCTYPE svg PUBLIC "-//W3C//DTD SVG 1.1//EN" "http://www.w3.org/Graphics/SVG/1.1/DTD/svg11.dtd">
<svg version="1.1" id="Layer_1" xmlns="http://www.w3.org/2000/svg" xmlns:xlink="http://www.w3.org/1999/xlink" x="0px" y="0px"
	 width="1133.859px" height="1133.86px" viewBox="0 0 1133.859 1133.86" enable-background="new 0 0 1133.859 1133.86"
	 xml:space="preserve">
<g>
	<path fill="#0290D0" d="M943.614,352.678h-523.9c-10.208,0-18.481-13.432-18.481-30v-28.346c0-16.568,8.273-30,18.481-30h523.9
		c10.208,0,18.482,13.432,18.482,30v28.346C962.096,339.247,953.822,352.678,943.614,352.678z"/>
</g>
<g>
	<path fill="#0290D0" d="M408.774,143.614c-3.252,0.917-6.461,1.995-9.65,3.148c-3.179,1.177-6.315,2.479-9.423,3.853
		c-6.188,2.8-12.242,5.937-18.073,9.435c-2.919,1.742-5.818,3.526-8.645,5.415c-2.826,1.888-5.618,3.827-8.369,5.82
		c-10.98,8.007-21.307,16.854-31.009,26.28c-9.711,9.422-18.834,19.394-27.468,29.729c-17.258,20.688-32.604,42.786-46.446,65.692
		c-6.919,11.458-13.452,23.133-19.584,35.015c-2.749,5.329-5.409,10.704-7.995,16.12c-0.248-0.628-0.49-1.259-0.744-1.885
		c-1.057-2.582-2.147-5.147-3.272-7.696c-4.477-10.203-9.594-20.122-15.374-29.638c-5.804-9.497-12.286-18.603-19.668-26.903
		c-7.364-8.292-15.617-15.837-24.844-21.733c7.632,7.833,14.147,16.442,19.841,25.497c5.678,9.069,10.578,18.552,14.878,28.282
		c4.316,9.723,8.022,19.7,11.298,29.79c0.813,2.524,1.591,5.06,2.334,7.603c0.75,2.54,1.489,5.081,2.178,7.632
		c0.692,2.551,1.348,5.106,1.96,7.66c0.305,1.276,0.6,2.552,0.88,3.822l0.406,1.896l0.194,0.933l0.17,0.855l4.747,23.862
		l12.031-22.094l2.285-4.196l2.373-4.249l4.849-8.474c3.25-5.645,6.546-11.268,9.886-16.862
		c6.679-11.189,13.503-22.284,20.491-33.255c13.992-21.927,28.629-43.381,44.305-63.945c7.842-10.276,15.949-20.326,24.413-30.04
		c4.227-4.861,8.557-9.626,12.984-14.292c2.206-2.343,4.447-4.649,6.723-6.92c2.278-2.269,4.593-4.497,6.914-6.721
		c9.351-8.818,19.188-17.143,29.81-24.492c10.611-7.365,21.988-13.761,34.386-18.671
		C421.898,140.454,415.272,141.775,408.774,143.614z"/>
	<g>
		<path fill="none" stroke="#0290D0" stroke-width="16" stroke-miterlimit="10" d="M302.378,340.177
			c0,18.708-15.307,34.016-34.016,34.016h-59.528c-18.708,0-34.016-15.307-34.016-34.016v-59.528
			c0-18.708,15.307-34.016,34.016-34.016h59.528c18.708,0,34.016,15.307,34.016,34.016V340.177z"/>
	</g>
</g>
<g>
	<path fill="#0290D0" d="M943.614,612.442h-523.9c-10.208,0-18.481-13.432-18.481-30v-28.345c0-16.568,8.273-30,18.481-30h523.9
		c10.208,0,18.482,13.432,18.482,30v28.345C962.096,599.012,953.822,612.442,943.614,612.442z"/>
</g>
<g>
	<path fill="#0290D0" d="M408.774,402.378c-3.252,0.917-6.461,1.995-9.65,3.148c-3.179,1.177-6.315,2.479-9.423,3.853
		c-6.188,2.8-12.242,5.937-18.073,9.435c-2.919,1.742-5.818,3.526-8.645,5.415c-2.826,1.888-5.618,3.827-8.369,5.82
		c-10.98,8.007-21.307,16.854-31.009,26.28c-9.711,9.422-18.834,19.394-27.468,29.729c-17.258,20.688-32.604,42.786-46.446,65.692
		c-6.919,11.458-13.452,23.133-19.584,35.015c-2.749,5.329-5.409,10.704-7.995,16.12c-0.248-0.628-0.49-1.259-0.744-1.885
		c-1.057-2.582-2.147-5.147-3.272-7.696c-4.477-10.203-9.594-20.122-15.374-29.638c-5.804-9.497-12.286-18.603-19.668-26.903
		c-7.364-8.292-15.617-15.837-24.844-21.733c7.632,7.833,14.147,16.442,19.841,25.497c5.678,9.069,10.578,18.552,14.878,28.282
		c4.316,9.723,8.022,19.7,11.298,29.79c0.813,2.524,1.591,5.06,2.334,7.603c0.75,2.54,1.489,5.081,2.178,7.632
		c0.692,2.551,1.348,5.106,1.96,7.66c0.305,1.276,0.6,2.552,0.88,3.822l0.406,1.896l0.194,0.933l0.17,0.855l4.747,23.862
		l12.031-22.094l2.285-4.196l2.373-4.249l4.849-8.474c3.25-5.645,6.546-11.268,9.886-16.862
		c6.679-11.189,13.503-22.284,20.491-33.255c13.992-21.927,28.629-43.381,44.305-63.945c7.842-10.276,15.949-20.326,24.413-30.04
		c4.227-4.861,8.557-9.626,12.984-14.292c2.206-2.343,4.447-4.649,6.723-6.92c2.278-2.269,4.593-4.497,6.914-6.721
		c9.351-8.818,19.188-17.143,29.81-24.492c10.611-7.365,21.988-13.761,34.386-18.671
		C421.898,399.218,415.272,400.54,408.774,402.378z"/>
	<g>
		<path fill="none" stroke="#0290D0" stroke-width="16" stroke-miterlimit="10" d="M302.378,598.942
			c0,18.708-15.307,34.016-34.016,34.016h-59.528c-18.708,0-34.016-15.308-34.016-34.016v-59.528
			c0-18.708,15.307-34.016,34.016-34.016h59.528c18.708,0,34.016,15.307,34.016,34.016V598.942z"/>
	</g>
</g>
<g>
	<path fill="#0290D0" d="M943.614,867.867h-523.9c-10.208,0-18.481-13.432-18.481-30v-28.345c0-16.568,8.273-30,18.481-30h523.9
		c10.208,0,18.482,13.432,18.482,30v28.345C962.096,854.437,953.822,867.867,943.614,867.867z"/>
</g>
<g>
	<g>
		<path fill="none" stroke="#0290D0" stroke-width="16" stroke-miterlimit="10" d="M302.378,854.367
			c0,18.708-15.307,34.016-34.016,34.016h-59.528c-18.708,0-34.016-15.308-34.016-34.016v-59.528
			c0-18.709,15.307-34.016,34.016-34.016h59.528c18.708,0,34.016,15.307,34.016,34.016V854.367z"/>
	</g>
</g>
</svg>
