<?xml version="1.0" encoding="utf-8"?>
<!-- Generator: Adobe Illustrator 15.0.0, SVG Export Plug-In . SVG Version: 6.00 Build 0)  -->
<!DOCTYPE svg PUBLIC "-//W3C//DTD SVG 1.1//EN" "http://www.w3.org/Graphics/SVG/1.1/DTD/svg11.dtd">
<svg version="1.1" xmlns="http://www.w3.org/2000/svg" xmlns:xlink="http://www.w3.org/1999/xlink" x="0px" y="0px"
	 width="1133.859px" height="1133.859px" viewBox="0 0 1133.859 1133.859" enable-background="new 0 0 1133.859 1133.859"
	 xml:space="preserve">
<g id="Layer_3" display="none">
	<g display="inline">
		<path fill="#0290D0" d="M566.93,301.579c35.84,0,70.586,7.01,103.274,20.836c31.593,13.363,59.975,32.501,84.357,56.883
			c24.382,24.382,43.52,52.764,56.883,84.357c13.825,32.688,20.836,67.435,20.836,103.274s-7.011,70.586-20.836,103.274
			c-13.363,31.593-32.501,59.975-56.884,84.357c-24.382,24.382-52.764,43.521-84.356,56.884
			c-32.688,13.825-67.435,20.836-103.274,20.836s-70.586-7.011-103.274-20.836c-31.593-13.363-59.975-32.502-84.357-56.884
			c-24.382-24.383-43.521-52.765-56.884-84.357c-13.826-32.688-20.836-67.435-20.836-103.274s7.01-70.586,20.836-103.274
			c13.363-31.593,32.501-59.975,56.884-84.357c24.382-24.382,52.764-43.521,84.357-56.883
			C496.343,308.59,531.09,301.579,566.93,301.579 M566.93,261.579c-168.641,0-305.351,136.71-305.351,305.351
			s136.71,305.352,305.351,305.352S872.28,735.571,872.28,566.93S735.57,261.579,566.93,261.579L566.93,261.579z"/>
	</g>
</g>
<g id="Layer_2">
	<g>
		<polygon fill="#0290D0" points="574.364,197.622 574.365,197.623 574.365,197.622 		"/>
		<path fill="#0290D0" d="M572.07,700.181L572.07,700.181l7.563-63.034c22.028-12.869,41.955-29.694,58.628-50.071l63.435,2.386
			h0.001l0,0l9.121-17.902l3.04-5.968l6.081-11.935l-0.001,0l-39.22-49.915c6.684-25.466,8.58-51.478,6.043-76.862l46.546-43.172
			v-0.001l-6.209-19.107l-2.069-6.371l-4.14-12.739l-0.001,0l-63.033-7.563c-12.869-22.026-29.694-41.955-50.071-58.626
			l2.386-63.437l0,0l-17.901-9.121l-5.968-3.041l-11.936-6.079l-49.916,39.22c-25.466-6.683-51.478-8.581-76.861-6.043
			l-43.172-46.547l-0.001,0l-19.107,6.208l-6.37,2.07l-12.739,4.14l-7.563,63.034c-22.026,12.869-41.954,29.694-58.626,50.07
			l-63.436-2.385h-0.001l-6.08,11.935l-3.041,5.967l-9.12,17.902v0l39.22,49.917c-6.683,25.465-8.579,51.477-6.042,76.86
			l-46.547,43.172l0,0l4.14,12.739l2.07,6.37l6.209,19.108h0.001l63.034,7.564c12.869,22.026,29.694,41.954,50.07,58.625
			l-2.385,63.437l11.935,6.081l5.967,3.04l17.902,9.121h0l49.917-39.221c25.465,6.684,51.477,8.58,76.86,6.043l43.172,46.546
			l12.74-4.139l6.369-2.07L572.07,700.181z M403.977,576.316c-70.632-35.984-98.719-122.416-62.733-193.047
			c35.986-70.632,122.417-98.718,193.048-62.733c70.633,35.985,98.719,122.416,62.733,193.048S474.609,612.302,403.977,576.316z"/>
		<path fill="#0290D0" d="M928.898,749.471l-3.661-19.757l-3.663-19.755l-60.47-15.462c-4.312-7.533-9.376-14.777-15.22-21.619
			c-5.845-6.843-12.209-12.978-18.975-18.414l-5.816-62.144l-18.939-6.707l-18.94-6.704l-43.641,44.652
			c-17.521-0.092-35.103,3.078-51.769,9.573l-56.71-26.027l-15.277,13.048l-15.277,13.05l16.84,60.082
			c-9.021,15.446-14.901,32.315-17.551,49.636l-50.927,36.121l3.66,19.756l3.664,19.756l60.47,15.461
			c4.312,7.533,9.376,14.778,15.22,21.621c5.844,6.842,12.208,12.976,18.975,18.412l5.816,62.145l18.939,6.707l18.94,6.705
			l43.64-44.652c17.521,0.091,35.104-3.079,51.769-9.574l56.71,26.027l15.279-13.049l15.276-13.051l-16.84-60.08
			c9.021-15.445,14.901-32.315,17.55-49.636L928.898,749.471z M796.1,831.225c-36.984,31.591-92.576,27.218-124.167-9.768
			s-27.218-92.576,9.768-124.167s92.577-27.218,124.167,9.768C837.458,744.042,833.085,799.634,796.1,831.225z"/>
	</g>
</g>
</svg>
