<?xml version="1.0" encoding="utf-8"?>
<!-- Generator: Adobe Illustrator 15.0.0, SVG Export Plug-In . SVG Version: 6.00 Build 0)  -->
<!DOCTYPE svg PUBLIC "-//W3C//DTD SVG 1.1//EN" "http://www.w3.org/Graphics/SVG/1.1/DTD/svg11.dtd">
<svg version="1.1" id="Layer_2" xmlns="http://www.w3.org/2000/svg" xmlns:xlink="http://www.w3.org/1999/xlink" x="0px" y="0px"
	 width="1133.859px" height="1133.86px" viewBox="0 0 1133.859 1133.86" enable-background="new 0 0 1133.859 1133.86"
	 xml:space="preserve">
<g>
	<path d="M-0.171,783.801c-0.36-0.133-0.693-0.254-0.999-0.363C-0.868,783.547-0.54,783.667-0.171,783.801z"/>
	<path d="M-1.361,783.368c-0.323-0.119-0.609-0.225-0.861-0.314C-1.975,783.143-1.69,783.247-1.361,783.368z"/>
	<path d="M-1.17,783.438c-0.063-0.023-0.131-0.049-0.191-0.07C-1.299,783.389-1.235,783.413-1.17,783.438z"/>
	<path d="M-2.222,783.053c-0.051-0.02-0.1-0.037-0.146-0.055C-2.322,783.016-2.272,783.034-2.222,783.053z"/>
	<path d="M3.736,785.225c-0.048-0.018-0.094-0.033-0.142-0.053C3.642,785.19,3.688,785.208,3.736,785.225z"/>
	<path d="M3.594,785.172c-1.515-0.551-2.768-1.008-3.766-1.371C0.879,784.184,2.15,784.647,3.594,785.172z"/>
	<path d="M45.088,800.297c0.333,0.121,0.646,0.234,0.94,0.342C45.73,800.532,45.416,800.417,45.088,800.297z"/>
	<path d="M-2.369,782.999c-0.076-0.027-0.147-0.053-0.216-0.078C-2.517,782.946-2.445,782.971-2.369,782.999z"/>
	<path d="M46.029,800.639C50.607,802.309,51.69,802.704,46.029,800.639L46.029,800.639z"/>
	<path d="M-2.994,782.772C-3.556,782.567-3.592,782.553-2.994,782.772L-2.994,782.772z"/>
	<path d="M-2.585,782.92c-0.16-0.059-0.295-0.107-0.409-0.148C-2.88,782.813-2.74,782.864-2.585,782.92z"/>
</g>
<path d="M468.907,783.819c0.36-0.133,0.692-0.252,0.999-0.363C469.604,783.565,469.276,783.684,468.907,783.819z"/>
<path d="M470.099,783.385c0.322-0.117,0.608-0.223,0.86-0.313C470.712,783.161,470.427,783.266,470.099,783.385z"/>
<path d="M466.352,784.75c0.951-0.346,1.812-0.66,2.556-0.932C468.19,784.081,467.336,784.393,466.352,784.75z"/>
<path d="M422.707,800.659C417.046,802.721,418.13,802.327,422.707,800.659L422.707,800.659z"/>
<path d="M471.731,782.79C472.291,782.586,472.328,782.573,471.731,782.79L471.731,782.79z"/>
<g>
	<path opacity="0.65" fill="#0B90D1" d="M925.786,701.759c6.988,2.545,13.971,5.091,18.182,6.625
		c-3.423-1.246-9.241-3.368-18.189-6.629c-2.49-0.907-4.729-1.724-6.75-2.459c2.181,0.794,4.454,1.622,6.732,2.452
		c-31.855-11.609-88.98-26.053-103.872-61.515c-6.2-14.767,1.052-16.021-16.918-16.021c-8.49,0-6.157-12.757-1.048-17.546
		c12.659-11.869,11.894-21.624,15.32-37.884c5.247-24.89-7.028-13.281,13.557-20.407c9.856-3.413,41.214-89.04,8.257-86.428
		c16.744-45.772,15.655-98.24-14.277-138.365c-20.256-27.151-58.548-40.864-95.326-40.085v0.031
		c-1.243,0.018-2.451,0.068-3.597,0.185c-29.055,1.719-56.565,12.603-72.752,33.201c-23.386-23.333-45.523,26.016-47.044,44.489
		c-2.453,29.815,4.726,70.939,15.247,99.971c0.07,0.196,0.132,0.391,0.205,0.589c-32.959-2.612-1.601,83.017,8.256,86.428
		c20.584,7.126,8.309-4.484,13.556,20.406c3.426,16.259,2.661,26.016,15.32,37.885c3.589,3.364,5.802,10.649,3.864,14.694
		c-1.813,1.407-4.649,2.12-7.613,2.865c-10.163,0.115-10.19,1.074-11.307,6.439c-0.253,0.556-0.45,1.16-0.577,1.827
		c-0.296,1.54-0.67,3.044-1.109,4.518c-0.339,0.999-0.736,2.065-1.224,3.225c-14.89,35.461-72.014,49.906-103.87,61.515
		c5.98-2.18,11.958-4.359,16.196-5.904c-3.536,1.289-8.798,3.206-16.215,5.909c-8.947,3.262-14.765,5.381-18.189,6.63
		c4.211-1.535,11.193-4.079,18.181-6.627c-6.773,2.47-13.067,5.035-18.932,7.711c-6.088,2.186-11.619,4.366-16.333,6.622
		c-55.053,26.342-58.004,78.866-58.004,134.271c0,0.006,0,0.013,0,0.018c95.867,0,191.734,0,287.602,0v-0.018
		c95.314,0,190.627,0,285.94,0C1019.055,770.026,1002.744,729.809,925.786,701.759z"/>
	<path fill="#0B90D1" d="M722.875,713.514c-2.28-0.832-4.433-1.615-6.272-2.287C718.281,711.838,720.359,712.596,722.875,713.514z"
		/>
	<path fill="#0B90D1" d="M624.726,722.417c8.058,2.936,16.11,5.871,20.966,7.641c-3.947-1.438-10.656-3.885-20.976-7.645
		c-2.871-1.047-5.454-1.988-7.783-2.836c2.515,0.916,5.135,1.871,7.764,2.828c-36.737-13.389-102.614-30.045-119.788-70.939
		c-7.15-17.029,1.212-18.477-19.509-18.477c-9.792,0-7.101-14.711-1.21-20.234c14.599-13.688,13.716-24.938,17.668-43.688
		c6.051-28.704-8.107-15.316,15.633-23.534c11.366-3.936,47.529-102.683,9.523-99.67c19.31-52.785,18.053-113.292-16.465-159.564
		c-23.359-31.311-67.518-47.125-109.931-46.227v0.036c-1.434,0.021-2.827,0.079-4.149,0.213
		c-33.505,1.983-65.232,14.533-83.898,38.288c-26.969-26.908-52.5,30.001-54.253,51.305c-2.828,34.384,5.452,81.808,17.584,115.288
		c0.081,0.227,0.152,0.451,0.235,0.68c-38.007-3.012-1.843,95.736,9.522,99.67c23.738,8.218,9.583-5.171,15.632,23.533
		c3.952,18.75,3.069,30.002,17.668,43.689c4.137,3.879,6.688,12.281,4.456,16.945c-2.092,1.623-5.363,2.445-8.781,3.305
		c-11.719,0.133-11.752,1.238-13.04,7.426c-0.291,0.641-0.517,1.338-0.665,2.107c-0.341,1.775-0.772,3.51-1.278,5.209
		c-0.391,1.152-0.849,2.383-1.411,3.719c-17.17,40.895-83.047,57.553-119.784,70.939c6.896-2.514,13.789-5.027,18.676-6.809
		c-4.078,1.486-10.146,3.697-18.699,6.814c-10.317,3.762-17.027,6.205-20.974,7.646c4.854-1.771,12.906-4.705,20.966-7.643
		c-7.812,2.848-15.07,5.807-21.832,8.893c-7.021,2.52-13.399,5.035-18.836,7.637c-63.487,30.377-66.892,90.949-66.892,154.844
		c0,0.006,0,0.014,0,0.02c110.557,0,221.112,0,331.668,0v-0.02c109.917,0,219.833,0,329.75,0
		C732.283,801.143,713.474,754.764,624.726,722.417z"/>
</g>
</svg>
