<?xml version="1.0" encoding="utf-8"?>
<!-- Generator: Adobe Illustrator 15.0.0, SVG Export Plug-In . SVG Version: 6.00 Build 0)  -->
<!DOCTYPE svg PUBLIC "-//W3C//DTD SVG 1.1//EN" "http://www.w3.org/Graphics/SVG/1.1/DTD/svg11.dtd">
<svg version="1.1" id="Layer_1_copy" xmlns="http://www.w3.org/2000/svg" xmlns:xlink="http://www.w3.org/1999/xlink" x="0px"
	 y="0px" width="1133.859px" height="1133.859px" viewBox="0 0 1133.859 1133.859" enable-background="new 0 0 1133.859 1133.859"
	 xml:space="preserve">
<g id="Layer_2_1_">
</g>
<g id="Layer_1_4_">
	<g id="Layer_1_5_">
	</g>
	<g>
		<g id="XMLID_1_">
			<path fill="#FFFFFF" d="M877.17,391.16v620.469H256.69v-620.48h80.321v-70.021v-33.336v-98.506
				c0-36.972,30.082-67.054,67.053-67.054h325.744c36.974,0,67.04,30.082,67.04,67.054v98.506v33.336v70.032H877.17z
				 M709.297,391.148v-70.021V209.796H424.563v111.331v70.021L709.297,391.148L709.297,391.148z M671.031,845.297l-67.98-152.722
				c21.676-12.511,36.267-35.897,36.267-62.712c0-39.979-32.409-72.387-72.388-72.387c-39.978,0-72.386,32.408-72.386,72.387
				c0,26.813,14.59,50.201,36.265,62.712l-67.968,152.722H671.031z"/>
		</g>
	</g>
</g>
</svg>
