<?xml version="1.0" encoding="utf-8"?>
<!-- Generator: Adobe Illustrator 15.0.0, SVG Export Plug-In . SVG Version: 6.00 Build 0)  -->
<!DOCTYPE svg PUBLIC "-//W3C//DTD SVG 1.1//EN" "http://www.w3.org/Graphics/SVG/1.1/DTD/svg11.dtd">
<svg version="1.1" id="Layer_2" xmlns="http://www.w3.org/2000/svg" xmlns:xlink="http://www.w3.org/1999/xlink" x="0px" y="0px"
	 width="1133.86px" height="1133.86px" viewBox="0 0 1133.86 1133.86" enable-background="new 0 0 1133.86 1133.86"
	 xml:space="preserve">
<g>
	<path d="M-0.171,783.801c-0.36-0.132-0.693-0.253-0.999-0.364C-0.868,783.547-0.54,783.666-0.171,783.801z"/>
	<path d="M-1.361,783.367c-0.323-0.118-0.609-0.223-0.861-0.314C-1.975,783.143-1.69,783.247-1.361,783.367z"/>
	<path d="M-1.17,783.437c-0.063-0.023-0.131-0.048-0.191-0.069C-1.299,783.39-1.235,783.413-1.17,783.437z"/>
	<path d="M-2.222,783.053c-0.051-0.019-0.1-0.036-0.147-0.054C-2.322,783.017-2.272,783.034-2.222,783.053z"/>
	<path d="M3.736,785.225c-0.048-0.018-0.094-0.034-0.142-0.052C3.642,785.19,3.688,785.207,3.736,785.225z"/>
	<path d="M3.594,785.173c-1.515-0.552-2.768-1.009-3.766-1.372C0.879,784.184,2.15,784.646,3.594,785.173z"/>
	<path d="M45.088,800.297c0.333,0.121,0.646,0.235,0.941,0.343C45.73,800.531,45.416,800.416,45.088,800.297z"/>
	<path d="M-2.369,782.999c-0.076-0.027-0.147-0.054-0.216-0.078C-2.517,782.945-2.445,782.972-2.369,782.999z"/>
	<path d="M46.029,800.64C50.607,802.309,51.69,802.703,46.029,800.64L46.029,800.64z"/>
	<path d="M-2.994,782.771C-3.556,782.567-3.592,782.554-2.994,782.771L-2.994,782.771z"/>
	<path d="M-2.585,782.921c-0.16-0.059-0.295-0.108-0.409-0.149C-2.88,782.813-2.74,782.864-2.585,782.921z"/>
</g>
<path d="M468.908,783.819c0.36-0.132,0.692-0.253,0.999-0.364C469.604,783.565,469.276,783.685,468.908,783.819z"/>
<path d="M470.099,783.386c0.322-0.118,0.609-0.223,0.86-0.314C470.712,783.161,470.427,783.266,470.099,783.386z"/>
<path d="M466.352,784.751c0.951-0.347,1.812-0.66,2.556-0.932C468.19,784.08,467.336,784.393,466.352,784.751z"/>
<path d="M422.708,800.658C417.046,802.722,418.13,802.327,422.708,800.658L422.708,800.658z"/>
<path d="M471.731,782.79C472.292,782.586,472.329,782.572,471.731,782.79L471.731,782.79z"/>
<g>
	<path opacity="0.65" fill="#FFFFFF" d="M925.787,701.76c6.987,2.545,13.971,5.091,18.181,6.625
		c-3.423-1.247-9.241-3.368-18.188-6.629c-2.49-0.907-4.729-1.725-6.75-2.46c2.181,0.796,4.453,1.623,6.732,2.454
		c-31.856-11.609-88.98-26.054-103.873-61.516c-6.201-14.767,1.052-16.021-16.918-16.021c-8.49,0-6.157-12.757-1.048-17.547
		c12.66-11.869,11.894-21.624,15.32-37.883c5.247-24.89-7.029-13.281,13.557-20.407c9.856-3.412,41.214-89.04,8.258-86.429
		c16.744-45.772,15.655-98.24-14.277-138.365c-20.256-27.151-58.548-40.864-95.326-40.085v0.031
		c-1.243,0.018-2.451,0.068-3.598,0.185c-29.055,1.719-56.566,12.602-72.752,33.201c-23.386-23.333-45.523,26.015-47.045,44.489
		c-2.453,29.816,4.727,70.939,15.247,99.971c0.07,0.197,0.133,0.391,0.205,0.589c-32.959-2.611-1.599,83.017,8.258,86.428
		c20.583,7.126,8.308-4.484,13.555,20.406c3.427,16.258,2.662,26.016,15.32,37.884c3.589,3.363,5.802,10.65,3.864,14.695
		c-1.813,1.406-4.649,2.119-7.613,2.865c-10.163,0.115-10.19,1.073-11.307,6.438c-0.254,0.555-0.449,1.159-0.578,1.828
		c-0.295,1.54-0.67,3.043-1.108,4.517c-0.34,0.999-0.736,2.065-1.224,3.224c-14.89,35.463-72.015,49.906-103.871,61.516
		c5.979-2.18,11.958-4.359,16.196-5.903c-3.536,1.289-8.797,3.206-16.215,5.91c-8.947,3.261-14.765,5.381-18.188,6.629
		c4.21-1.534,11.193-4.08,18.18-6.626c-6.773,2.469-13.067,5.035-18.931,7.711c-6.088,2.185-11.619,4.366-16.333,6.621
		c-55.052,26.342-58.003,78.867-58.003,134.272c0,0.005,0,0.012,0,0.017c95.867,0,191.735,0,287.603,0v-0.017
		c95.314,0,190.627,0,285.941,0C1019.057,770.026,1002.745,729.81,925.787,701.76z"/>
	<path fill="#0B90D1" d="M722.876,713.514c-2.281-0.831-4.433-1.616-6.273-2.286C718.282,711.839,720.359,712.597,722.876,713.514z"
		/>
	<path fill="#FFFFFF" d="M624.726,722.417c8.058,2.936,16.11,5.871,20.966,7.641c-3.947-1.438-10.656-3.885-20.976-7.645
		c-2.871-1.047-5.454-1.989-7.783-2.837c2.515,0.917,5.135,1.871,7.764,2.829c-36.738-13.388-102.614-30.045-119.788-70.94
		c-7.151-17.028,1.212-18.476-19.509-18.476c-9.792,0-7.101-14.712-1.21-20.235c14.599-13.688,13.716-24.938,17.668-43.687
		c6.051-28.704-8.107-15.316,15.633-23.534c11.366-3.935,47.529-102.682,9.523-99.67c19.31-52.785,18.053-113.292-16.465-159.564
		c-23.359-31.311-67.517-47.125-109.931-46.227v0.036c-1.433,0.021-2.827,0.079-4.149,0.213
		c-33.505,1.983-65.232,14.533-83.898,38.288c-26.969-26.908-52.5,30.001-54.253,51.305c-2.828,34.384,5.452,81.808,17.584,115.288
		c0.081,0.227,0.152,0.451,0.235,0.68c-38.007-3.012-1.843,95.736,9.522,99.67c23.739,8.218,9.583-5.171,15.632,23.533
		c3.952,18.749,3.07,30.001,17.668,43.688c4.137,3.879,6.689,12.283,4.456,16.947c-2.091,1.622-5.363,2.444-8.781,3.304
		c-11.719,0.133-11.752,1.238-13.04,7.426c-0.291,0.64-0.517,1.337-0.665,2.107c-0.341,1.776-0.772,3.51-1.278,5.209
		c-0.391,1.152-0.849,2.382-1.411,3.718c-17.17,40.896-83.047,57.553-119.785,70.94c6.896-2.514,13.79-5.027,18.676-6.808
		c-4.078,1.486-10.145,3.697-18.699,6.815c-10.317,3.761-17.027,6.205-20.974,7.645c4.855-1.77,12.907-4.705,20.966-7.642
		c-7.811,2.848-15.07,5.807-21.832,8.893c-7.021,2.52-13.399,5.035-18.836,7.636c-63.487,30.378-66.891,90.95-66.891,154.845
		c0,0.005,0,0.013,0,0.019c110.556,0,221.112,0,331.668,0v-0.019c109.917,0,219.833,0,329.75,0
		C732.284,801.143,713.474,754.765,624.726,722.417z"/>
</g>
</svg>
