<?xml version="1.0" encoding="utf-8"?>
<!-- Generator: Adobe Illustrator 15.0.0, SVG Export Plug-In . SVG Version: 6.00 Build 0)  -->
<!DOCTYPE svg PUBLIC "-//W3C//DTD SVG 1.1//EN" "http://www.w3.org/Graphics/SVG/1.1/DTD/svg11.dtd">
<svg version="1.1" xmlns="http://www.w3.org/2000/svg" xmlns:xlink="http://www.w3.org/1999/xlink" x="0px" y="0px"
	 width="1133.859px" height="1133.86px" viewBox="0 0 1133.859 1133.86" enable-background="new 0 0 1133.859 1133.86"
	 xml:space="preserve">
<g id="Layer_2">
</g>
<g id="Layer_1">
	<g id="Layer_1_1_">
	</g>
	<g>
		<polygon fill="#0290D0" points="675.827,293.747 458.032,293.747 458.032,378.914 458.032,432.475 675.828,432.475 
			675.828,378.914 675.827,378.914 		"/>
		<path fill="#0290D0" d="M622.301,615.071c0-30.582-24.792-55.373-55.369-55.373c-30.582,0-55.371,24.791-55.371,55.373
			c0,20.511,11.162,38.404,27.737,47.972l-51.992,116.82h159.249l-51.992-116.82C611.138,653.475,622.301,635.582,622.301,615.071z"
			/>
		<path fill="#0290D0" d="M898.241,122.233H235.618c-62.362,0-113.386,51.023-113.386,113.386v662.623
			c0,62.362,51.023,113.386,113.386,113.386h662.623c62.362,0,113.386-51.023,113.386-113.386V235.619
			C1011.627,173.256,960.604,122.233,898.241,122.233z M804.236,907.087H329.623V432.475h61.437v-53.562V353.41v-75.353
			c0-28.278,23.006-51.285,51.286-51.285h249.17c28.278,0,51.285,23.007,51.285,51.285v75.353v25.504v53.562h61.436V907.087z"/>
	</g>
</g>
</svg>
