<?xml version="1.0" encoding="utf-8"?>
<!-- Generator: Adobe Illustrator 15.0.0, SVG Export Plug-In . SVG Version: 6.00 Build 0)  -->
<!DOCTYPE svg PUBLIC "-//W3C//DTD SVG 1.1//EN" "http://www.w3.org/Graphics/SVG/1.1/DTD/svg11.dtd">
<svg version="1.1" id="Layer_1" xmlns="http://www.w3.org/2000/svg" xmlns:xlink="http://www.w3.org/1999/xlink" x="0px" y="0px"
	 width="40px" height="40px" viewBox="0 0 40 40" enable-background="new 0 0 40 40" xml:space="preserve">
<path fill="#030405" d="M37.244,12.997h-8.267H28.03h-3.282v-1.86c0-0.982-0.669-1.811-1.574-2.052
	c-0.137-0.483-0.582-0.837-1.11-0.837H18.02c-0.319,0-0.608,0.13-0.817,0.339c-0.121,0.121-0.214,0.268-0.271,0.433
	c-1.095,0.083-1.962,1.001-1.962,2.118v1.86h-3.69h-0.946H2.881H2.042v0.449l0.467,1.492l0.468,1.494l0.907,2.897l0.293,0.935
	l1.78,5.686l0.292,0.935l1.69,5.397l0.146,0.468l0.146,0.467h0.98h4.202h0.944h5.237h0.935h4.422h0.945h5.016h0.98l0.146-0.467
	l0.146-0.468l1.689-5.397l0.293-0.935l1.779-5.686l0.294-0.935l0.866-2.767l0.467-1.494l0.468-1.494v-0.579H37.244z M27.066,19.33
	H20.53v-1.529v-0.935v-2.934h3.283h0.936h3.142L27.066,19.33z M26.059,25.95H20.53v-5.686h6.395L26.059,25.95z M25.095,32.282H20.53
	v-5.397h5.387L25.095,32.282z M13.394,26.885h6.202v5.397h-5.38L13.394,26.885z M12.385,20.264h7.21v5.686h-6.344L12.385,20.264z
	 M11.421,13.932h3.548h0.935h3.691v2.934v0.935v1.529h-7.352L11.421,13.932z M15.904,11.137c0-0.625,0.485-1.14,1.099-1.187
	c0.195,0.363,0.577,0.608,1.017,0.608h4.044c0.41,0,0.771-0.214,0.976-0.536c0.451,0.168,0.773,0.605,0.773,1.115v1.86H20.53h-0.935
	h-3.691V11.137z M3.173,13.932h7.302l0.823,5.397H4.863L3.173,13.932z M5.157,20.264h6.283l0.867,5.686h-5.37L5.157,20.264z
	 M7.23,26.885h5.218l0.823,5.397H8.92L7.23,26.885z M31.205,32.282H26.04l0.822-5.397h6.032L31.205,32.282z M33.188,25.95h-6.184
	l0.865-5.686h7.099L33.188,25.95z M35.262,19.33h-7.248l0.821-5.397h8.116L35.262,19.33z"/>
</svg>
