<?xml version="1.0" encoding="utf-8"?>
<!-- Generator: Adobe Illustrator 15.0.0, SVG Export Plug-In . SVG Version: 6.00 Build 0)  -->
<!DOCTYPE svg PUBLIC "-//W3C//DTD SVG 1.1//EN" "http://www.w3.org/Graphics/SVG/1.1/DTD/svg11.dtd">
<svg version="1.1" id="Layer_2_1_" xmlns="http://www.w3.org/2000/svg" xmlns:xlink="http://www.w3.org/1999/xlink" x="0px" y="0px"
	 width="1133.859px" height="1133.86px" viewBox="0 0 1133.859 1133.86" enable-background="new 0 0 1133.859 1133.86"
	 xml:space="preserve">
<g id="Layer_1">
	<g id="Layer_1_1_" display="none">
		<g display="inline">
			<g>
				<rect x="70.867" y="70.867" fill="#0290D0" width="425.196" height="425.197"/>
				<rect x="637.797" y="70.867" fill="#0290D0" width="425.195" height="425.197"/>
			</g>
			<g>
				<rect x="70.867" y="637.797" fill="#0290D0" width="425.196" height="425.195"/>
				<rect x="637.797" y="637.797" fill="#0290D0" width="425.195" height="425.195"/>
			</g>
		</g>
	</g>
	<path fill="#0290D0" d="M949.608,70.867v221.906H184.253V70.867H70.867v992.125h113.385v-205.37h765.355v205.37h113.385V70.867
		H949.608z M949.608,803.327H184.253V347.068h765.355V803.327z"/>
	<g>
		<rect x="99.213" y="85.041" fill="#FFFFFF" width="56.693" height="56.692"/>
		<rect x="99.213" y="198.426" fill="#FFFFFF" width="56.693" height="56.693"/>
		<rect x="99.213" y="311.812" fill="#FFFFFF" width="56.693" height="56.693"/>
		<rect x="99.213" y="425.198" fill="#FFFFFF" width="56.693" height="56.693"/>
		<rect x="99.213" y="538.583" fill="#FFFFFF" width="56.693" height="56.693"/>
		<rect x="99.213" y="651.97" fill="#FFFFFF" width="56.693" height="56.692"/>
		<rect x="99.213" y="765.356" fill="#FFFFFF" width="56.693" height="56.692"/>
		<rect x="99.213" y="878.742" fill="#FFFFFF" width="56.693" height="56.692"/>
		<rect x="99.213" y="992.127" fill="#FFFFFF" width="56.693" height="56.692"/>
		<rect x="977.952" y="85.041" fill="#FFFFFF" width="56.694" height="56.692"/>
		<rect x="977.952" y="198.426" fill="#FFFFFF" width="56.694" height="56.693"/>
		<rect x="977.952" y="311.812" fill="#FFFFFF" width="56.694" height="56.693"/>
		<rect x="977.952" y="425.198" fill="#FFFFFF" width="56.694" height="56.693"/>
		<rect x="977.952" y="538.583" fill="#FFFFFF" width="56.694" height="56.693"/>
		<rect x="977.952" y="651.97" fill="#FFFFFF" width="56.694" height="56.692"/>
		<rect x="977.952" y="765.356" fill="#FFFFFF" width="56.694" height="56.692"/>
		<rect x="977.952" y="878.742" fill="#FFFFFF" width="56.694" height="56.692"/>
		<rect x="977.952" y="992.127" fill="#FFFFFF" width="56.694" height="56.692"/>
	</g>
</g>
</svg>
