<?xml version="1.0" encoding="utf-8"?>
<!-- Generator: Adobe Illustrator 15.0.0, SVG Export Plug-In . SVG Version: 6.00 Build 0)  -->
<!DOCTYPE svg PUBLIC "-//W3C//DTD SVG 1.1//EN" "http://www.w3.org/Graphics/SVG/1.1/DTD/svg11.dtd">
<svg version="1.1" id="Layer_1" xmlns="http://www.w3.org/2000/svg" xmlns:xlink="http://www.w3.org/1999/xlink" x="0px" y="0px"
	 width="1659.166px" height="723.073px" viewBox="0 0 1659.166 723.073" enable-background="new 0 0 1659.166 723.073"
	 xml:space="preserve">
<path opacity="0.25" fill="#FFFFFF" stroke="#000000" stroke-width="2" stroke-miterlimit="10" d="M288.453,405.193
	c0.297,1.008,0.582,2.025,0.851,3.052c0.042,0.161,0.083,0.323,0.125,0.484c0.276,1.077,0.542,2.161,0.788,3.257l-77.833,20.855
	c-2.192-8.721-7.192-12.971-13.382-14.666c-6.197-1.684-13.621-1.186-21.609,0.954c-18.073,4.844-25.583,12.436-24.755,21.904
	c3.448,39.297,145.171-23.629,153.541,71.704c0.087,0.989,0.158,1.974,0.219,2.952c0.02,0.321,0.031,0.64,0.047,0.96
	c0.035,0.657,0.069,1.315,0.091,1.969c0.013,0.372,0.018,0.742,0.026,1.114c0.015,0.597,0.03,1.193,0.033,1.787
	c0.003,0.39-0.001,0.777-0.003,1.166c-0.002,0.569-0.005,1.14-0.017,1.707c-0.008,0.396-0.022,0.788-0.035,1.182
	c-0.018,0.557-0.038,1.112-0.065,1.665c-0.02,0.394-0.042,0.785-0.066,1.177c-0.033,0.552-0.07,1.103-0.113,1.65
	c-0.029,0.383-0.061,0.765-0.095,1.146c-0.05,0.557-0.104,1.111-0.162,1.665c-0.04,0.366-0.079,0.732-0.122,1.098
	c-0.067,0.568-0.14,1.134-0.217,1.697c-0.046,0.345-0.092,0.69-0.143,1.034c-0.086,0.588-0.18,1.173-0.277,1.757
	c-0.053,0.314-0.102,0.63-0.157,0.944c-0.111,0.628-0.231,1.253-0.354,1.876c-0.053,0.263-0.101,0.527-0.154,0.791
	c-0.148,0.721-0.308,1.437-0.473,2.151c-0.037,0.16-0.071,0.322-0.108,0.483c-0.634,2.688-1.384,5.325-2.244,7.916
	c-0.02,0.06-0.041,0.119-0.062,0.179c-0.265,0.792-0.54,1.578-0.825,2.361c-0.049,0.135-0.101,0.268-0.151,0.402
	c-0.261,0.706-0.53,1.41-0.808,2.109c-0.065,0.166-0.136,0.331-0.203,0.497c-0.27,0.668-0.547,1.333-0.833,1.993
	c-0.075,0.173-0.152,0.347-0.228,0.521c-0.287,0.653-0.581,1.303-0.883,1.949c-0.079,0.17-0.159,0.338-0.239,0.507
	c-0.309,0.652-0.626,1.301-0.951,1.946c-0.077,0.155-0.155,0.31-0.233,0.464c-0.339,0.663-0.686,1.323-1.04,1.979
	c-0.07,0.13-0.14,0.26-0.21,0.39c-0.378,0.692-0.766,1.381-1.161,2.065c-0.051,0.087-0.101,0.175-0.152,0.264
	c-0.435,0.746-0.88,1.489-1.335,2.227c-0.014,0.021-0.028,0.046-0.042,0.067c-4.355,7.031-9.648,13.592-15.778,19.662
	c-0.005,0.005-0.01,0.011-0.016,0.016c-19.275,19.085-46.828,33.332-79.638,42.123c-30.092,8.063-56.154,6.456-76.17-2.111
	c-0.083-0.035-0.165-0.072-0.247-0.108c-0.672-0.29-1.338-0.589-1.997-0.895c-0.152-0.071-0.302-0.144-0.454-0.215
	c-0.595-0.281-1.184-0.569-1.768-0.862c-0.161-0.081-0.322-0.163-0.482-0.245c-0.585-0.3-1.164-0.606-1.737-0.919
	c-0.138-0.075-0.278-0.149-0.415-0.226c-0.645-0.356-1.282-0.722-1.911-1.094c-0.054-0.031-0.108-0.063-0.162-0.095
	c-1.409-0.839-2.779-1.718-4.108-2.637c-0.061-0.042-0.119-0.083-0.179-0.125c-0.579-0.403-1.15-0.812-1.714-1.229
	c-0.137-0.101-0.271-0.204-0.407-0.306c-0.487-0.365-0.969-0.735-1.444-1.113c-0.154-0.122-0.309-0.245-0.462-0.369
	c-0.459-0.37-0.914-0.746-1.362-1.127c-0.145-0.123-0.29-0.245-0.434-0.369c-0.478-0.413-0.948-0.832-1.413-1.256
	c-0.101-0.092-0.203-0.182-0.303-0.274c-1.145-1.057-2.251-2.148-3.313-3.275c-0.06-0.064-0.12-0.131-0.18-0.195
	c-0.454-0.484-0.899-0.975-1.337-1.472c-0.131-0.147-0.259-0.299-0.389-0.447c-0.364-0.422-0.724-0.846-1.077-1.274
	c-0.146-0.178-0.291-0.357-0.436-0.537c-0.333-0.413-0.661-0.83-0.985-1.252c-0.141-0.185-0.283-0.369-0.423-0.556
	c-0.329-0.438-0.65-0.882-0.968-1.326c-0.121-0.17-0.244-0.337-0.362-0.508c-0.378-0.54-0.747-1.087-1.107-1.639
	c-0.049-0.074-0.102-0.148-0.152-0.224c-0.417-0.645-0.825-1.297-1.222-1.957c-0.053-0.088-0.104-0.179-0.156-0.268
	c-0.329-0.553-0.651-1.11-0.964-1.674c-0.113-0.203-0.222-0.408-0.333-0.613c-0.248-0.456-0.491-0.913-0.729-1.377
	c-0.123-0.238-0.242-0.479-0.362-0.719c-0.219-0.439-0.434-0.883-0.644-1.328c-0.117-0.249-0.233-0.499-0.348-0.749
	c-0.208-0.456-0.409-0.915-0.607-1.376c-0.104-0.239-0.208-0.478-0.308-0.719c-0.216-0.52-0.424-1.044-0.628-1.569
	c-0.072-0.186-0.147-0.368-0.218-0.554c-0.271-0.717-0.532-1.439-0.78-2.169c-0.033-0.093-0.062-0.188-0.093-0.282
	c-0.211-0.632-0.416-1.267-0.611-1.905c-0.075-0.247-0.145-0.494-0.218-0.742c-0.145-0.493-0.287-0.988-0.42-1.487
	c-0.078-0.285-0.151-0.574-0.225-0.861c-0.121-0.472-0.238-0.943-0.35-1.418c-0.07-0.298-0.139-0.597-0.206-0.896
	c-0.106-0.479-0.207-0.961-0.305-1.444c-0.059-0.294-0.119-0.586-0.175-0.882c-0.099-0.523-0.189-1.051-0.278-1.579
	c-0.043-0.256-0.089-0.509-0.129-0.766c-0.124-0.785-0.237-1.573-0.337-2.369l78.529-21.042c2.566,8.993,8.036,14.608,15.372,17.104
	c6.981,2.603,15.867,2.458,23.854,0.317c20.507-5.494,33.448-16.043,32.358-28.413c-3.483-39.66-144.943,26.177-153.731-73.89
	c-0.109-1.231-0.185-2.454-0.245-3.672c-0.014-0.264-0.027-0.529-0.039-0.793c-0.049-1.19-0.081-2.374-0.086-3.549
	c0-0.175,0.002-0.348,0.003-0.522c0-1.086,0.021-2.166,0.06-3.239c0.007-0.194,0.011-0.391,0.02-0.586
	c0.049-1.169,0.122-2.33,0.215-3.484c0.018-0.212,0.038-0.424,0.056-0.635c0.102-1.155,0.221-2.306,0.366-3.447
	c0.003-0.023,0.006-0.048,0.008-0.072c0.152-1.179,0.333-2.348,0.531-3.51c0.032-0.188,0.063-0.375,0.097-0.563
	c0.206-1.166,0.431-2.324,0.683-3.472c0.004-0.021,0.009-0.04,0.014-0.061c0.254-1.155,0.536-2.301,0.836-3.438
	c0.029-0.113,0.058-0.225,0.087-0.337c0.309-1.149,0.639-2.289,0.993-3.419c0.025-0.081,0.052-0.16,0.077-0.241
	c0.732-2.313,1.559-4.585,2.479-6.818c0.031-0.072,0.061-0.145,0.09-0.216c0.939-2.263,1.971-4.484,3.097-6.663
	c0.012-0.022,0.022-0.045,0.035-0.067c15.742-30.42,49.321-52.581,91.688-63.935c43.061-11.538,72.826-4.929,91.608,12.295
	c0.027,0.024,0.054,0.049,0.081,0.072c0.791,0.729,1.561,1.476,2.313,2.24c0.042,0.042,0.084,0.085,0.126,0.128
	c2.282,2.334,4.385,4.838,6.313,7.494c0.045,0.063,0.091,0.124,0.137,0.187c0.614,0.853,1.209,1.719,1.788,2.602
	c0.049,0.074,0.098,0.151,0.147,0.227c1.183,1.82,2.293,3.703,3.329,5.647c0.021,0.037,0.042,0.074,0.063,0.112
	c0.494,0.933,0.97,1.881,1.431,2.839c0.06,0.125,0.12,0.249,0.18,0.374c0.444,0.938,0.875,1.886,1.289,2.848
	c0.054,0.124,0.105,0.251,0.159,0.377c0.421,0.992,0.83,1.993,1.219,3.01c0.006,0.016,0.011,0.032,0.018,0.048
	c0.384,1.01,0.75,2.031,1.103,3.063c0.041,0.121,0.084,0.24,0.125,0.362c0.335,0.995,0.655,2.001,0.961,3.017
	C288.343,404.828,288.398,405.01,288.453,405.193z M1022.077,329.238l-8.352,2.237l2.074,39.822l8.351-2.237
	c7.659-2.053,10.484-8.934,9.208-23.666C1032.389,334.146,1030.49,326.984,1022.077,329.238z M767.432,397.469l-8.35,2.238
	l2.073,39.822l8.351-2.238c7.661-2.053,10.485-8.935,9.209-23.666C777.746,402.377,775.845,395.215,767.432,397.469z
	 M637.673,431.229c-8.038,2.154-9.583,11.586-8.943,22.652c0.812,14.386,2.592,21.647,11.256,19.326
	c8.665-2.321,9.648-10.324,8.961-24.743C648.433,437.364,645.961,429.008,637.673,431.229z M913.802,238.91l-9.515,2.549
	l2.088,23.793l13.918-3.729c7.81-2.093,13.203-6.886,12.395-16.106C931.812,235.454,920.902,237.007,913.802,238.91z
	 M922.326,354.957l-4.837,28.146l12.433-3.331l-7.469-24.849L922.326,354.957z M828.661,290.642
	c-1.958-22.306-9.439-26.39-27.333-21.595l-6.39,1.712l5.012,57.104l7.101-1.903C822.672,321.774,830.436,310.866,828.661,290.642z
	 M432.553,487.201l-7.347,1.968l0.933,17.92l8.226-2.204c2.446-0.722,9.206-2.938,8.627-11.599
	C442.42,484.758,436.069,486.258,432.553,487.201z M514.611,357.44c-0.875-9.964-11.785-8.41-18.886-6.507l-9.515,2.549
	l2.089,23.793l13.917-3.729C510.028,371.454,515.421,366.66,514.611,357.44z M383.143,500.44l-5.4,1.446l0.975,18.717l5.085-1.362
	c7.154-1.985,11.495-4.224,10.985-12.769C394.371,498.441,389.477,498.608,383.143,500.44z M1023.007,209.648l-15.622,4.186
	l1.867,21.265l13.207-3.539c10.366-2.777,15.67-6.938,15.018-14.374C1036.812,209.603,1030.818,207.555,1023.007,209.648z
	 M1623.871,44.724l21.804,138.341c3.641,23.101-11.862,46.953-34.451,53.006L346.878,574.85l8.254,48.725
	c1.211,7.148-3.574,14.292-10.895,16.253L85.524,709.15c-3.758,1.007-7.712,0.431-10.823-1.563
	c-2.989-1.922-4.963-4.923-5.556-8.449l-54.9-324.084c-1.211-7.15,3.573-14.292,10.894-16.253l258.713-69.322
	c3.758-1.007,7.709-0.441,10.824,1.561c2.989,1.922,4.96,4.914,5.557,8.451l9.095,53.688L1576.18,13.726
	C1598.769,7.673,1620.23,21.622,1623.871,44.724z M288.74,300.302c-0.524-0.335-1.268-0.406-2.041-0.198L27.986,369.426
	c-1.941,0.52-3.126,2.432-2.898,3.789l54.9,324.084c0.071,0.457,0.285,0.793,0.648,1.026c0.524,0.336,1.269,0.406,2.041,0.199
	l258.714-69.322c1.941-0.521,3.127-2.433,2.898-3.789l-8.081-47.704l-46.819-276.38C289.315,300.863,289.103,300.537,288.74,300.302
	z M759.231,254.757l9.399,107.069l44.022-11.796c32.805-8.79,52.89-30.002,49.353-70.301c-3.095-35.244-24.954-45.824-57.899-36.997
	L759.231,254.757z M667.662,388.88l85.347-22.869l-2.193-24.983l-51.833,13.889l-1.475-16.804l42.176-11.3l-2.193-24.984
	l-42.177,11.301l-1.345-15.317l49.846-13.356l-2.193-24.982l-83.359,22.336L667.662,388.88z M459.903,444.549l33.514-8.98
	l-2.924-33.311l16.899-4.528c29.396-7.877,41.182-25.95,39.158-49c-1.932-22.009-17.374-32.331-46.77-24.454l-49.277,13.204
	L459.903,444.549z M395.799,495.299c-2.907-2.048-7.515-1.284-11.157-0.309l-12.369,3.314l2.592,49.777l5.211-1.396l-1.099-21.105
	l3.14-0.842c3.579-0.959,8.916-2.389,12.105-4.724c4.957-3.818,6.247-9.615,5.96-15.123
	C399.974,500.91,398.77,497.33,395.799,495.299z M431.854,482.34l-12.118,3.247l2.592,49.777l5.211-1.396l-1.141-21.902l9.104-2.439
	c6.153-1.648,8.258,2.094,8.517,7.072c0.173,3.318,0.997,9.356,2.292,12.239l6.09-1.632l-0.059-1.129
	c-1.255,0.337-1.746-1.752-1.983-2.631c-0.696-3.583-1.2-7.148-1.582-10.814c-1.099-6.435-2.713-8.089-8.834-7.054l-0.006-0.134
	c5.42-2.259,8.593-7.35,8.478-13.241C448.132,480.738,441.712,479.699,431.854,482.34z M381.386,384.614
	c-0.339-3.866,2.73-6.972,10.115-8.95c3.266-0.875,6.301-1.08,8.833-0.389c2.531,0.692,4.573,2.428,5.468,5.993l31.81-8.522
	c-4.059-18.091-18.313-29.797-46.715-22.186c-25.562,6.849-43.301,23.322-41.304,46.074c3.59,40.894,61.402,13.988,62.826,30.196
	c0.443,5.057-4.847,9.366-13.225,11.611c-3.267,0.874-6.895,0.935-9.75-0.127c-2.997-1.024-5.232-3.317-6.283-6.992l-32.094,8.599
	c2.408,19.142,21.465,30.931,48.447,23.7c28.118-7.534,46.8-24.868,44.62-49.702C440.713,374.958,382.795,400.674,381.386,384.614z
	 M476.617,470.346l-5.211,1.396l2.592,49.777l5.212-1.396L476.617,470.346z M528.791,456.367l-5.212,1.396l2.116,40.617
	c0.096,1.859,0.259,3.767,0.415,5.542l-0.125,0.034c-0.748-2.155-1.271-3.631-1.916-5.005l-15.496-37.168l-8.476,2.271l2.592,49.776
	l5.211-1.396l-2.067-39.688c-0.131-2.523-0.328-5.095-0.522-7.6l0.125-0.034c0.594,2.869,1.277,4.976,2.148,7.028l15.259,36.289
	l8.539-2.287L528.791,456.367z M576.694,443.531l-29.574,7.924l0.259,4.979l12.181-3.265l2.333,44.8l5.212-1.396l-2.333-44.8
	l12.181-3.264L576.694,443.531z M637.665,426.185c-14.001,3.751-14.936,17.596-14.341,29.011
	c0.844,13.771,3.171,26.674,16.921,22.989c13.75-3.685,14.751-17.479,14.096-31.301C653.809,435.453,651.415,422.5,637.665,426.185z
	 M648.285,368.5l-51.833,13.889l-1.475-16.803l42.177-11.302l-2.193-24.982l-42.177,11.301l-1.344-15.316l49.845-13.356
	l-2.192-24.983l-83.36,22.336l9.399,107.069l85.347-22.868L648.285,368.5z M702.823,409.735l-5.212,1.396l2.115,40.617
	c0.097,1.859,0.259,3.767,0.416,5.542l-0.125,0.034c-0.749-2.155-1.271-3.631-1.916-5.005l-15.496-37.168l-8.476,2.271l2.591,49.777
	l5.212-1.396l-2.067-39.688c-0.131-2.523-0.329-5.095-0.523-7.6l0.125-0.033c0.595,2.868,1.278,4.975,2.149,7.027l15.259,36.29
	l8.539-2.288L702.823,409.735z M766.545,392.661l-12.934,3.465l2.591,49.778l13.876-3.719c12.746-3.415,14.343-16.764,14.087-29.012
	C783.903,400.795,781.237,388.723,766.545,392.661z M827.57,376.309l-23.545,6.309l2.592,49.776l23.67-6.343l-0.259-4.977
	l-18.46,4.946l-0.957-18.385l17.204-4.609l-0.258-4.978l-17.205,4.609l-0.856-16.46l18.333-4.912L827.57,376.309z M887.404,360.276
	l-9.168,2.457l-7.337,41.266c-0.437,2.608-0.624,5.147-0.806,7.754l-0.126,0.034c-0.417-3.119-0.775-5.109-1.389-7.099
	l-11.251-36.353l-9.229,2.473l2.591,49.776l5.212-1.396l-2.128-40.883c-0.111-2.124-0.351-4.281-0.462-6.405l0.127-0.033
	c0.705,2.57,1.168,4.128,1.698,5.735l12.004,38.573l6.216-1.664l7.743-43.26c0.339-2.042,0.681-4.019,1.094-7.09l0.125-0.033
	c0.238,2.09,0.22,4.18,0.329,6.303l2.137,41.018l5.21-1.396L887.404,360.276z M941.6,396.226l-15.84-46.228l-6.906,1.851
	l-10.845,53.378l5.776-1.548l2.707-15.262l14.88-3.987l4.451,13.344L941.6,396.226z M925.468,285.707
	c29.396-7.877,41.182-25.951,39.157-49.001c-1.932-22.008-17.372-32.33-46.769-24.453l-49.276,13.204l9.398,107.069l33.515-8.98
	l-2.925-33.311L925.468,285.707z M985.718,333.933l-5.21,1.396l2.113,40.617c0.098,1.858,0.26,3.767,0.416,5.543l-0.126,0.033
	c-0.748-2.155-1.27-3.631-1.915-5.005l-15.495-37.168l-8.477,2.271l2.592,49.777l5.211-1.396l-2.065-39.688
	c-0.132-2.522-0.33-5.095-0.524-7.6l0.127-0.033c0.595,2.868,1.277,4.975,2.148,7.027l15.259,36.29l8.538-2.288L985.718,333.933z
	 M1021.189,324.429l-12.935,3.465l2.592,49.777l13.876-3.718c12.746-3.415,14.342-16.764,14.088-29.011
	C1038.547,332.564,1035.881,320.492,1021.189,324.429z M1019.961,184.894l-48.283,12.938l9.399,107.069l33.514-8.98l-3.276-37.326
	l10.225-2.739c15.621-4.186,18.299-0.185,19.525,13.794c0.836,9.518,2.288,16.129,3.349,18.281l33.94-9.094l-0.287-3.271
	c-3.976,1.065-3.969-3.808-5.195-17.786c-1.893-21.563-8.66-22.489-19.818-23.761c11.628-6.617,15.97-18.434,14.886-30.776
	C1066.111,182.422,1054.044,175.762,1019.961,184.894z M1117.809,158.676l-33.515,8.98l9.399,107.069l33.514-8.98L1117.809,158.676z
	 M1237.239,126.675l-32.095,8.6l2.989,34.054l3.42,24.045l-41.627-48.662l-31.384,8.409l9.398,107.069l32.094-8.6l-2.977-33.906
	l-3.419-24.045l41.614,48.514l31.384-8.409L1237.239,126.675z M1317.525,133.929l30.106-8.067l-2.466-28.106l-93.726,25.114
	l2.466,28.105l30.106-8.067l6.933,78.964l33.514-8.98L1317.525,133.929z M1379.142,166.885l-30.106,8.067l2.689,30.634l30.106-8.067
	L1379.142,166.885z M1432.112,71.567c-25.563,6.849-43.302,23.322-41.305,46.074c3.59,40.895,61.402,13.988,62.825,30.198
	c0.443,5.056-4.847,9.365-13.225,11.609c-3.267,0.875-6.895,0.936-9.75-0.126c-2.996-1.024-5.233-3.316-6.282-6.993l-32.094,8.599
	c2.407,19.142,21.465,30.931,48.446,23.701c28.118-7.534,46.8-24.868,44.619-49.703c-3.42-38.961-61.337-13.245-62.747-29.305
	c-0.339-3.866,2.731-6.972,10.116-8.951c3.266-0.875,6.301-1.08,8.832-0.389c2.532,0.692,4.573,2.429,5.469,5.994l31.81-8.523
	C1474.767,75.662,1460.513,63.956,1432.112,71.567z M1577.777,35.427l-83.358,22.336l9.398,107.069l85.347-22.869l-2.193-24.984
	l-51.832,13.89l-1.476-16.803l42.177-11.302l-2.194-24.983l-42.176,11.301l-1.344-15.317l49.845-13.356L1577.777,35.427z"/>
</svg>
