<?xml version="1.0" encoding="utf-8"?>
<!-- Generator: Adobe Illustrator 15.0.0, SVG Export Plug-In . SVG Version: 6.00 Build 0)  -->
<!DOCTYPE svg PUBLIC "-//W3C//DTD SVG 1.1//EN" "http://www.w3.org/Graphics/SVG/1.1/DTD/svg11.dtd">
<svg version="1.1" id="Layer_1" xmlns="http://www.w3.org/2000/svg" xmlns:xlink="http://www.w3.org/1999/xlink" x="0px" y="0px"
	 width="361px" height="84px" viewBox="0 0 361 84" enable-background="new 0 0 361 84" xml:space="preserve">
<g id="XMLID_1_">
	<g id="XMLID_2_">
		<polygon fill="#FFFFFF" points="347.98,23.816 347.066,29.009 336.218,29.009 335.657,32.191 344.838,32.191 343.924,37.384 
			334.743,37.384 334.129,40.876 345.41,40.876 344.496,46.069 325.921,46.069 329.838,23.816 		"/>
		<path fill="#FFFFFF" d="M316.433,23.227c6.184,0,8.44,3.154,8.28,7.047h-6.923c0.012-0.771-0.308-1.236-0.785-1.513
			c-0.477-0.278-1.104-0.401-1.814-0.401c-1.608,0-2.401,0.465-2.541,1.267c-0.587,3.338,12.574,1.268,11.149,9.364
			c-0.911,5.163-5.648,7.665-11.769,7.665c-5.872,0-9.101-3.428-8.548-7.448h6.986c0.014,0.806,0.343,1.392,0.896,1.762
			c0.521,0.373,1.261,0.557,1.972,0.557c1.823,0,3.133-0.586,3.317-1.638c0.593-3.37-12.61-1.051-11.115-9.551
			C306.372,25.609,310.87,23.227,316.433,23.227z"/>
		<polygon fill="#FFFFFF" points="300.491,39.704 299.37,46.069 292.818,46.069 293.938,39.704 		"/>
		<polygon fill="#FFFFFF" points="297.352,23.816 296.325,29.656 289.771,29.656 286.883,46.069 279.587,46.069 282.476,29.656 
			275.925,29.656 276.953,23.816 		"/>
		<polygon fill="#FFFFFF" points="273.862,23.816 269.943,46.069 263.112,46.069 257.302,33.954 256.688,39.022 255.448,46.069 
			248.463,46.069 252.38,23.816 259.211,23.816 265.017,35.963 265.63,30.895 266.876,23.816 		"/>
		<polygon fill="#FFFFFF" points="247.866,23.816 243.95,46.069 236.656,46.069 240.574,23.816 		"/>
		<path fill="#FFFFFF" d="M226.245,42.175c0.513-2.905,0.186-3.864-3.215-3.864h-2.226l-1.365,7.758h-7.294l3.917-22.253h10.511
			c7.417,0,9.503,2.008,8.743,6.336c-0.453,2.565-1.976,4.729-4.696,5.439c2.194,0.866,3.519,1.423,2.73,5.904
			c-0.511,2.905-0.777,3.896,0.086,3.896l-0.12,0.679h-7.386C225.833,45.575,225.897,44.153,226.245,42.175z M228.372,31.325
			c0.277-1.575-0.828-2.316-2.529-2.316h-3.398l-0.779,4.419h2.874C226.795,33.428,228.099,32.871,228.372,31.325z"/>
		<path d="M225.843,29.009c1.701,0,2.807,0.742,2.529,2.316c-0.273,1.546-1.577,2.103-3.833,2.103h-2.874l0.779-4.419H225.843z"/>
		<path fill="#FFFFFF" d="M219.229,52.219c3.197,0,3.081,2.596,2.461,5.123c-0.615,2.502-1.665,5.125-4.44,5.125h-3.02l2.183-10.248
			H219.229z M220.558,57.139c0.417-2.338,0.42-3.896-1.41-3.896h-1.818l-1.747,8.199h1.817
			C219.067,61.441,220.016,60.199,220.558,57.139z"/>
		<path d="M219.147,53.242c1.83,0,1.827,1.559,1.41,3.896c-0.542,3.061-1.49,4.303-3.158,4.303h-1.817l1.747-8.199H219.147z"/>
		<path fill="#FFFFFF" d="M206.289,52.723h-0.027v-0.504h0.844l1.125,8.391c0.058,0.313,0.082,0.641,0.118,1.121h0.027
			c0.066-0.371,0.135-0.766,0.217-1.148l1.78-8.363h1.134l-2.183,10.248h-1.857l-1.123-8.197
			C206.278,53.805,206.253,53.34,206.289,52.723z"/>
		<path fill="#FFFFFF" d="M206.262,52.723c-0.098,0.52-0.196,1.055-0.308,1.574l-1.74,8.17h-1.133l2.181-10.248h1V52.723z"/>
		<path fill="#FFFFFF" d="M204.348,23.816c6.398,0,8.972,2.935,8.165,7.509c-0.842,4.791-4.219,7.821-10.616,7.821h-3.679
			l-1.217,6.923h-7.296l3.917-22.253H204.348z M205.554,31.357c0.364-2.071-1.935-2.348-3.48-2.348h-2.07l-0.871,4.945h3.03
			C203.862,33.954,205.219,33.274,205.554,31.357z"/>
		<path d="M202.073,29.009c1.546,0,3.845,0.277,3.48,2.348c-0.335,1.917-1.691,2.597-3.392,2.597h-3.03l0.871-4.945H202.073z"/>
		<path fill="#FFFFFF" d="M198.457,52.219l0.702,10.248h-1.256l-0.18-2.951h-3.237l-1.382,2.951h-1.257l5.106-10.248H198.457z
			 M197.681,58.49l-0.162-5.451h-0.027l-2.516,5.451H197.681z"/>
		<polygon points="197.519,53.039 197.681,58.49 194.976,58.49 197.491,53.039 		"/>
		<path fill="#FFFFFF" d="M188.839,52.219h1.27l-2.181,10.248h-1.135l1.798-8.443c0.092-0.438,0.21-0.863,0.275-1.301h-0.027V52.219
			z"/>
		<path fill="#FFFFFF" d="M188.839,52.219v0.504c-0.25,0.602-0.426,0.984-0.607,1.383l-3.925,8.361h-1.354l-0.339-8.486
			c-0.021-0.355-0.029-0.695-0.034-1.258v-0.504h0.982l0.307,7.992c0.017,0.438-0.02,0.863-0.103,1.52h0.027
			c0.178-0.52,0.355-1.027,0.584-1.531l3.736-7.98H188.839z"/>
		<path fill="#FFFFFF" d="M182.58,52.219v0.504h-0.027c-0.092,0.438-0.161,0.891-0.255,1.328l-1.792,8.416h-1.133l2.182-10.248
			H182.58z"/>
		<path fill="#FFFFFF" d="M179.589,23.816c7.172,0,11.035,3.338,9.747,10.663c-1.477,8.376-6.71,11.59-13.849,11.59h-9.583
			l3.919-22.253H179.589z M181.969,34.881c0.815-4.636-0.479-5.872-4.375-5.872h-1.389l-2.09,11.868h1.546
			C179.059,40.876,181.229,39.085,181.969,34.881z"/>
		<path d="M177.593,29.009c3.896,0,5.191,1.236,4.375,5.872c-0.74,4.205-2.91,5.996-6.309,5.996h-1.546l2.09-11.868H177.593z"/>
		<polygon fill="#FFFFFF" points="177.087,52.219 176.868,53.242 172.878,53.242 172.157,56.631 175.901,56.631 175.683,57.658 
			171.938,57.658 171.131,61.441 175.15,61.441 174.932,62.467 169.779,62.467 171.961,52.219 		"/>
		<polygon fill="#FFFFFF" points="165.99,23.816 165.076,29.009 154.228,29.009 153.667,32.191 162.846,32.191 161.933,37.384 
			152.751,37.384 152.138,40.876 163.419,40.876 162.505,46.069 143.928,46.069 147.847,23.816 		"/>
		<path fill="#FFFFFF" d="M163.805,52.219c3.197,0,3.082,2.596,2.461,5.123c-0.614,2.502-1.665,5.125-4.438,5.125h-3.021
			l2.182-10.248H163.805z M165.135,57.139c0.415-2.338,0.419-3.896-1.412-3.896h-1.817l-1.748,8.199h1.819
			C163.645,61.441,164.592,60.199,165.135,57.139z"/>
		<path d="M163.723,53.242c1.831,0,1.827,1.559,1.412,3.896c-0.542,3.061-1.49,4.303-3.157,4.303h-1.819l1.748-8.199H163.723z"/>
		<path fill="#FFFFFF" d="M146.803,61.73c0.065-0.371,0.137-0.766,0.216-1.148l1.781-8.363h1.135l-2.182,10.248h-1.858l-1.125-8.197
			c-0.065-0.465-0.088-0.93-0.052-1.547h-0.027v-0.504h0.845l1.125,8.391c0.055,0.313,0.082,0.641,0.116,1.121H146.803z"/>
		<path fill="#FFFFFF" d="M144.689,52.219v0.504c-0.097,0.52-0.197,1.055-0.307,1.574l-1.741,8.17h-1.136l2.183-10.248H144.689z"/>
		<polygon fill="#FFFFFF" points="143.674,23.816 142.759,29.009 131.912,29.009 131.35,32.191 140.531,32.191 139.616,37.384 
			130.438,37.384 129.821,40.876 141.103,40.876 140.188,46.069 121.614,46.069 125.531,23.816 		"/>
		<path fill="#FFFFFF" d="M136.888,57.15c0.498-2.281,0.452-4.111-1.352-4.111c-1.749,0-2.578,1.83-3.049,4.111
			c-0.618,2.967-0.652,4.537,1.234,4.537C135.607,61.688,136.242,60.117,136.888,57.15z M133.503,62.713
			c-2.994,0-2.765-2.748-2.187-5.59c0.5-2.35,1.444-5.109,4.49-5.109c2.994,0,2.775,2.76,2.26,5.109
			C137.449,59.965,136.494,62.713,133.503,62.713z"/>
		<path d="M135.536,53.039c1.804,0,1.85,1.83,1.352,4.111c-0.646,2.967-1.281,4.537-3.167,4.537c-1.886,0-1.852-1.57-1.234-4.537
			C132.958,54.869,133.787,53.039,135.536,53.039z"/>
		<polygon fill="#FFFFFF" points="122.482,52.219 122.264,53.242 119.613,53.242 117.649,62.467 116.514,62.467 118.479,53.242 
			115.828,53.242 116.045,52.219 		"/>
		<path fill="#FFFFFF" d="M113.352,23.816c6.399,0,8.973,2.935,8.167,7.509c-0.842,4.791-4.218,7.821-10.616,7.821h-3.679
			l-1.219,6.923h-7.293l3.917-22.253H113.352z M114.561,31.357c0.363-2.071-1.936-2.348-3.482-2.348h-2.07l-0.871,4.945h3.029
			C112.866,33.954,114.223,33.274,114.561,31.357z"/>
		<path d="M111.079,29.009c1.546,0,3.845,0.277,3.482,2.348c-0.338,1.917-1.695,2.597-3.394,2.597h-3.029l0.871-4.945H111.079z"/>
		<path fill="#FFFFFF" d="M108.896,61.73h0.027c0.066-0.371,0.137-0.766,0.217-1.148l1.781-8.363h1.135l-2.183,10.248h-1.858
			l-1.125-8.197c-0.065-0.465-0.088-0.93-0.052-1.547h-0.027v-0.504h0.845l1.125,8.391C108.836,60.922,108.863,61.25,108.896,61.73z
			"/>
		<path d="M221.69,57.342c0.62-2.527,0.736-5.123-2.461-5.123h-2.816l-2.183,10.248h3.02
			C220.025,62.467,221.075,59.844,221.69,57.342z M223.03,38.312c3.4,0,3.728,0.958,3.215,3.864c-0.348,1.978-0.412,3.4-0.314,3.894
			h7.386l0.12-0.679c-0.863,0-0.597-0.991-0.086-3.896c0.788-4.48-0.536-5.038-2.73-5.904c2.721-0.71,4.243-2.874,4.696-5.439
			c0.76-4.328-1.326-6.336-8.743-6.336h-10.511l-3.917,22.253h7.294l1.365-7.758H223.03z M133.503,62.713
			c2.991,0,3.946-2.748,4.564-5.59c0.515-2.35,0.734-5.109-2.26-5.109c-3.046,0-3.991,2.76-4.49,5.109
			C130.738,59.965,130.509,62.713,133.503,62.713z M109.141,60.582c-0.081,0.383-0.151,0.777-0.217,1.148h-0.027
			c-0.033-0.48-0.061-0.809-0.115-1.121l-1.125-8.391h-0.845h-1l-2.182,10.248h1.135l1.739-8.17c0.112-0.52,0.21-1.055,0.309-1.574
			h0.027c-0.036,0.617-0.013,1.082,0.052,1.547l1.125,8.197h1.858l2.183-10.248h-1.135L109.141,60.582z M8.286,77.118h56.311
			c0.422,0,0.767-0.323,0.794-0.61l0.851-9.046l0.109-1.154l0.112-1.176l4.207-44.606l0.111-1.192l0.109-1.165l0.986-10.46
			c0.01-0.098-0.015-0.177-0.076-0.245c-0.088-0.097-0.235-0.151-0.403-0.151h-56.31c-0.423,0-0.767,0.324-0.794,0.612l-6.486,68.8
			c-0.01,0.098,0.015,0.178,0.076,0.244C7.971,77.063,8.119,77.118,8.286,77.118z M90.213,57.959c1.339,0,1.564,0.873,1.346,1.896
			c-0.146,0.684-0.307,1.955-0.2,2.611h1.325l0.05-0.232c-0.273,0-0.258-0.449-0.261-0.641c0.055-0.766,0.147-1.52,0.268-2.283
			c0.128-1.367-0.109-1.789-1.409-1.914l0.006-0.027c1.224-0.164,2.145-1.023,2.441-2.227c0.572-2.365-0.675-2.924-2.821-2.924
			h-2.636l-2.182,10.248h1.133l0.96-4.508H90.213z M83.299,55.074c0.174-0.82,0.126-1.613-0.368-2.188
			c-0.48-0.572-1.458-0.668-2.25-0.668h-2.69l-2.183,10.248h1.133l0.927-4.344h0.684c0.778,0,1.941,0,2.714-0.301
			C82.481,57.314,83.057,56.209,83.299,55.074z M86.713,41.526c-0.711,0-1.451-0.185-1.972-0.557
			c-0.553-0.37-0.884-0.956-0.896-1.762h-6.985c-0.553,4.021,2.675,7.448,8.548,7.448c6.12,0,10.857-2.502,11.765-7.665
			c1.425-8.096-11.735-6.026-11.146-9.364c0.14-0.802,0.933-1.267,2.54-1.267c0.713,0,1.339,0.124,1.816,0.401
			c0.476,0.277,0.797,0.742,0.784,1.513h6.923c0.16-3.893-2.098-7.047-8.279-7.047c-5.564,0-10.064,2.382-10.894,7.11
			c-1.497,8.5,11.706,6.181,11.113,9.551C89.846,40.94,88.538,41.526,86.713,41.526z M317.005,28.761
			c0.478,0.277,0.797,0.742,0.785,1.513h6.923c0.16-3.893-2.097-7.047-8.28-7.047c-5.563,0-10.061,2.382-10.895,7.11
			c-1.495,8.5,11.708,6.181,11.115,9.551c-0.185,1.052-1.494,1.638-3.317,1.638c-0.711,0-1.451-0.185-1.972-0.557
			c-0.553-0.37-0.882-0.956-0.896-1.762h-6.986c-0.553,4.021,2.676,7.448,8.548,7.448c6.12,0,10.857-2.502,11.769-7.665
			c1.425-8.096-11.736-6.026-11.149-9.364c0.14-0.802,0.933-1.267,2.541-1.267C315.901,28.359,316.528,28.483,317.005,28.761z
			 M205.954,54.297c0.111-0.52,0.21-1.055,0.308-1.574h0.027c-0.036,0.617-0.011,1.082,0.055,1.547l1.123,8.197h1.857l2.183-10.248
			h-1.134l-1.78,8.363c-0.082,0.383-0.15,0.777-0.217,1.148h-0.027c-0.036-0.48-0.061-0.809-0.118-1.121l-1.125-8.391h-0.844h-1
			l-2.181,10.248h1.133L205.954,54.297z M189.336,34.479c1.288-7.325-2.575-10.663-9.747-10.663h-9.765l-3.919,22.253h9.583
			C182.626,46.069,187.859,42.855,189.336,34.479z M184.378,60.199c-0.229,0.504-0.406,1.012-0.584,1.531h-0.027
			c0.083-0.656,0.119-1.082,0.103-1.52l-0.307-7.992h-0.982h-1.025l-2.182,10.248h1.133l1.792-8.416
			c0.094-0.438,0.163-0.891,0.255-1.328h0.027c0.005,0.563,0.013,0.902,0.034,1.258l0.339,8.486h1.354l3.925-8.361
			c0.182-0.398,0.357-0.781,0.607-1.383h0.027c-0.065,0.438-0.184,0.863-0.275,1.301l-1.798,8.443h1.135l2.181-10.248h-1.27h-0.725
			L184.378,60.199z M166.266,57.342c0.621-2.527,0.736-5.123-2.461-5.123h-2.816l-2.182,10.248h3.021
			C164.601,62.467,165.652,59.844,166.266,57.342z M147.019,60.582c-0.08,0.383-0.151,0.777-0.216,1.148h-0.027
			c-0.034-0.48-0.062-0.809-0.116-1.121l-1.125-8.391h-0.845h-1l-2.183,10.248h1.136l1.741-8.17c0.109-0.52,0.21-1.055,0.307-1.574
			h0.027c-0.036,0.617-0.013,1.082,0.052,1.547l1.125,8.197h1.858l2.182-10.248H148.8L147.019,60.582z M353.932,18.533
			c1.051,0.534,1.646,1.56,1.552,2.674l-3.807,43.477c-0.09,1.03-0.759,1.952-1.784,2.461c-0.514,0.251-1.081,0.383-1.647,0.383
			H68.562l-0.868,9.196c-0.143,1.518-1.503,2.709-3.097,2.709H8.286c-0.817,0-1.589-0.33-2.112-0.908
			c-0.502-0.552-0.74-1.27-0.669-2.017l6.486-68.8C12.134,6.189,13.495,5,15.088,5h56.31c0.817,0,1.589,0.33,2.113,0.906
			c0.502,0.553,0.74,1.268,0.668,2.018l-0.965,10.24h279.148C352.921,18.164,353.465,18.291,353.932,18.533z M347.066,29.009
			l0.914-5.193h-18.143l-3.917,22.253h18.575l0.914-5.193h-11.281l0.614-3.492h9.181l0.914-5.193h-9.181l0.561-3.183H347.066z
			 M299.37,46.069l1.121-6.366h-6.554l-1.119,6.366H299.37z M296.325,29.656l1.026-5.84h-20.398l-1.028,5.84h6.551l-2.889,16.413
			h7.296l2.888-16.413H296.325z M269.943,46.069l3.919-22.253h-6.986l-1.246,7.079l-0.613,5.069l-5.806-12.147h-6.831l-3.917,22.253
			h6.985l1.24-7.047l0.613-5.069l5.811,12.116H269.943z M243.95,46.069l3.916-22.253h-7.292l-3.918,22.253H243.95z M212.513,31.325
			c0.807-4.574-1.767-7.509-8.165-7.509h-10.726l-3.917,22.253h7.296l1.217-6.923h3.679
			C208.294,39.146,211.671,36.116,212.513,31.325z M199.159,62.467l-0.702-10.248h-1.503l-5.106,10.248h1.257l1.382-2.951h3.237
			l0.18,2.951H199.159z M176.868,53.242l0.219-1.023h-5.125l-2.182,10.248h5.152l0.219-1.025h-4.02l0.808-3.783h3.744l0.219-1.027
			h-3.744l0.721-3.389H176.868z M165.076,29.009l0.914-5.193h-18.144l-3.918,22.253h18.577l0.914-5.193h-11.281l0.613-3.492h9.182
			l0.913-5.193h-9.179l0.561-3.183H165.076z M142.759,29.009l0.915-5.193h-18.143l-3.917,22.253h18.574l0.915-5.193h-11.282
			l0.616-3.492h9.179l0.915-5.193h-9.181l0.562-3.183H142.759z M122.264,53.242l0.219-1.023h-6.437l-0.217,1.023h2.651l-1.966,9.225
			h1.136l1.963-9.225H122.264z M121.519,31.325c0.806-4.574-1.768-7.509-8.167-7.509h-10.724l-3.917,22.253h7.293l1.219-6.923h3.679
			C117.301,39.146,120.677,36.116,121.519,31.325z M98.517,62.467l2.183-10.248h-1.133l-2.182,10.248H98.517z"/>
		<path fill="#FFFFFF" d="M106.812,52.219v0.504c-0.099,0.52-0.197,1.055-0.309,1.574l-1.739,8.17h-1.135l2.182-10.248H106.812z"/>
		<polygon fill="#FFFFFF" points="100.7,52.219 98.517,62.467 97.384,62.467 99.566,52.219 		"/>
		<path fill="#FFFFFF" d="M92.684,62.467h-1.325c-0.106-0.656,0.055-1.928,0.2-2.611c0.219-1.023-0.007-1.896-1.346-1.896h-1.981
			l-0.96,4.508h-1.133l2.182-10.248h2.636c2.146,0,3.393,0.559,2.821,2.924c-0.296,1.203-1.217,2.063-2.441,2.227l-0.006,0.027
			c1.3,0.125,1.538,0.547,1.409,1.914c-0.121,0.764-0.213,1.518-0.268,2.283c0.003,0.191-0.013,0.641,0.261,0.641L92.684,62.467z
			 M92.625,55.047c0.347-1.762-1.023-1.805-1.789-1.805h-1.6l-0.785,3.689h1.79C90.777,56.92,92.269,56.838,92.625,55.047z"/>
		<path d="M90.835,53.242c0.766,0,2.136,0.043,1.789,1.805c-0.355,1.791-1.847,1.873-2.384,1.885h-1.79l0.785-3.689H90.835z"/>
		<path fill="#FFFFFF" d="M84.741,40.969c0.521,0.373,1.261,0.557,1.972,0.557c1.824,0,3.132-0.586,3.317-1.638
			c0.593-3.37-12.61-1.051-11.113-9.551c0.83-4.728,5.33-7.11,10.894-7.11c6.182,0,8.439,3.154,8.279,7.047h-6.923
			c0.013-0.771-0.308-1.236-0.784-1.513c-0.477-0.278-1.103-0.401-1.816-0.401c-1.606,0-2.399,0.465-2.54,1.267
			c-0.589,3.338,12.571,1.268,11.146,9.364c-0.907,5.163-5.645,7.665-11.765,7.665c-5.874,0-9.101-3.428-8.548-7.448h6.985
			C83.857,40.013,84.188,40.599,84.741,40.969z"/>
		<path fill="#FFFFFF" d="M80.681,52.219c0.792,0,1.77,0.096,2.25,0.668c0.494,0.574,0.542,1.367,0.368,2.188
			c-0.242,1.135-0.818,2.24-2.033,2.748c-0.773,0.301-1.936,0.301-2.714,0.301h-0.684l-0.927,4.344h-1.133l2.183-10.248H80.681z
			 M82.117,55.102c0.354-1.652-0.649-1.887-2.034-1.859h-1.176l-0.822,3.854h1.108C80.752,57.084,81.755,56.865,82.117,55.102z"/>
		<path d="M80.083,53.242c1.385-0.027,2.388,0.207,2.034,1.859c-0.361,1.764-1.364,1.982-2.924,1.994h-1.108l0.822-3.854H80.083z"/>
		<path fill="#FFFFFF" d="M71.397,7.312c0.168,0,0.315,0.055,0.403,0.151c0.062,0.067,0.086,0.147,0.076,0.245l-0.986,10.46
			l-0.109,1.165l-0.111,1.192l-4.207,44.606l-0.112,1.176l-0.109,1.154l-0.851,9.046c-0.027,0.287-0.373,0.61-0.794,0.61H8.286
			c-0.167,0-0.315-0.055-0.403-0.15c-0.061-0.066-0.086-0.146-0.076-0.244l6.486-68.8c0.027-0.288,0.372-0.612,0.794-0.612H71.397z
			 M34.995,70.308c14.975,0,26.565-6.125,28.787-18.756c3.488-19.814-28.716-14.748-27.278-22.915
			c0.347-1.968,2.286-3.101,6.219-3.101c1.739,0,3.273,0.302,4.44,0.981c1.165,0.682,1.949,1.816,1.92,3.707h16.94
			c0.392-9.53-5.134-17.244-20.26-17.244c-13.613,0-24.622,5.823-26.659,17.395c-3.66,20.799,28.649,15.127,27.199,23.369
			c-0.452,2.572-3.654,4.01-8.117,4.01c-1.739,0-3.551-0.453-4.827-1.362c-1.354-0.905-2.16-2.345-2.191-4.31H14.076
			C12.723,61.911,20.625,70.308,34.995,70.308z"/>
		<path d="M33.36,56.392c1.275,0.909,3.088,1.362,4.827,1.362c4.463,0,7.665-1.438,8.117-4.01
			c1.451-8.242-30.858-2.57-27.199-23.369C21.142,18.803,32.15,12.98,45.764,12.98c15.126,0,20.651,7.713,20.26,17.244h-16.94
			c0.029-1.89-0.755-3.025-1.92-3.707c-1.167-0.679-2.701-0.981-4.44-0.981c-3.933,0-5.872,1.133-6.219,3.101
			c-1.438,8.167,30.766,3.101,27.278,22.915C61.561,64.183,49.97,70.308,34.995,70.308c-14.37,0-22.272-8.396-20.919-18.226h17.093
			C31.2,54.047,32.005,55.486,33.36,56.392z"/>
	</g>
</g>
</svg>
