<?xml version="1.0" encoding="utf-8"?>
<!-- Generator: Adobe Illustrator 15.0.0, SVG Export Plug-In . SVG Version: 6.00 Build 0)  -->
<!DOCTYPE svg PUBLIC "-//W3C//DTD SVG 1.1//EN" "http://www.w3.org/Graphics/SVG/1.1/DTD/svg11.dtd">
<svg version="1.1" xmlns="http://www.w3.org/2000/svg" xmlns:xlink="http://www.w3.org/1999/xlink" x="0px" y="0px"
	 width="360.992px" height="83.99px" viewBox="0 0 360.992 83.99" enable-background="new 0 0 360.992 83.99" xml:space="preserve">
<g id="Layer_2">
	<g>
		<g>
			<path d="M350.793,57.209c-0.516,4.871-4.944,8.855-9.842,8.855H15.077c-4.897,0-8.481-3.984-7.966-8.855l3.087-29.163
				c0.516-4.87,4.944-8.854,9.841-8.854h325.875c4.897,0,8.482,3.985,7.967,8.854L350.793,57.209z"/>
		</g>
		<g>
			<path fill="#FFFFFF" d="M89.264,30.102c0.012-0.77-0.307-1.231-0.781-1.509c-0.475-0.277-1.1-0.4-1.809-0.4
				c-1.601,0-2.39,0.461-2.531,1.262c-0.584,3.325,12.523,1.262,11.104,9.328c-0.904,5.142-5.623,7.634-11.719,7.634
				c-5.85,0-9.064-3.416-8.514-7.419h6.957c0.014,0.801,0.341,1.385,0.892,1.755c0.521,0.37,1.257,0.554,1.966,0.554
				c1.816,0,3.119-0.585,3.304-1.632c0.591-3.355-12.562-1.046-11.071-9.513c0.83-4.71,5.311-7.081,10.852-7.081
				c6.158,0,8.406,3.14,8.247,7.02H89.264z"/>
			<path fill="#FFFFFF" d="M96.776,45.834l3.901-22.167h10.684c6.373,0,8.937,2.925,8.135,7.481
				c-0.84,4.772-4.203,7.789-10.576,7.789h-3.664l-1.214,6.896H96.776z M109.184,33.766c1.693,0,3.044-0.677,3.38-2.586
				c0.362-2.063-1.929-2.339-3.468-2.339h-2.063l-0.867,4.926H109.184z"/>
			<path fill="#FFFFFF" d="M119.589,45.834l3.901-22.167h18.072l-0.91,5.172h-10.807l-0.559,3.171h9.145l-0.91,5.172h-9.145
				l-0.611,3.479h11.236l-0.91,5.172H119.589z"/>
			<path fill="#FFFFFF" d="M141.816,45.834l3.902-22.167h18.071l-0.91,5.172h-10.806l-0.559,3.171h9.144l-0.911,5.172h-9.143
				l-0.613,3.479h11.237l-0.91,5.172H141.816z"/>
			<path fill="#FFFFFF" d="M163.705,45.834l3.902-22.167h9.729c7.143,0,10.99,3.325,9.706,10.622
				c-1.469,8.342-6.681,11.545-13.792,11.545H163.705z M171.882,40.662h1.539c3.387,0,5.548-1.786,6.285-5.973
				c0.813-4.618-0.479-5.849-4.358-5.849h-1.385L171.882,40.662z"/>
			<path fill="#FFFFFF" d="M187.412,45.834l3.901-22.167h10.683c6.373,0,8.937,2.925,8.135,7.481
				c-0.84,4.772-4.203,7.789-10.576,7.789h-3.664l-1.214,6.896H187.412z M199.818,33.766c1.693,0,3.044-0.677,3.38-2.586
				c0.363-2.063-1.928-2.339-3.467-2.339h-2.063l-0.867,4.926H199.818z"/>
			<path fill="#FFFFFF" d="M218.389,38.106l-1.36,7.728h-7.266l3.901-22.167h10.468c7.389,0,9.469,2.001,8.71,6.312
				c-0.45,2.555-1.969,4.71-4.679,5.418c2.188,0.862,3.506,1.417,2.721,5.88c-0.51,2.895-0.775,3.879,0.087,3.879l-0.119,0.678
				h-7.358c-0.098-0.492-0.033-1.908,0.313-3.879c0.51-2.894,0.185-3.848-3.202-3.848H218.389z M219.244,33.242h2.863
				c2.248,0,3.546-0.554,3.816-2.094c0.276-1.57-0.824-2.309-2.518-2.309h-3.387L219.244,33.242z"/>
			<path fill="#FFFFFF" d="M234.177,45.834l3.901-22.167h7.266l-3.901,22.167H234.177z"/>
			<path fill="#FFFFFF" d="M262.425,35.767l0.611-5.049l1.241-7.05h6.958l-3.902,22.167h-6.804l-5.787-12.068l-0.612,5.049
				l-1.235,7.02h-6.957l3.901-22.167h6.804L262.425,35.767z"/>
			<path fill="#FFFFFF" d="M274.313,23.667h20.319l-1.024,5.819h-6.526l-2.878,16.348h-7.266l2.878-16.348h-6.526L274.313,23.667z"
				/>
			<path fill="#FFFFFF" d="M290.115,45.834l1.116-6.342h6.527l-1.116,6.342H290.115z"/>
			<path fill="#FFFFFF" d="M314.989,30.102c0.013-0.77-0.307-1.231-0.781-1.509c-0.475-0.277-1.1-0.4-1.808-0.4
				c-1.601,0-2.391,0.461-2.531,1.262c-0.585,3.325,12.523,1.262,11.104,9.328c-0.904,5.142-5.623,7.634-11.719,7.634
				c-5.85,0-9.065-3.416-8.515-7.419h6.958c0.013,0.801,0.341,1.385,0.892,1.755c0.52,0.37,1.257,0.554,1.965,0.554
				c1.816,0,3.12-0.585,3.305-1.632c0.591-3.355-12.562-1.046-11.071-9.513c0.829-4.71,5.31-7.081,10.852-7.081
				c6.157,0,8.406,3.14,8.246,7.02H314.989z"/>
			<path fill="#FFFFFF" d="M323.088,45.834l3.901-22.167h18.071l-0.91,5.172h-10.806l-0.559,3.171h9.144l-0.91,5.172h-9.144
				l-0.612,3.479h11.237l-0.911,5.172H323.088z"/>
			<path fill="#FFFFFF" d="M73.965,62.166l2.174-10.209h2.682c0.789,0,1.762,0.096,2.239,0.668c0.491,0.572,0.54,1.361,0.366,2.178
				c-0.24,1.129-0.814,2.232-2.025,2.736c-0.771,0.299-1.928,0.299-2.703,0.299h-0.682l-0.922,4.328H73.965z M76.233,56.816h1.103
				c1.555-0.014,2.554-0.23,2.914-1.986c0.351-1.646-0.648-1.879-2.029-1.852h-1.17L76.233,56.816z"/>
			<path fill="#FFFFFF" d="M85.384,62.166h-1.13l2.174-10.209h2.627c2.137,0,3.379,0.559,2.811,2.914
				c-0.297,1.197-1.214,2.055-2.433,2.219l-0.006,0.027c1.294,0.121,1.53,0.543,1.404,1.904c-0.121,0.764-0.213,1.512-0.267,2.273
				c0.001,0.191-0.014,0.641,0.26,0.641l-0.05,0.23h-1.32c-0.106-0.652,0.055-1.918,0.2-2.6c0.217-1.021-0.006-1.893-1.34-1.893
				H86.34L85.384,62.166z M86.558,56.654h1.783c0.534-0.014,2.021-0.096,2.374-1.879c0.346-1.756-1.02-1.797-1.782-1.797H87.34
				L86.558,56.654z"/>
			<path fill="#FFFFFF" d="M95.455,62.166l2.174-10.209h1.131l-2.174,10.209H95.455z"/>
			<path fill="#FFFFFF" d="M108.939,51.957h1.131l-2.174,10.209h-1.852L104.926,54c-0.064-0.463-0.089-0.926-0.054-1.539h-0.027
				c-0.097,0.518-0.196,1.049-0.306,1.566l-1.733,8.139h-1.13l2.174-10.209h1.838l1.119,8.357c0.057,0.314,0.082,0.641,0.116,1.117
				h0.027c0.064-0.367,0.136-0.762,0.216-1.145L108.939,51.957z"/>
			<path fill="#FFFFFF" d="M114.043,51.957h6.412l-0.218,1.021h-2.641l-1.956,9.188h-1.13l1.956-9.188h-2.641L114.043,51.957z"/>
			<path fill="#FFFFFF" d="M133.728,51.754c2.981,0,2.763,2.75,2.251,5.09c-0.617,2.832-1.566,5.568-4.547,5.568
				c-2.981,0-2.753-2.736-2.178-5.568C129.753,54.504,130.691,51.754,133.728,51.754z M133.455,52.775
				c-1.742,0-2.565,1.822-3.036,4.096c-0.615,2.955-0.649,4.52,1.229,4.52s2.512-1.564,3.154-4.52
				C135.3,54.598,135.252,52.775,133.455,52.775z"/>
			<path fill="#FFFFFF" d="M146.668,51.957h1.131l-2.174,10.209h-1.852L142.654,54c-0.064-0.463-0.089-0.926-0.054-1.539h-0.027
				c-0.097,0.518-0.196,1.049-0.306,1.566l-1.733,8.139h-1.13l2.174-10.209h1.838l1.119,8.357c0.057,0.314,0.082,0.641,0.116,1.117
				h0.027c0.064-0.367,0.136-0.762,0.216-1.145L146.668,51.957z"/>
			<path fill="#FFFFFF" d="M156.635,62.166l2.174-10.209h2.805c3.185,0,3.07,2.586,2.451,5.105c-0.611,2.49-1.658,5.104-4.421,5.104
				H156.635z M157.982,61.146h1.811c1.66,0,2.605-1.24,3.145-4.289c0.414-2.328,0.418-3.879-1.406-3.879h-1.811L157.982,61.146z"/>
			<path fill="#FFFFFF" d="M167.564,62.166l2.174-10.209h5.104l-0.217,1.021h-3.975l-0.719,3.375h3.73l-0.219,1.021h-3.729
				l-0.803,3.771h4.002l-0.218,1.02H167.564z"/>
			<path fill="#FFFFFF" d="M185.826,51.957h1.987l-2.174,10.209h-1.129l1.791-8.412c0.093-0.436,0.21-0.857,0.275-1.293h-0.027
				c-0.25,0.6-0.427,0.98-0.606,1.375l-3.91,8.33h-1.348l-0.338-8.453c-0.02-0.354-0.028-0.693-0.032-1.252h-0.027
				c-0.093,0.436-0.161,0.885-0.254,1.32l-1.785,8.385h-1.13l2.174-10.209h2.001l0.306,7.963c0.016,0.436-0.02,0.857-0.104,1.512
				h0.027c0.178-0.518,0.354-1.021,0.583-1.525L185.826,51.957z"/>
			<path fill="#FFFFFF" d="M194.632,51.957h1.497l0.699,10.209h-1.253l-0.177-2.939h-3.226l-1.375,2.939h-1.252L194.632,51.957z
				 M195.193,52.775h-0.027l-2.504,5.43h2.695L195.193,52.775z"/>
			<path fill="#FFFFFF" d="M207.998,51.957h1.13l-2.174,10.209h-1.852L203.983,54c-0.064-0.463-0.089-0.926-0.054-1.539h-0.027
				c-0.097,0.518-0.196,1.049-0.306,1.566l-1.733,8.139h-1.13l2.174-10.209h1.838l1.119,8.357c0.057,0.314,0.082,0.641,0.116,1.117
				h0.027c0.064-0.367,0.136-0.762,0.217-1.145L207.998,51.957z"/>
			<path fill="#FFFFFF" d="M211.84,62.166l2.174-10.209h2.804c3.186,0,3.07,2.586,2.452,5.105c-0.612,2.49-1.658,5.104-4.422,5.104
				H211.84z M213.187,61.146h1.811c1.661,0,2.605-1.24,3.146-4.289c0.414-2.328,0.418-3.879-1.406-3.879h-1.811L213.187,61.146z"/>
		</g>
	</g>
</g>
<g id="Layer_1">
</g>
</svg>
