<?xml version="1.0" encoding="utf-8"?>
<!-- Generator: Adobe Illustrator 15.0.0, SVG Export Plug-In . SVG Version: 6.00 Build 0)  -->
<!DOCTYPE svg PUBLIC "-//W3C//DTD SVG 1.1//EN" "http://www.w3.org/Graphics/SVG/1.1/DTD/svg11.dtd">
<svg version="1.1" id="Layer_1" xmlns="http://www.w3.org/2000/svg" xmlns:xlink="http://www.w3.org/1999/xlink" x="0px" y="0px"
	 width="79px" height="83.99px" viewBox="0 0 79 83.99" enable-background="new 0 0 79 83.99" xml:space="preserve">
<g id="Layer_2">
</g>
<g id="Layer_1_1_">
	<g>
		<g id="XMLID_5_">
			<path fill="#0290D0" d="M46.967,6.125c18.627,0,25.431,9.5,24.95,21.235H51.055c0.036-2.328-0.929-3.726-2.364-4.565
				c-1.437-0.835-3.327-1.209-5.469-1.209c-4.844,0-7.231,1.396-7.659,3.819c-1.771,10.059,37.89,3.819,33.594,28.222
				c-2.736,15.555-17.011,23.099-35.454,23.099c-17.697,0-27.429-10.341-25.761-22.446h21.049c0.039,2.423,1.03,4.193,2.698,5.309
				c1.571,1.117,3.803,1.678,5.945,1.678c5.497,0,9.44-1.772,9.996-4.938c1.786-10.152-38.002-3.166-33.496-28.78
				C16.645,13.297,30.201,6.125,46.967,6.125z"/>
		</g>
	</g>
</g>
</svg>
