<?xml version="1.0" encoding="utf-8"?>
<!-- Generator: Adobe Illustrator 15.0.0, SVG Export Plug-In . SVG Version: 6.00 Build 0)  -->
<!DOCTYPE svg PUBLIC "-//W3C//DTD SVG 1.1//EN" "http://www.w3.org/Graphics/SVG/1.1/DTD/svg11.dtd">
<svg version="1.1" xmlns="http://www.w3.org/2000/svg" xmlns:xlink="http://www.w3.org/1999/xlink" x="0px" y="0px" width="79px"
	 height="83.99px" viewBox="0 0 79 83.99" enable-background="new 0 0 79 83.99" xml:space="preserve">
<g id="Layer_2">
</g>
<g id="Layer_1">
	<g>
		<g id="XMLID_5_">
			<path fill="#FFFFFF" d="M71.54,7.38c0.061,0.067,0.086,0.145,0.075,0.243l-6.46,68.527c-0.027,0.287-0.371,0.609-0.792,0.609
				H8.277c-0.167,0-0.314-0.055-0.402-0.15c-0.061-0.066-0.086-0.146-0.076-0.242l6.46-68.528c0.027-0.287,0.371-0.609,0.792-0.609
				h56.086C71.306,7.23,71.452,7.284,71.54,7.38z M65.786,30.051c0.389-9.493-5.114-17.175-20.18-17.175
				c-13.559,0-24.523,5.8-26.553,17.326c-3.646,20.717,28.536,15.066,27.091,23.277c-0.45,2.561-3.64,3.994-8.085,3.994
				c-1.731,0-3.537-0.453-4.808-1.357c-1.349-0.902-2.151-2.334-2.182-4.293H14.044c-1.349,9.791,6.523,18.154,20.835,18.154
				c14.916,0,26.46-6.102,28.674-18.682c3.474-19.737-28.603-14.69-27.17-22.825c0.345-1.96,2.276-3.089,6.194-3.089
				c1.732,0,3.261,0.302,4.423,0.978c1.16,0.678,1.941,1.809,1.912,3.692H65.786z"/>
			<path d="M73.242,5.829c0.5,0.551,0.737,1.263,0.666,2.011l-6.46,68.528c-0.143,1.512-1.498,2.697-3.084,2.697H8.277
				c-0.814,0-1.583-0.332-2.104-0.902c-0.5-0.551-0.737-1.266-0.666-2.012l6.46-68.527c0.142-1.512,1.497-2.697,3.084-2.697h56.086
				C71.953,4.926,72.721,5.255,73.242,5.829z M71.615,7.624c0.011-0.099-0.015-0.176-0.075-0.243
				c-0.088-0.096-0.234-0.15-0.402-0.15H15.051c-0.421,0-0.765,0.322-0.792,0.609l-6.46,68.528c-0.01,0.096,0.015,0.176,0.076,0.242
				c0.088,0.096,0.234,0.15,0.402,0.15h56.087c0.421,0,0.764-0.322,0.792-0.609L71.615,7.624z"/>
			<path d="M45.605,12.875c15.066,0,20.569,7.683,20.18,17.175H48.912c0.029-1.883-0.751-3.014-1.912-3.692
				c-1.162-0.676-2.691-0.978-4.423-0.978c-3.918,0-5.849,1.129-6.194,3.089c-1.433,8.135,30.644,3.088,27.17,22.825
				c-2.213,12.58-13.758,18.682-28.674,18.682c-14.313,0-22.184-8.363-20.835-18.154h17.024c0.031,1.959,0.833,3.391,2.182,4.293
				c1.271,0.904,3.076,1.357,4.808,1.357c4.446,0,7.635-1.434,8.085-3.994c1.445-8.211-30.736-2.561-27.091-23.277
				C21.082,18.676,32.046,12.875,45.605,12.875z"/>
		</g>
	</g>
</g>
</svg>
