<?xml version="1.0" encoding="utf-8"?>
<!-- Generator: Adobe Illustrator 15.0.0, SVG Export Plug-In . SVG Version: 6.00 Build 0)  -->
<!DOCTYPE svg PUBLIC "-//W3C//DTD SVG 1.1//EN" "http://www.w3.org/Graphics/SVG/1.1/DTD/svg11.dtd">
<svg version="1.1" id="Layer_1" xmlns="http://www.w3.org/2000/svg" xmlns:xlink="http://www.w3.org/1999/xlink" x="0px" y="0px"
	 width="64px" height="64px" viewBox="0 0 64 64" enable-background="new 0 0 64 64" xml:space="preserve">
<g>
	<g id="XMLID_1_">
		<g id="XMLID_2_">
			<path fill="#FFFFFF" d="M59.479,2.119c0.053,0.058,0.074,0.125,0.065,0.209l-5.577,59.157c-0.023,0.248-0.319,0.526-0.683,0.526
				H4.867c-0.145,0-0.271-0.047-0.347-0.13c-0.053-0.058-0.074-0.127-0.065-0.21l5.577-59.157c0.023-0.248,0.319-0.526,0.683-0.526
				h48.418C59.277,1.989,59.404,2.036,59.479,2.119z"/>
			<path d="M4.867,62.012h48.418c0.363,0,0.659-0.278,0.683-0.526l5.577-59.157c0.009-0.085-0.013-0.152-0.065-0.209
				c-0.075-0.083-0.202-0.13-0.347-0.13H10.715c-0.363,0-0.659,0.278-0.683,0.526L4.455,61.672c-0.009,0.083,0.013,0.152,0.065,0.21
				C4.596,61.965,4.723,62.012,4.867,62.012z M60.949,0.779c0.433,0.476,0.637,1.092,0.575,1.735l-5.577,59.157
				C55.824,62.978,54.655,64,53.285,64H4.867c-0.703,0-1.366-0.285-1.816-0.779c-0.433-0.475-0.637-1.092-0.575-1.735L8.053,2.329
				C8.176,1.023,9.345,0,10.715,0h48.418C59.836,0,60.499,0.284,60.949,0.779z"/>
		</g>
	</g>
	<g>
		<path d="M39.945,21.689c0.025-1.626-0.648-2.601-1.65-3.187c-1.003-0.585-2.322-0.845-3.818-0.845
			c-3.382,0-5.049,0.976-5.347,2.666c-1.235,7.023,26.454,2.667,23.455,19.704c-1.911,10.861-11.877,16.128-24.753,16.128
			c-12.356,0-19.149-7.218-17.987-15.672h14.697c0.027,1.69,0.721,2.927,1.884,3.706c1.099,0.781,2.655,1.172,4.151,1.172
			c3.837,0,6.59-1.236,6.979-3.447c1.247-7.088-26.534-2.211-23.387-20.095C15.921,11.87,25.387,6.862,37.092,6.862
			c13.006,0,17.757,6.633,17.42,14.827H39.945z"/>
	</g>
</g>
</svg>
